AnekKannada-CondensedExtraBold.ufo
<glyph name="slash" format="2">
  <advance width="612"/>
  <unicode hex="002F"/>
  <outline>
    <contour>
      <point x="271" y="-239" type="line"/>
      <point x="612" y="1352" type="line"/>
      <point x="341" y="1352" type="line"/>
      <point x="0" y="-239" type="line"/>
    </contour>
  </outline>
</glyph>
<glyph name="eight" format="2">
  <advance width="834"/>
  <unicode hex="0038"/>
  <outline>
    <contour>
      <point x="417" y="-24" type="curve" smooth="yes"/>
      <point x="682" y="-24"/>
      <point x="796" y="110"/>
      <point x="796" y="334" type="curve" smooth="yes"/>
      <point x="796" y="368" type="line" smooth="yes"/>
      <point x="796" y="537"/>
      <point x="744" y="624"/>
      <point x="628" y="667" type="curve"/>
      <point x="628" y="677" type="line"/>
      <point x="735" y="717"/>
      <point x="787" y="791"/>
      <point x="787" y="934" type="curve" smooth="yes"/>
      <point x="787" y="966" type="line" smooth="yes"/>
      <point x="787" y="1176"/>
      <point x="680" y="1302"/>
      <point x="417" y="1302" type="curve" smooth="yes"/>
      <point x="157" y="1302"/>
      <point x="47" y="1176"/>
      <point x="47" y="966" type="curve" smooth="yes"/>
      <point x="47" y="924" type="line" smooth="yes"/>
      <point x="47" y="787"/>
      <point x="99" y="715"/>
      <point x="206" y="677" type="curve"/>
      <point x="206" y="667" type="line"/>
      <point x="90" y="626"/>
      <point x="38" y="537"/>
      <point x="38" y="368" type="curve" smooth="yes"/>
      <point x="38" y="334" type="line" smooth="yes"/>
      <point x="38" y="110"/>
      <point x="152" y="-24"/>
    </contour>
    <contour>
      <point x="417" y="226" type="curve" smooth="yes"/>
      <point x="358" y="226"/>
      <point x="340" y="266"/>
      <point x="340" y="344" type="curve" smooth="yes"/>
      <point x="340" y="413" type="line" smooth="yes"/>
      <point x="340" y="486"/>
      <point x="361" y="519"/>
      <point x="417" y="532" type="curve"/>
      <point x="473" y="523"/>
      <point x="494" y="486"/>
      <point x="494" y="413" type="curve" smooth="yes"/>
      <point x="494" y="344" type="line" smooth="yes"/>
      <point x="494" y="266"/>
      <point x="476" y="226"/>
    </contour>
    <contour>
      <point x="417" y="760" type="curve"/>
      <point x="363" y="773"/>
      <point x="341" y="810"/>
      <point x="341" y="884" type="curve" smooth="yes"/>
      <point x="341" y="942" type="line" smooth="yes"/>
      <point x="341" y="1019"/>
      <point x="360" y="1061"/>
      <point x="417" y="1061" type="curve" smooth="yes"/>
      <point x="474" y="1061"/>
      <point x="492" y="1019"/>
      <point x="492" y="942" type="curve" smooth="yes"/>
      <point x="492" y="884" type="line" smooth="yes"/>
      <point x="492" y="812"/>
      <point x="467" y="771"/>
    </contour>
  </outline>
</glyph>
<glyph name="question" format="2">
  <advance width="598"/>
  <unicode hex="003F"/>
  <outline>
    <contour>
      <point x="240" y="443" type="line" smooth="yes"/>
      <point x="469" y="530"/>
      <point x="566" y="644"/>
      <point x="566" y="887" type="curve" smooth="yes"/>
      <point x="566" y="961" type="line" smooth="yes"/>
      <point x="566" y="1169"/>
      <point x="473" y="1300"/>
      <point x="269" y="1300" type="curve" smooth="yes"/>
      <point x="177" y="1300"/>
      <point x="100" y="1277"/>
      <point x="47" y="1250" type="curve"/>
      <point x="18" y="987" type="line"/>
      <point x="60" y="1009"/>
      <point x="103" y="1024"/>
      <point x="150" y="1024" type="curve" smooth="yes"/>
      <point x="228" y="1024"/>
      <point x="257" y="981"/>
      <point x="257" y="906" type="curve" smooth="yes"/>
      <point x="257" y="882" type="line" smooth="yes"/>
      <point x="257" y="798"/>
      <point x="242" y="763"/>
      <point x="162" y="727" type="curve" smooth="yes"/>
      <point x="124" y="710" type="line"/>
      <point x="124" y="399" type="line"/>
    </contour>
    <contour>
      <point x="221" y="-28" type="curve" smooth="yes"/>
      <point x="326" y="-28"/>
      <point x="381" y="38"/>
      <point x="381" y="154" type="curve" smooth="yes"/>
      <point x="381" y="171" type="line" smooth="yes"/>
      <point x="381" y="285"/>
      <point x="326" y="353"/>
      <point x="221" y="353" type="curve" smooth="yes"/>
      <point x="112" y="353"/>
      <point x="61" y="285"/>
      <point x="61" y="171" type="curve" smooth="yes"/>
      <point x="61" y="154" type="line" smooth="yes"/>
      <point x="61" y="38"/>
      <point x="112" y="-28"/>
    </contour>
  </outline>
</glyph>
<glyph name="F" format="2">
  <advance width="691"/>
  <unicode hex="0046"/>
  <anchor x="346" y="0" name="bottom"/>
  <anchor x="346" y="1278" name="top"/>
  <outline>
    <contour>
      <point x="390" y="0" type="line"/>
      <point x="390" y="1278" type="line"/>
      <point x="74" y="1278" type="line"/>
      <point x="74" y="0" type="line"/>
    </contour>
    <contour>
      <point x="638" y="441" type="line"/>
      <point x="638" y="728" type="line"/>
      <point x="284" y="728" type="line"/>
      <point x="284" y="441" type="line"/>
    </contour>
    <contour>
      <point x="649" y="991" type="line"/>
      <point x="649" y="1278" type="line"/>
      <point x="284" y="1278" type="line"/>
      <point x="284" y="991" type="line"/>
    </contour>
  </outline>
</glyph>
<glyph name="N" format="2">
  <advance width="991"/>
  <unicode hex="004E"/>
  <anchor x="506" y="0" name="bottom"/>
  <anchor x="506" y="1278" name="top"/>
  <outline>
    <contour>
      <point x="74" y="1280" type="line"/>
      <point x="74" y="0" type="line"/>
      <point x="360" y="0" type="line"/>
      <point x="360" y="285" type="line"/>
      <point x="339" y="926" type="line"/>
      <point x="349" y="926" type="line"/>
      <point x="503" y="0" type="line"/>
      <point x="917" y="0" type="line"/>
      <point x="917" y="1280" type="line"/>
      <point x="633" y="1280" type="line"/>
      <point x="633" y="995" type="line"/>
      <point x="654" y="369" type="line"/>
      <point x="644" y="369" type="line"/>
      <point x="492" y="1280" type="line"/>
    </contour>
  </outline>
</glyph>
<glyph name="T" format="2">
  <advance width="766"/>
  <unicode hex="0054"/>
  <anchor x="383" y="0" name="bottom"/>
  <anchor x="383" y="639" name="center"/>
  <anchor x="383" y="1278" name="top"/>
  <outline>
    <contour>
      <point x="543" y="0" type="line"/>
      <point x="543" y="1278" type="line"/>
      <point x="223" y="1278" type="line"/>
      <point x="223" y="0" type="line"/>
    </contour>
    <contour>
      <point x="736" y="993" type="line"/>
      <point x="736" y="1278" type="line"/>
      <point x="30" y="1278" type="line"/>
      <point x="30" y="993" type="line"/>
    </contour>
  </outline>
</glyph>
<glyph name="backslash" format="2">
  <advance width="612"/>
  <unicode hex="005C"/>
  <outline>
    <contour>
      <point x="341" y="-239" type="line"/>
      <point x="0" y="1352" type="line"/>
      <point x="271" y="1352" type="line"/>
      <point x="612" y="-239" type="line"/>
    </contour>
  </outline>
</glyph>
<glyph name="c" format="2">
  <advance width="641"/>
  <unicode hex="0063"/>
  <anchor x="356" y="0" name="bottom"/>
  <anchor x="356" y="1006" name="top"/>
  <outline>
    <contour>
      <point x="391" y="-15" type="curve" smooth="yes"/>
      <point x="473" y="-15"/>
      <point x="546" y="5"/>
      <point x="594" y="33" type="curve"/>
      <point x="613" y="294" type="line"/>
      <point x="582" y="274"/>
      <point x="541" y="259"/>
      <point x="492" y="259" type="curve" smooth="yes"/>
      <point x="398" y="259"/>
      <point x="357" y="313"/>
      <point x="357" y="412" type="curve" smooth="yes"/>
      <point x="357" y="600" type="line" smooth="yes"/>
      <point x="357" y="699"/>
      <point x="392" y="753"/>
      <point x="484" y="753" type="curve" smooth="yes"/>
      <point x="532" y="753"/>
      <point x="569" y="738"/>
      <point x="604" y="718" type="curve"/>
      <point x="585" y="973" type="line"/>
      <point x="538" y="1001"/>
      <point x="473" y="1021"/>
      <point x="392" y="1021" type="curve" smooth="yes"/>
      <point x="157" y="1021"/>
      <point x="48" y="872"/>
      <point x="48" y="612" type="curve" smooth="yes"/>
      <point x="48" y="393" type="line" smooth="yes"/>
      <point x="48" y="134"/>
      <point x="155" y="-15"/>
    </contour>
  </outline>
</glyph>
<glyph name="m" format="2">
  <advance width="1279"/>
  <unicode hex="006D"/>
  <anchor x="640" y="0" name="bottom"/>
  <anchor x="640" y="1006" name="top"/>
  <outline>
    <contour>
      <point x="1217" y="0" type="line"/>
      <point x="1217" y="723" type="line" smooth="yes"/>
      <point x="1217" y="920"/>
      <point x="1155" y="1021"/>
      <point x="1000" y="1021" type="curve" smooth="yes"/>
      <point x="857" y="1021"/>
      <point x="809" y="922"/>
      <point x="792" y="815" type="curve"/>
      <point x="768" y="815" type="line"/>
      <point x="791" y="699" type="line"/>
      <point x="796" y="738"/>
      <point x="820" y="762"/>
      <point x="853" y="762" type="curve" smooth="yes"/>
      <point x="899" y="762"/>
      <point x="912" y="730"/>
      <point x="912" y="666" type="curve" smooth="yes"/>
      <point x="912" y="0" type="line"/>
    </contour>
    <contour>
      <point x="371" y="0" type="line"/>
      <point x="371" y="793" type="line"/>
      <point x="356" y="793" type="line"/>
      <point x="367" y="1006" type="line"/>
      <point x="66" y="1006" type="line"/>
      <point x="66" y="0" type="line"/>
    </contour>
    <contour>
      <point x="794" y="0" type="line"/>
      <point x="794" y="694" type="line" smooth="yes"/>
      <point x="794" y="727"/>
      <point x="789" y="765"/>
      <point x="785" y="791" type="curve"/>
      <point x="774" y="944"/>
      <point x="713" y="1021"/>
      <point x="577" y="1021" type="curve" smooth="yes"/>
      <point x="441" y="1021"/>
      <point x="391" y="933"/>
      <point x="369" y="821" type="curve"/>
      <point x="314" y="821" type="line"/>
      <point x="369" y="701" type="line"/>
      <point x="375" y="738"/>
      <point x="399" y="762"/>
      <point x="432" y="762" type="curve" smooth="yes"/>
      <point x="476" y="762"/>
      <point x="489" y="730"/>
      <point x="489" y="666" type="curve" smooth="yes"/>
      <point x="489" y="0" type="line"/>
    </contour>
  </outline>
</glyph>
<glyph name="p" format="2">
  <advance width="865"/>
  <unicode hex="0070"/>
  <anchor x="433" y="0" name="bottom"/>
  <anchor x="433" y="1006" name="top"/>
  <outline>
    <contour>
      <point x="584" y="-15" type="curve" smooth="yes"/>
      <point x="754" y="-15"/>
      <point x="814" y="120"/>
      <point x="814" y="386" type="curve" smooth="yes"/>
      <point x="814" y="615" type="line" smooth="yes"/>
      <point x="814" y="881"/>
      <point x="754" y="1021"/>
      <point x="586" y="1021" type="curve" smooth="yes"/>
      <point x="443" y="1021"/>
      <point x="393" y="933"/>
      <point x="375" y="821" type="curve"/>
      <point x="301" y="821" type="line"/>
      <point x="369" y="708" type="line"/>
      <point x="378" y="745"/>
      <point x="402" y="769"/>
      <point x="439" y="769" type="curve" smooth="yes"/>
      <point x="489" y="769"/>
      <point x="503" y="729"/>
      <point x="503" y="642" type="curve" smooth="yes"/>
      <point x="503" y="374" type="line" smooth="yes"/>
      <point x="503" y="287"/>
      <point x="489" y="245"/>
      <point x="439" y="245" type="curve" smooth="yes"/>
      <point x="389" y="245"/>
      <point x="371" y="283"/>
      <point x="371" y="359" type="curve"/>
      <point x="325" y="190" type="line"/>
      <point x="382" y="190" type="line"/>
      <point x="399" y="75"/>
      <point x="450" y="-15"/>
    </contour>
    <contour>
      <point x="375" y="-350" type="line"/>
      <point x="375" y="-77" type="line"/>
      <point x="371" y="226" type="line"/>
      <point x="371" y="256" type="line"/>
      <point x="371" y="747" type="line"/>
      <point x="360" y="749" type="line"/>
      <point x="373" y="1006" type="line"/>
      <point x="66" y="1006" type="line"/>
      <point x="66" y="-350" type="line"/>
    </contour>
  </outline>
</glyph>
<glyph name="q" format="2">
  <advance width="866"/>
  <unicode hex="0071"/>
  <anchor x="433" y="0" name="bottom"/>
  <anchor x="433" y="1006" name="top"/>
  <outline>
    <contour>
      <point x="279" y="-15" type="curve" smooth="yes"/>
      <point x="417" y="-15"/>
      <point x="467" y="79"/>
      <point x="483" y="190" type="curve"/>
      <point x="573" y="190" type="line"/>
      <point x="496" y="305" type="line"/>
      <point x="487" y="269"/>
      <point x="463" y="245"/>
      <point x="428" y="245" type="curve" smooth="yes"/>
      <point x="377" y="245"/>
      <point x="362" y="285"/>
      <point x="362" y="372" type="curve" smooth="yes"/>
      <point x="362" y="644" type="line" smooth="yes"/>
      <point x="362" y="729"/>
      <point x="377" y="769"/>
      <point x="426" y="769" type="curve" smooth="yes"/>
      <point x="476" y="769"/>
      <point x="494" y="730"/>
      <point x="494" y="655" type="curve"/>
      <point x="570" y="821" type="line"/>
      <point x="491" y="821" type="line"/>
      <point x="472" y="933"/>
      <point x="421" y="1021"/>
      <point x="283" y="1021" type="curve" smooth="yes"/>
      <point x="110" y="1021"/>
      <point x="51" y="881"/>
      <point x="51" y="620" type="curve" smooth="yes"/>
      <point x="51" y="381" type="line" smooth="yes"/>
      <point x="51" y="123"/>
      <point x="112" y="-15"/>
    </contour>
    <contour>
      <point x="800" y="-350" type="line"/>
      <point x="800" y="1006" type="line"/>
      <point x="492" y="1006" type="line"/>
      <point x="503" y="782" type="line"/>
      <point x="494" y="754" type="line"/>
      <point x="494" y="289" type="line"/>
      <point x="494" y="204" type="line"/>
      <point x="491" y="-77" type="line"/>
      <point x="491" y="-350" type="line"/>
    </contour>
  </outline>
</glyph>
<glyph name="y" format="2">
  <advance width="810"/>
  <unicode hex="0079"/>
  <anchor x="405" y="-333" name="bottom"/>
  <anchor x="405" y="1006" name="top"/>
  <outline>
    <contour>
      <point x="384" y="241" type="line"/>
      <point x="327" y="1006" type="line"/>
      <point x="18" y="1006" type="line"/>
      <point x="156" y="35" type="line"/>
      <point x="522" y="35" type="line"/>
      <point x="364" y="123" type="line"/>
      <point x="285" y="-350" type="line"/>
      <point x="583" y="-350" type="line"/>
      <point x="792" y="1006" type="line"/>
      <point x="483" y="1006" type="line"/>
      <point x="400" y="226" type="line"/>
      <point x="548" y="241" type="line"/>
    </contour>
  </outline>
</glyph>
<glyph name="asciitilde" format="2">
  <advance width="862"/>
  <unicode hex="007E"/>
  <outline>
    <contour>
      <point x="581" y="496" type="curve" smooth="yes"/>
      <point x="749" y="496"/>
      <point x="809" y="616"/>
      <point x="809" y="775" type="curve" smooth="yes"/>
      <point x="809" y="854" type="line"/>
      <point x="591" y="854" type="line"/>
      <point x="591" y="850" type="line"/>
      <point x="590" y="796"/>
      <point x="580" y="768"/>
      <point x="526" y="768" type="curve" smooth="yes"/>
      <point x="468" y="768"/>
      <point x="384" y="819"/>
      <point x="280" y="819" type="curve" smooth="yes"/>
      <point x="112" y="819"/>
      <point x="53" y="707"/>
      <point x="53" y="540" type="curve" smooth="yes"/>
      <point x="53" y="460" type="line"/>
      <point x="271" y="460" type="line"/>
      <point x="271" y="464" type="line"/>
      <point x="271" y="522"/>
      <point x="283" y="547"/>
      <point x="336" y="547" type="curve" smooth="yes"/>
      <point x="395" y="547"/>
      <point x="478" y="496"/>
    </contour>
  </outline>
</glyph>
<glyph name="micro" format="2">
  <advance width="877"/>
  <unicode hex="00B5"/>
  <outline>
    <contour>
      <point x="500" y="1006" type="line"/>
      <point x="500" y="224" type="line"/>
      <point x="557" y="224" type="line"/>
      <point x="546" y="0" type="line"/>
      <point x="811" y="0" type="line"/>
      <point x="811" y="1006" type="line"/>
    </contour>
    <contour>
      <point x="377" y="1006" type="line"/>
      <point x="66" y="1006" type="line"/>
      <point x="66" y="-350" type="line"/>
      <point x="361" y="-350" type="line"/>
      <point x="361" y="-277" type="line"/>
      <point x="335" y="36" type="line"/>
      <point x="339" y="36" type="line"/>
      <point x="355" y="7"/>
      <point x="377" y="-10"/>
      <point x="423" y="-10" type="curve" smooth="yes"/>
      <point x="494" y="-10"/>
      <point x="527" y="39"/>
      <point x="542" y="175" type="curve"/>
      <point x="603" y="175" type="line"/>
      <point x="502" y="305" type="line"/>
      <point x="495" y="270"/>
      <point x="471" y="244"/>
      <point x="436" y="244" type="curve" smooth="yes"/>
      <point x="390" y="244"/>
      <point x="377" y="276"/>
      <point x="377" y="342" type="curve"/>
    </contour>
  </outline>
</glyph>
<glyph name="eth" format="2">
  <advance width="843"/>
  <unicode hex="00F0"/>
  <outline>
    <contour>
      <point x="422" y="-20" type="curve" smooth="yes"/>
      <point x="670" y="-20"/>
      <point x="795" y="122"/>
      <point x="795" y="395" type="curve"/>
      <point x="795" y="611" type="line"/>
      <point x="795" y="887"/>
      <point x="699" y="1027"/>
      <point x="482" y="1324" type="curve"/>
      <point x="150" y="1324" type="line"/>
      <point x="150" y="1324" type="line"/>
      <point x="411" y="969"/>
      <point x="482" y="870"/>
      <point x="490" y="690" type="curve"/>
      <point x="489" y="674"/>
      <point x="489" y="659"/>
      <point x="488" y="643" type="curve"/>
      <point x="488" y="550"/>
      <point x="488" y="458"/>
      <point x="488" y="365" type="curve"/>
      <point x="488" y="273"/>
      <point x="473" y="232"/>
      <point x="422" y="232" type="curve" smooth="yes"/>
      <point x="370" y="232"/>
      <point x="355" y="273"/>
      <point x="355" y="365" type="curve"/>
      <point x="355" y="526" type="line" smooth="yes"/>
      <point x="355" y="611"/>
      <point x="370" y="651"/>
      <point x="420" y="651" type="curve" smooth="yes"/>
      <point x="470" y="651"/>
      <point x="488" y="612"/>
      <point x="488" y="537" type="curve"/>
      <point x="557" y="723" type="line"/>
      <point x="476" y="723" type="line"/>
      <point x="454" y="824"/>
      <point x="409" y="903"/>
      <point x="283" y="903" type="curve" smooth="yes"/>
      <point x="112" y="903"/>
      <point x="48" y="762"/>
      <point x="48" y="490" type="curve" smooth="yes"/>
      <point x="48" y="395" type="line"/>
      <point x="48" y="122"/>
      <point x="173" y="-20"/>
    </contour>
    <contour>
      <point x="771" y="1101" type="line"/>
      <point x="771" y="1268" type="line"/>
      <point x="150" y="1127" type="line"/>
      <point x="150" y="960" type="line"/>
    </contour>
  </outline>
</glyph>
<glyph name="Candrabindu" format="2">
  <unicode hex="0C81"/>
  <unicode hex="0D01"/>
  <outline>
    <contour>
      <point x="-653" y="1478" type="curve" smooth="yes"/>
      <point x="-808" y="1478"/>
      <point x="-842" y="1572"/>
      <point x="-842" y="1653" type="curve" smooth="yes"/>
      <point x="-842" y="1693" type="line"/>
      <point x="-1047" y="1693" type="line"/>
      <point x="-1047" y="1653" type="line" smooth="yes"/>
      <point x="-1047" y="1456"/>
      <point x="-956" y="1292"/>
      <point x="-655" y="1292" type="curve" smooth="yes"/>
      <point x="-352" y="1292"/>
      <point x="-258" y="1454"/>
      <point x="-258" y="1653" type="curve" smooth="yes"/>
      <point x="-258" y="1693" type="line"/>
      <point x="-463" y="1693" type="line"/>
      <point x="-463" y="1653" type="line" smooth="yes"/>
      <point x="-463" y="1573"/>
      <point x="-497" y="1478"/>
    </contour>
    <contour>
      <point x="-771" y="1684" type="line" smooth="yes"/>
      <point x="-771" y="1599"/>
      <point x="-730" y="1553"/>
      <point x="-653" y="1553" type="curve" smooth="yes"/>
      <point x="-576" y="1553"/>
      <point x="-534" y="1599"/>
      <point x="-534" y="1684" type="curve" smooth="yes"/>
      <point x="-534" y="1696" type="line" smooth="yes"/>
      <point x="-534" y="1781"/>
      <point x="-576" y="1829"/>
      <point x="-653" y="1829" type="curve" smooth="yes"/>
      <point x="-730" y="1829"/>
      <point x="-771" y="1781"/>
      <point x="-771" y="1696" type="curve" smooth="yes"/>
    </contour>
  </outline>
</glyph>
<glyph name="Visarga.kn" format="2">
  <advance width="603"/>
  <unicode hex="0C83"/>
  <outline>
    <contour>
      <point x="302" y="-2" type="curve" smooth="yes"/>
      <point x="482" y="-2"/>
      <point x="578" y="82"/>
      <point x="578" y="264" type="curve" smooth="yes"/>
      <point x="578" y="287" type="line" smooth="yes"/>
      <point x="578" y="464"/>
      <point x="482" y="553"/>
      <point x="302" y="553" type="curve" smooth="yes"/>
      <point x="122" y="553"/>
      <point x="25" y="464"/>
      <point x="25" y="287" type="curve" smooth="yes"/>
      <point x="25" y="264" type="line" smooth="yes"/>
      <point x="25" y="82"/>
      <point x="122" y="-2"/>
    </contour>
    <contour>
      <point x="302" y="355" type="curve" smooth="yes"/>
      <point x="331" y="355"/>
      <point x="346" y="334"/>
      <point x="346" y="287" type="curve" smooth="yes"/>
      <point x="346" y="264" type="line" smooth="yes"/>
      <point x="346" y="212"/>
      <point x="331" y="196"/>
      <point x="302" y="196" type="curve" smooth="yes"/>
      <point x="273" y="196"/>
      <point x="257" y="212"/>
      <point x="257" y="264" type="curve" smooth="yes"/>
      <point x="257" y="287" type="line" smooth="yes"/>
      <point x="257" y="334"/>
      <point x="273" y="355"/>
    </contour>
    <contour>
      <point x="302" y="593" type="curve" smooth="yes"/>
      <point x="482" y="593"/>
      <point x="578" y="677"/>
      <point x="578" y="859" type="curve" smooth="yes"/>
      <point x="578" y="882" type="line" smooth="yes"/>
      <point x="578" y="1059"/>
      <point x="482" y="1148"/>
      <point x="302" y="1148" type="curve" smooth="yes"/>
      <point x="122" y="1148"/>
      <point x="25" y="1059"/>
      <point x="25" y="882" type="curve" smooth="yes"/>
      <point x="25" y="859" type="line" smooth="yes"/>
      <point x="25" y="677"/>
      <point x="122" y="593"/>
    </contour>
    <contour>
      <point x="302" y="950" type="curve" smooth="yes"/>
      <point x="331" y="950"/>
      <point x="346" y="929"/>
      <point x="346" y="882" type="curve" smooth="yes"/>
      <point x="346" y="859" type="line" smooth="yes"/>
      <point x="346" y="807"/>
      <point x="331" y="791"/>
      <point x="302" y="791" type="curve" smooth="yes"/>
      <point x="273" y="791"/>
      <point x="257" y="807"/>
      <point x="257" y="859" type="curve" smooth="yes"/>
      <point x="257" y="882" type="line" smooth="yes"/>
      <point x="257" y="929"/>
      <point x="273" y="950"/>
    </contour>
  </outline>
  <guideline angle="0" x="0" y="53"/>
  <guideline angle="0" x="0" y="1156"/>
</glyph>
<glyph name="swastisri" format="2">
  <advance width="1436"/>
  <unicode hex="0C84"/>
  <outline>
    <contour>
      <point x="1396" y="536" type="line" smooth="yes"/>
      <point x="1396" y="155"/>
      <point x="1160" y="-33"/>
      <point x="734" y="-33" type="curve" smooth="yes"/>
      <point x="288" y="-33"/>
      <point x="40" y="181"/>
      <point x="40" y="604" type="curve" smooth="yes"/>
      <point x="40" y="665" type="line" smooth="yes"/>
      <point x="40" y="1134"/>
      <point x="322" y="1382"/>
      <point x="813" y="1382" type="curve"/>
      <point x="837" y="1199" type="line"/>
      <point x="476" y="1199"/>
      <point x="262" y="1016"/>
      <point x="262" y="665" type="curve" smooth="yes"/>
      <point x="262" y="607" type="line" smooth="yes"/>
      <point x="262" y="306"/>
      <point x="437" y="151"/>
      <point x="731" y="151" type="curve" smooth="yes"/>
      <point x="1008" y="151"/>
      <point x="1174" y="283"/>
      <point x="1174" y="543" type="curve" smooth="yes"/>
      <point x="1174" y="602" type="line" smooth="yes"/>
      <point x="1174" y="852"/>
      <point x="1053" y="973"/>
      <point x="847" y="973" type="curve" smooth="yes"/>
      <point x="649" y="973"/>
      <point x="534" y="875"/>
      <point x="534" y="669" type="curve" smooth="yes"/>
      <point x="534" y="613" type="line" smooth="yes"/>
      <point x="534" y="454"/>
      <point x="609" y="378"/>
      <point x="734" y="378" type="curve" smooth="yes"/>
      <point x="841" y="378"/>
      <point x="902" y="429"/>
      <point x="902" y="564" type="curve" smooth="yes"/>
      <point x="902" y="668" type="line" smooth="yes"/>
      <point x="902" y="729"/>
      <point x="884" y="749"/>
      <point x="851" y="749" type="curve" smooth="yes"/>
      <point x="813" y="749"/>
      <point x="801" y="720"/>
      <point x="801" y="667" type="curve" smooth="yes"/>
      <point x="801" y="646" type="line" smooth="yes"/>
      <point x="801" y="590"/>
      <point x="819" y="573"/>
      <point x="852" y="570" type="curve"/>
      <point x="852" y="465" type="line"/>
      <point x="826" y="439"/>
      <point x="784" y="424"/>
      <point x="740" y="424" type="curve" smooth="yes"/>
      <point x="639" y="424"/>
      <point x="583" y="496"/>
      <point x="583" y="624" type="curve" smooth="yes"/>
      <point x="583" y="650" type="line" smooth="yes"/>
      <point x="583" y="843"/>
      <point x="679" y="927"/>
      <point x="846" y="927" type="curve" smooth="yes"/>
      <point x="1021" y="927"/>
      <point x="1121" y="827"/>
      <point x="1121" y="614" type="curve" smooth="yes"/>
      <point x="1121" y="556" type="line" smooth="yes"/>
      <point x="1121" y="312"/>
      <point x="980" y="197"/>
      <point x="734" y="197" type="curve" smooth="yes"/>
      <point x="468" y="197"/>
      <point x="315" y="332"/>
      <point x="315" y="607" type="curve" smooth="yes"/>
      <point x="315" y="665" type="line" smooth="yes"/>
      <point x="315" y="987"/>
      <point x="512" y="1154"/>
      <point x="848" y="1154" type="curve" smooth="yes"/>
      <point x="1198" y="1154"/>
      <point x="1396" y="965"/>
      <point x="1396" y="598" type="curve" smooth="yes"/>
    </contour>
  </outline>
</glyph>
<glyph name="vowelA.kn" format="2">
  <advance width="1492"/>
  <unicode hex="0C85"/>
  <outline>
    <contour>
      <point x="1092" y="440" type="line"/>
      <point x="1092" y="684" type="line"/>
      <point x="681" y="684" type="line"/>
      <point x="681" y="440" type="line"/>
    </contour>
    <contour>
      <point x="1095" y="1244" type="curve" smooth="yes"/>
      <point x="878" y="1244"/>
      <point x="768" y="1143"/>
      <point x="768" y="943" type="curve" smooth="yes"/>
      <point x="768" y="902" type="line" smooth="yes"/>
      <point x="768" y="771"/>
      <point x="818" y="703"/>
      <point x="919" y="692" type="curve"/>
      <point x="919" y="675" type="line"/>
      <point x="1088" y="675" type="line"/>
      <point x="1088" y="684" type="line"/>
      <point x="1063" y="683"/>
      <point x="1047" y="711"/>
      <point x="1047" y="779" type="curve" smooth="yes"/>
      <point x="1047" y="893" type="line" smooth="yes"/>
      <point x="1047" y="954"/>
      <point x="1060" y="979"/>
      <point x="1092" y="979" type="curve" smooth="yes"/>
      <point x="1127" y="979"/>
      <point x="1141" y="954"/>
      <point x="1141" y="893" type="curve" smooth="yes"/>
      <point x="1141" y="575" type="line" smooth="yes"/>
      <point x="1141" y="363"/>
      <point x="1010" y="256"/>
      <point x="753" y="256" type="curve" smooth="yes"/>
      <point x="487" y="256"/>
      <point x="348" y="369"/>
      <point x="348" y="586" type="curve" smooth="yes"/>
      <point x="348" y="669" type="line"/>
      <point x="50" y="678" type="line"/>
      <point x="50" y="588" type="line" smooth="yes"/>
      <point x="50" y="184"/>
      <point x="290" y="-27"/>
      <point x="753" y="-27" type="curve" smooth="yes"/>
      <point x="1209" y="-27"/>
      <point x="1442" y="180"/>
      <point x="1442" y="587" type="curve" smooth="yes"/>
      <point x="1442" y="860" type="line" smooth="yes"/>
      <point x="1442" y="1119"/>
      <point x="1323" y="1244"/>
    </contour>
    <contour>
      <point x="393" y="1244" type="curve" smooth="yes"/>
      <point x="166" y="1244"/>
      <point x="50" y="1119"/>
      <point x="50" y="861" type="curve" smooth="yes"/>
      <point x="50" y="668" type="line"/>
      <point x="343" y="665" type="line"/>
      <point x="343" y="900" type="line" smooth="yes"/>
      <point x="343" y="960"/>
      <point x="357" y="984"/>
      <point x="391" y="984" type="curve" smooth="yes"/>
      <point x="425" y="984"/>
      <point x="439" y="960"/>
      <point x="439" y="900" type="curve" smooth="yes"/>
      <point x="439" y="763" type="line" smooth="yes"/>
      <point x="439" y="720"/>
      <point x="424" y="699"/>
      <point x="393" y="699" type="curve" smooth="yes"/>
      <point x="352" y="699"/>
      <point x="326" y="732"/>
      <point x="318" y="797" type="curve"/>
      <point x="310" y="605" type="line"/>
      <point x="356" y="605" type="line"/>
      <point x="376" y="522"/>
      <point x="435" y="479"/>
      <point x="522" y="479" type="curve" smooth="yes"/>
      <point x="655" y="479"/>
      <point x="720" y="572"/>
      <point x="720" y="757" type="curve" smooth="yes"/>
      <point x="720" y="894" type="line" smooth="yes"/>
      <point x="720" y="1126"/>
      <point x="612" y="1244"/>
    </contour>
  </outline>
  <guideline angle="0" x="0" y="1774"/>
  <guideline angle="0" x="0" y="680"/>
  <guideline angle="0" x="0" y="1326"/>
</glyph>
<glyph name="Ka.kn" format="2">
  <advance width="968"/>
  <unicode hex="0C95"/>
  <outline>
    <contour>
      <point x="52" y="826" type="line"/>
      <point x="52" y="574" type="line"/>
      <point x="290" y="574" type="line"/>
      <point x="290" y="607" type="line"/>
      <point x="681" y="607" type="line"/>
      <point x="681" y="574" type="line"/>
      <point x="912" y="574" type="line"/>
      <point x="912" y="826" type="line"/>
    </contour>
    <contour>
      <point x="335" y="1070" type="line"/>
      <point x="335" y="773" type="line"/>
      <point x="629" y="773" type="line"/>
      <point x="629" y="1070" type="line"/>
    </contour>
    <contour>
      <point x="52" y="1207" type="line"/>
      <point x="52" y="955" type="line"/>
      <point x="658" y="955" type="line"/>
      <point x="658" y="1207" type="line"/>
    </contour>
    <contour>
      <point x="482" y="238" type="curve" smooth="yes"/>
      <point x="422" y="238"/>
      <point x="393" y="274"/>
      <point x="393" y="356" type="curve" smooth="yes"/>
      <point x="393" y="465" type="line" smooth="yes"/>
      <point x="393" y="547"/>
      <point x="422" y="583"/>
      <point x="482" y="583" type="curve" smooth="yes"/>
      <point x="542" y="583"/>
      <point x="571" y="547"/>
      <point x="571" y="465" type="curve" smooth="yes"/>
      <point x="571" y="356" type="line" smooth="yes"/>
      <point x="571" y="274"/>
      <point x="542" y="238"/>
    </contour>
    <contour>
      <point x="235" y="630" type="line"/>
      <point x="235" y="567" type="line"/>
      <point x="145" y="552"/>
      <point x="93" y="473"/>
      <point x="93" y="343" type="curve" smooth="yes"/>
      <point x="93" y="312" type="line" smooth="yes"/>
      <point x="93" y="85"/>
      <point x="227" y="-33"/>
      <point x="482" y="-33" type="curve" smooth="yes"/>
      <point x="737" y="-33"/>
      <point x="871" y="85"/>
      <point x="871" y="312" type="curve" smooth="yes"/>
      <point x="871" y="343" type="line" smooth="yes"/>
      <point x="871" y="473"/>
      <point x="819" y="552"/>
      <point x="729" y="567" type="curve"/>
      <point x="729" y="630" type="line"/>
    </contour>
    <contour>
      <point x="633" y="1514" type="line"/>
      <point x="642.286" y="1441"/>
      <point x="646" y="1379"/>
      <point x="646" y="1303" type="curve" smooth="yes"/>
      <point x="646" y="1234"/>
      <point x="629" y="1207"/>
      <point x="574" y="1207" type="curve" smooth="yes"/>
      <point x="556" y="1207" type="line"/>
      <point x="612" y="955" type="line"/>
      <point x="717" y="955" type="line" smooth="yes"/>
      <point x="862" y="955"/>
      <point x="932" y="1040"/>
      <point x="932" y="1221" type="curve" smooth="yes"/>
      <point x="932" y="1315"/>
      <point x="910.095" y="1418"/>
      <point x="863" y="1514" type="curve"/>
    </contour>
  </outline>
  <guideline angle="90" x="1613" y="0"/>
  <guideline angle="0" x="0" y="1709"/>
</glyph>
<glyph name="Ttha.kn" format="2">
  <advance width="1048"/>
  <unicode hex="0CA0"/>
  <outline>
    <contour>
      <point x="250" y="980" type="line"/>
      <point x="250" y="948" type="line"/>
      <point x="122" y="920"/>
      <point x="63" y="818"/>
      <point x="63" y="604" type="curve" smooth="yes"/>
      <point x="63" y="457" type="line" smooth="yes"/>
      <point x="63" y="127"/>
      <point x="212" y="-32"/>
      <point x="523" y="-32" type="curve" smooth="yes"/>
      <point x="834" y="-32"/>
      <point x="983" y="127"/>
      <point x="983" y="457" type="curve" smooth="yes"/>
      <point x="983" y="604" type="line" smooth="yes"/>
      <point x="983" y="819"/>
      <point x="921" y="921"/>
      <point x="786" y="948" type="curve"/>
      <point x="786" y="980" type="line"/>
    </contour>
    <contour>
      <point x="63" y="1207" type="line"/>
      <point x="63" y="955" type="line"/>
      <point x="700" y="955" type="line"/>
      <point x="700" y="1207" type="line"/>
    </contour>
    <contour>
      <point x="524" y="781" type="curve" smooth="yes"/>
      <point x="446" y="781"/>
      <point x="404" y="725"/>
      <point x="404" y="621" type="curve" smooth="yes"/>
      <point x="404" y="600" type="line" smooth="yes"/>
      <point x="404" y="495"/>
      <point x="446" y="439"/>
      <point x="524" y="439" type="curve" smooth="yes"/>
      <point x="601" y="439"/>
      <point x="643" y="494"/>
      <point x="643" y="598" type="curve" smooth="yes"/>
      <point x="643" y="621" type="line" smooth="yes"/>
      <point x="643" y="725"/>
      <point x="601" y="781"/>
    </contour>
    <contour>
      <point x="678" y="742" type="curve" smooth="yes"/>
      <point x="678" y="464" type="line" smooth="yes"/>
      <point x="678" y="319"/>
      <point x="632" y="251"/>
      <point x="523" y="251" type="curve" smooth="yes"/>
      <point x="415" y="251"/>
      <point x="368" y="319"/>
      <point x="368" y="464" type="curve" smooth="yes"/>
      <point x="368" y="742" type="line" smooth="yes"/>
      <point x="368" y="887"/>
      <point x="415" y="955"/>
      <point x="523" y="955" type="curve" smooth="yes"/>
      <point x="632" y="955"/>
      <point x="678" y="887"/>
    </contour>
    <contour>
      <point x="709" y="1514" type="line"/>
      <point x="718.286" y="1441"/>
      <point x="722" y="1379"/>
      <point x="722" y="1303" type="curve" smooth="yes"/>
      <point x="722" y="1234"/>
      <point x="705" y="1207"/>
      <point x="650" y="1207" type="curve" smooth="yes"/>
      <point x="632" y="1207" type="line"/>
      <point x="688" y="955" type="line"/>
      <point x="793" y="955" type="line" smooth="yes"/>
      <point x="938" y="955"/>
      <point x="1008" y="1040"/>
      <point x="1008" y="1221" type="curve" smooth="yes"/>
      <point x="1008" y="1315"/>
      <point x="986.095" y="1418"/>
      <point x="939" y="1514" type="curve"/>
    </contour>
  </outline>
  <guideline angle="90" x="983" y="0"/>
  <guideline angle="90" x="523" y="0"/>
  <guideline angle="90" x="1615" y="0"/>
  <guideline angle="0" x="0" y="1709"/>
  <guideline angle="90" x="1304" y="0"/>
</glyph>
<glyph name="Avagraha" format="2">
  <advance width="707"/>
  <unicode hex="0CBD"/>
  <outline>
    <contour>
      <point x="611" y="1207" type="line"/>
      <point x="381" y="1207" type="line" smooth="yes"/>
      <point x="148" y="1207"/>
      <point x="19" y="1107"/>
      <point x="19" y="898" type="curve" smooth="yes"/>
      <point x="19" y="887" type="line" smooth="yes"/>
      <point x="19" y="559"/>
      <point x="357" y="544"/>
      <point x="357" y="357" type="curve" smooth="yes"/>
      <point x="357" y="352" type="line" smooth="yes"/>
      <point x="357" y="284"/>
      <point x="315" y="252"/>
      <point x="231" y="252" type="curve" smooth="yes"/>
      <point x="141" y="252"/>
      <point x="67" y="277"/>
      <point x="15" y="308" type="curve"/>
      <point x="55" y="19" type="line"/>
      <point x="128" y="-15"/>
      <point x="213" y="-32"/>
      <point x="308" y="-32" type="curve" smooth="yes"/>
      <point x="541" y="-32"/>
      <point x="667" y="92"/>
      <point x="667" y="321" type="curve" smooth="yes"/>
      <point x="667" y="333" type="line" smooth="yes"/>
      <point x="667" y="681"/>
      <point x="329" y="731"/>
      <point x="329" y="875" type="curve"/>
      <point x="329" y="877" type="line"/>
      <point x="329" y="928"/>
      <point x="358" y="952"/>
      <point x="417" y="952" type="curve" smooth="yes"/>
      <point x="611" y="952" type="line"/>
    </contour>
  </outline>
  <guideline angle="90" x="148" y="0"/>
  <guideline angle="0" x="0" y="1331"/>
</glyph>
<glyph name="matraAa.kn" format="2">
  <advance width="1157"/>
  <unicode hex="0CBE"/>
  <outline>
    <contour>
      <point x="1095" y="502.192" type="line"/>
      <point x="1095" y="652" type="line" smooth="yes"/>
      <point x="1095" y="1030"/>
      <point x="920" y="1207"/>
      <point x="530" y="1207" type="curve" smooth="yes"/>
      <point x="28" y="1207" type="line"/>
      <point x="28" y="955" type="line"/>
      <point x="506" y="955" type="line" smooth="yes"/>
      <point x="709" y="955"/>
      <point x="795" y="863"/>
      <point x="795" y="647" type="curve" smooth="yes"/>
      <point x="795" y="534.857" type="line"/>
    </contour>
    <contour>
      <point x="749" y="-27" type="curve" smooth="yes"/>
      <point x="976" y="-27"/>
      <point x="1095" y="98"/>
      <point x="1095" y="356" type="curve" smooth="yes"/>
      <point x="1095" y="511.192" type="line"/>
      <point x="800" y="538" type="line"/>
      <point x="800" y="313" type="line" smooth="yes"/>
      <point x="800" y="253"/>
      <point x="786" y="228"/>
      <point x="751" y="228" type="curve" smooth="yes"/>
      <point x="716" y="228"/>
      <point x="702" y="253"/>
      <point x="702" y="313" type="curve" smooth="yes"/>
      <point x="702" y="443" type="line" smooth="yes"/>
      <point x="702" y="486"/>
      <point x="717" y="507"/>
      <point x="749" y="507" type="curve" smooth="yes"/>
      <point x="791" y="507"/>
      <point x="817" y="474"/>
      <point x="825" y="408" type="curve"/>
      <point x="833" y="602" type="line"/>
      <point x="787" y="602" type="line"/>
      <point x="767" y="703"/>
      <point x="712" y="753"/>
      <point x="616" y="753" type="curve" smooth="yes"/>
      <point x="479" y="753"/>
      <point x="413" y="656"/>
      <point x="413" y="461" type="curve" smooth="yes"/>
      <point x="413" y="323" type="line" smooth="yes"/>
      <point x="413" y="91"/>
      <point x="525" y="-27"/>
    </contour>
  </outline>
</glyph>
<glyph name="matraU.kn" format="2">
  <advance width="484"/>
  <unicode hex="0CC1"/>
  <outline>
    <contour>
      <point x="120" y="1222" type="curve" smooth="yes"/>
      <point x="86" y="1222"/>
      <point x="56" y="1220"/>
      <point x="32" y="1217" type="curve"/>
      <point x="32" y="929" type="line"/>
      <point x="38" y="930"/>
      <point x="46" y="931"/>
      <point x="54" y="931" type="curve" smooth="yes"/>
      <point x="88" y="931"/>
      <point x="107" y="910"/>
      <point x="107" y="838" type="curve" smooth="yes"/>
      <point x="107" y="379" type="line" smooth="yes"/>
      <point x="107" y="292"/>
      <point x="85" y="254"/>
      <point x="22" y="254" type="curve" smooth="yes"/>
      <point x="-38" y="254"/>
      <point x="-65" y="291"/>
      <point x="-65" y="378" type="curve" smooth="yes"/>
      <point x="-65" y="381" type="line"/>
      <point x="-136" y="381" type="line"/>
      <point x="-136" y="340" type="line" smooth="yes"/>
      <point x="-136" y="96"/>
      <point x="-41" y="-27"/>
      <point x="142" y="-27" type="curve" smooth="yes"/>
      <point x="328" y="-27"/>
      <point x="417" y="100"/>
      <point x="417" y="355" type="curve" smooth="yes"/>
      <point x="417" y="840" type="line" smooth="yes"/>
      <point x="417" y="1102"/>
      <point x="324" y="1222"/>
    </contour>
  </outline>
  <guideline angle="90" x="-65" y="0"/>
</glyph>
<glyph name="matraRu.kn" format="2">
  <advance width="220"/>
  <unicode hex="0CC3"/>
  <outline>
    <contour>
      <point x="-404" y="-405.725" type="line"/>
      <point x="-404" y="-450" type="line" smooth="yes"/>
      <point x="-404" y="-657.54"/>
      <point x="-285" y="-770"/>
      <point x="-69" y="-770" type="curve" smooth="yes"/>
      <point x="149.579" y="-770"/>
      <point x="270" y="-657.54"/>
      <point x="270" y="-450" type="curve" smooth="yes"/>
      <point x="270" y="-184" type="line" smooth="yes"/>
      <point x="270" y="13"/>
      <point x="229" y="120"/>
      <point x="183" y="197" type="curve"/>
      <point x="-6" y="197" type="line"/>
      <point x="38" y="119"/>
      <point x="78" y="6"/>
      <point x="78" y="-182" type="curve" smooth="yes"/>
      <point x="78" y="-445" type="line" smooth="yes"/>
      <point x="78" y="-549.667"/>
      <point x="30" y="-602"/>
      <point x="-69" y="-602" type="curve" smooth="yes"/>
      <point x="-168" y="-602"/>
      <point x="-216" y="-549.667"/>
      <point x="-216" y="-445" type="curve" smooth="yes"/>
      <point x="-216" y="-403.278" type="line"/>
    </contour>
    <contour>
      <point x="-192" y="-97" type="curve" smooth="yes"/>
      <point x="-330" y="-97"/>
      <point x="-404" y="-166"/>
      <point x="-404" y="-314" type="curve" smooth="yes"/>
      <point x="-404" y="-408" type="line"/>
      <point x="-224" y="-409" type="line"/>
      <point x="-224" y="-292" type="line" smooth="yes"/>
      <point x="-224" y="-260"/>
      <point x="-216" y="-247"/>
      <point x="-196" y="-247" type="curve" smooth="yes"/>
      <point x="-176" y="-247"/>
      <point x="-168" y="-260"/>
      <point x="-168" y="-292" type="curve" smooth="yes"/>
      <point x="-168" y="-357" type="line" smooth="yes"/>
      <point x="-168" y="-378"/>
      <point x="-175" y="-389"/>
      <point x="-194" y="-389" type="curve" smooth="yes"/>
      <point x="-214.235" y="-389"/>
      <point x="-228.147" y="-374"/>
      <point x="-237" y="-344" type="curve"/>
      <point x="-249" y="-444" type="line"/>
      <point x="-212" y="-444" type="line"/>
      <point x="-202" y="-489"/>
      <point x="-167" y="-515"/>
      <point x="-113" y="-515" type="curve" smooth="yes"/>
      <point x="-36" y="-515"/>
      <point x="5" y="-466"/>
      <point x="5" y="-364" type="curve" smooth="yes"/>
      <point x="5" y="-292" type="line" smooth="yes"/>
      <point x="5" y="-162"/>
      <point x="-63" y="-97"/>
    </contour>
  </outline>
</glyph>
<glyph name="matraE.kn" format="2">
  <advance width="764"/>
  <unicode hex="0CC6"/>
  <outline>
    <contour>
      <point x="429" y="955" type="line" smooth="yes"/>
      <point x="610" y="955"/>
      <point x="699" y="1066"/>
      <point x="699" y="1291" type="curve" smooth="yes"/>
      <point x="699" y="1374" type="line" smooth="yes"/>
      <point x="699" y="1570"/>
      <point x="607" y="1668"/>
      <point x="423" y="1668" type="curve" smooth="yes"/>
      <point x="244" y="1668"/>
      <point x="153" y="1583"/>
      <point x="153" y="1424" type="curve" smooth="yes"/>
      <point x="153" y="1413" type="line" smooth="yes"/>
      <point x="153" y="1351"/>
      <point x="169" y="1294"/>
      <point x="190" y="1260" type="curve"/>
      <point x="394" y="1260" type="line"/>
      <point x="394" y="1305.97"/>
      <point x="394" y="1336.31"/>
      <point x="394" y="1374" type="curve" smooth="yes"/>
      <point x="394" y="1394" type="line" smooth="yes"/>
      <point x="394" y="1425"/>
      <point x="402" y="1440"/>
      <point x="423" y="1440" type="curve" smooth="yes"/>
      <point x="444" y="1440"/>
      <point x="452" y="1425"/>
      <point x="452" y="1394" type="curve" smooth="yes"/>
      <point x="452" y="1314" type="line" smooth="yes"/>
      <point x="452" y="1237"/>
      <point x="423" y="1207"/>
      <point x="359" y="1207" type="curve" smooth="yes"/>
      <point x="299" y="1207" type="line"/>
      <point x="299" y="955" type="line"/>
    </contour>
  </outline>
</glyph>
<glyph name="Halant.kn" format="2">
  <advance width="633"/>
  <unicode hex="0CCD"/>
  <outline>
    <contour>
      <point x="277" y="1065" type="line"/>
      <point x="277" y="1140" type="line" smooth="yes"/>
      <point x="277" y="1258"/>
      <point x="332" y="1314"/>
      <point x="446" y="1314" type="curve" smooth="yes"/>
      <point x="501" y="1314"/>
      <point x="554" y="1305"/>
      <point x="607" y="1285" type="curve"/>
      <point x="579" y="1511" type="line"/>
      <point x="530" y="1533"/>
      <point x="468" y="1547"/>
      <point x="393" y="1547" type="curve" smooth="yes"/>
      <point x="140" y="1547"/>
      <point x="15" y="1411"/>
      <point x="15" y="1128" type="curve" smooth="yes"/>
      <point x="15" y="1066" type="line"/>
    </contour>
    <contour>
      <point x="318" y="516" type="curve" smooth="yes"/>
      <point x="525" y="516"/>
      <point x="629" y="623"/>
      <point x="629" y="834" type="curve" smooth="yes"/>
      <point x="629" y="916" type="line" smooth="yes"/>
      <point x="629" y="1115"/>
      <point x="539" y="1207"/>
      <point x="345" y="1207" type="curve" smooth="yes"/>
      <point x="-419" y="1207" type="line"/>
      <point x="-419" y="955" type="line"/>
      <point x="175" y="955" type="line"/>
      <point x="175" y="980" type="line"/>
      <point x="303" y="980" type="line" smooth="yes"/>
      <point x="350" y="980"/>
      <point x="365" y="961"/>
      <point x="365" y="904" type="curve" smooth="yes"/>
      <point x="365" y="826" type="line" smooth="yes"/>
      <point x="365" y="771"/>
      <point x="352" y="750"/>
      <point x="321" y="750" type="curve" smooth="yes"/>
      <point x="289" y="750"/>
      <point x="277" y="771"/>
      <point x="277" y="826" type="curve" smooth="yes"/>
      <point x="277" y="1073" type="line"/>
      <point x="15" y="1073" type="line"/>
      <point x="15" y="844" type="line" smooth="yes"/>
      <point x="15" y="622"/>
      <point x="120" y="516"/>
    </contour>
  </outline>
  <guideline angle="0" x="0" y="1808"/>
</glyph>
<glyph name="Lengthmark.kn" format="2">
  <advance width="765"/>
  <unicode hex="0CD5"/>
  <outline>
    <contour>
      <point x="345" y="674" type="line"/>
      <point x="345" y="899" type="line" smooth="yes"/>
      <point x="345" y="959"/>
      <point x="359" y="984"/>
      <point x="394" y="984" type="curve" smooth="yes"/>
      <point x="429" y="984"/>
      <point x="443" y="959"/>
      <point x="443" y="899" type="curve" smooth="yes"/>
      <point x="443" y="763" type="line" smooth="yes"/>
      <point x="443" y="720"/>
      <point x="428" y="699"/>
      <point x="396" y="699" type="curve" smooth="yes"/>
      <point x="354" y="699"/>
      <point x="328" y="732"/>
      <point x="320" y="797" type="curve"/>
      <point x="312" y="605" type="line"/>
      <point x="359" y="605" type="line"/>
      <point x="379" y="522"/>
      <point x="437" y="479"/>
      <point x="525" y="479" type="curve" smooth="yes"/>
      <point x="659" y="479"/>
      <point x="727" y="572"/>
      <point x="727" y="756" type="curve" smooth="yes"/>
      <point x="727" y="894" type="line" smooth="yes"/>
      <point x="727" y="1126"/>
      <point x="616" y="1244"/>
      <point x="396" y="1244" type="curve" smooth="yes"/>
      <point x="169" y="1244"/>
      <point x="50" y="1119"/>
      <point x="50" y="861" type="curve" smooth="yes"/>
      <point x="50" y="692.461" type="line"/>
    </contour>
    <contour>
      <point x="50" y="702" type="line"/>
      <point x="50" y="540" type="line" smooth="yes"/>
      <point x="50" y="154"/>
      <point x="212" y="-20"/>
      <point x="576" y="-20" type="curve" smooth="yes"/>
      <point x="643" y="-20" type="line"/>
      <point x="696" y="246" type="line"/>
      <point x="654" y="246" type="line" smooth="yes"/>
      <point x="440" y="246"/>
      <point x="351" y="333"/>
      <point x="351" y="545" type="curve" smooth="yes"/>
      <point x="351" y="687.654" type="line"/>
    </contour>
  </outline>
  <guideline angle="0" x="0" y="1326"/>
</glyph>
<glyph name="matraAiLengthmark.kn" format="2">
  <advance width="174"/>
  <unicode hex="0CD6"/>
  <outline>
    <contour>
      <point x="-276" y="-445" type="line"/>
      <point x="-464" y="-400.724" type="line"/>
      <point x="-464" y="-467" type="line" smooth="yes"/>
      <point x="-464" y="-663"/>
      <point x="-344" y="-770"/>
      <point x="-127" y="-770" type="curve" smooth="yes"/>
      <point x="90.5826" y="-770"/>
      <point x="210" y="-660"/>
      <point x="210" y="-457" type="curve" smooth="yes"/>
      <point x="210" y="-325" type="line" smooth="yes"/>
      <point x="210" y="-200"/>
      <point x="164" y="-139"/>
      <point x="91" y="-120" type="curve"/>
      <point x="-89" y="-93" type="line"/>
      <point x="-89" y="-193" type="line"/>
      <point x="-56" y="-195" type="line" smooth="yes"/>
      <point x="-8" y="-198"/>
      <point x="18" y="-234"/>
      <point x="18" y="-311" type="curve" smooth="yes"/>
      <point x="18" y="-452" type="line" smooth="yes"/>
      <point x="18" y="-552"/>
      <point x="-29" y="-602"/>
      <point x="-127" y="-602" type="curve" smooth="yes"/>
      <point x="-227" y="-602"/>
      <point x="-276" y="-555.007"/>
      <point x="-276" y="-462" type="curve" smooth="yes"/>
    </contour>
    <contour>
      <point x="91" y="-116" type="line"/>
      <point x="168" y="-107"/>
      <point x="207" y="-54"/>
      <point x="207" y="46" type="curve" smooth="yes"/>
      <point x="207" y="93"/>
      <point x="190" y="154"/>
      <point x="163" y="197" type="curve"/>
      <point x="-13" y="197" type="line"/>
      <point x="7" y="155"/>
      <point x="18" y="106"/>
      <point x="18" y="60" type="curve" smooth="yes"/>
      <point x="18" y="0"/>
      <point x="-5" y="-28"/>
      <point x="-54" y="-31" type="curve" smooth="yes"/>
      <point x="-89" y="-33" type="line"/>
      <point x="-89" y="-138" type="line"/>
      <point x="91" y="-138" type="line"/>
    </contour>
    <contour>
      <point x="-252" y="-154" type="curve" smooth="yes"/>
      <point x="-390" y="-154"/>
      <point x="-464" y="-223"/>
      <point x="-464" y="-371" type="curve" smooth="yes"/>
      <point x="-464" y="-435" type="line"/>
      <point x="-284" y="-456.728" type="line"/>
      <point x="-284" y="-349" type="line" smooth="yes"/>
      <point x="-284" y="-317"/>
      <point x="-276" y="-304"/>
      <point x="-256" y="-304" type="curve" smooth="yes"/>
      <point x="-236" y="-304"/>
      <point x="-228" y="-317"/>
      <point x="-228" y="-349" type="curve" smooth="yes"/>
      <point x="-228" y="-384" type="line" smooth="yes"/>
      <point x="-228" y="-405"/>
      <point x="-235" y="-416"/>
      <point x="-254" y="-416" type="curve" smooth="yes"/>
      <point x="-274.235" y="-416"/>
      <point x="-288.147" y="-401"/>
      <point x="-297" y="-371" type="curve"/>
      <point x="-309" y="-471" type="line"/>
      <point x="-272" y="-471" type="line"/>
      <point x="-262" y="-516"/>
      <point x="-227" y="-542"/>
      <point x="-173" y="-542" type="curve" smooth="yes"/>
      <point x="-96" y="-542"/>
      <point x="-55" y="-493"/>
      <point x="-55" y="-391" type="curve" smooth="yes"/>
      <point x="-55" y="-349" type="line" smooth="yes"/>
      <point x="-55" y="-219"/>
      <point x="-123" y="-154"/>
    </contour>
  </outline>
</glyph>
<glyph name="vowelRuu.kn" format="2">
  <advance width="2507"/>
  <unicode hex="0CE0"/>
  <outline>
    <component base="matraUu.kn" xOffset="1311" yOffset="-1"/>
    <contour>
      <point x="961" y="-27" type="curve" smooth="yes"/>
      <point x="1154" y="-27"/>
      <point x="1245" y="97"/>
      <point x="1245" y="345" type="curve" smooth="yes"/>
      <point x="1245" y="644" type="line" smooth="yes"/>
      <point x="1245" y="834.985"/>
      <point x="1191.82" y="928.161"/>
      <point x="1079" y="949.458" type="curve"/>
      <point x="1079" y="970" type="line"/>
      <point x="844" y="970" type="line"/>
      <point x="844" y="955" type="line"/>
      <point x="906" y="955"/>
      <point x="935" y="906"/>
      <point x="935" y="800" type="curve" smooth="yes"/>
      <point x="935" y="369" type="line" smooth="yes"/>
      <point x="935" y="289"/>
      <point x="916" y="254"/>
      <point x="860" y="254" type="curve" smooth="yes"/>
      <point x="810" y="254"/>
      <point x="786" y="288"/>
      <point x="786" y="368" type="curve" smooth="yes"/>
      <point x="786" y="472" type="line"/>
      <point x="680" y="472" type="line"/>
      <point x="680" y="330" type="line" smooth="yes"/>
      <point x="680" y="93"/>
      <point x="777" y="-27"/>
    </contour>
    <contour>
      <point x="998" y="955" type="line"/>
      <point x="998" y="1207" type="line"/>
      <point x="833" y="1207" type="line"/>
      <point x="833" y="955" type="line"/>
    </contour>
    <contour>
      <point x="395" y="-27" type="curve" smooth="yes"/>
      <point x="612" y="-27"/>
      <point x="731" y="82"/>
      <point x="731" y="313" type="curve"/>
      <point x="642" y="295" type="line"/>
      <point x="786" y="295" type="line"/>
      <point x="786" y="315"/>
      <point x="786" y="400"/>
      <point x="786" y="422" type="curve" smooth="yes"/>
      <point x="786" y="867" type="line" smooth="yes"/>
      <point x="786" y="1116"/>
      <point x="659" y="1244"/>
      <point x="422" y="1244" type="curve" smooth="yes"/>
      <point x="191" y="1244"/>
      <point x="67" y="1126"/>
      <point x="67" y="907" type="curve" smooth="yes"/>
      <point x="67" y="870" type="line" smooth="yes"/>
      <point x="67" y="809"/>
      <point x="78" y="747"/>
      <point x="99" y="708" type="curve"/>
      <point x="375" y="708" type="line"/>
      <point x="366" y="739"/>
      <point x="357" y="788"/>
      <point x="357" y="847" type="curve" smooth="yes"/>
      <point x="357" y="883" type="line" smooth="yes"/>
      <point x="357" y="946"/>
      <point x="377" y="976"/>
      <point x="422" y="976" type="curve" smooth="yes"/>
      <point x="467" y="976"/>
      <point x="486" y="946"/>
      <point x="486" y="883" type="curve" smooth="yes"/>
      <point x="486" y="464" type="line"/>
      <point x="489" y="424"/>
      <point x="489" y="449"/>
      <point x="492" y="409" type="curve"/>
      <point x="492" y="403.261"/>
      <point x="492" y="337.058"/>
      <point x="492" y="333" type="curve" smooth="yes"/>
      <point x="492" y="257.496"/>
      <point x="467" y="225"/>
      <point x="413" y="225" type="curve" smooth="yes"/>
      <point x="357" y="225"/>
      <point x="331" y="257.128"/>
      <point x="331" y="328" type="curve" smooth="yes"/>
      <point x="331" y="344" type="line" smooth="yes"/>
      <point x="331" y="405.361"/>
      <point x="359" y="437"/>
      <point x="410" y="437" type="curve" smooth="yes"/>
      <point x="455" y="437"/>
      <point x="482" y="413.408"/>
      <point x="501" y="370" type="curve"/>
      <point x="513" y="520" type="line"/>
      <point x="492" y="613"/>
      <point x="427" y="668"/>
      <point x="304" y="668" type="curve" smooth="yes"/>
      <point x="134" y="668"/>
      <point x="45" y="561"/>
      <point x="45" y="356" type="curve" smooth="yes"/>
      <point x="45" y="321" type="line" smooth="yes"/>
      <point x="45" y="92"/>
      <point x="163" y="-27"/>
    </contour>
    <contour>
      <point x="972" y="1514" type="line"/>
      <point x="981.286" y="1441"/>
      <point x="985" y="1379"/>
      <point x="985" y="1303" type="curve" smooth="yes"/>
      <point x="985" y="1234"/>
      <point x="968" y="1207"/>
      <point x="913" y="1207" type="curve" smooth="yes"/>
      <point x="895" y="1207" type="line"/>
      <point x="951" y="955" type="line"/>
      <point x="1056" y="955" type="line" smooth="yes"/>
      <point x="1201" y="955"/>
      <point x="1271" y="1040"/>
      <point x="1271" y="1221" type="curve" smooth="yes"/>
      <point x="1271" y="1315"/>
      <point x="1249.1" y="1418"/>
      <point x="1202" y="1514" type="curve"/>
    </contour>
  </outline>
  <guideline angle="0" x="0" y="668"/>
  <guideline angle="0" x="0" y="668"/>
  <guideline angle="0" x="0" y="1709"/>
</glyph>
<glyph name="Shunya.kn" format="2">
  <advance width="968"/>
  <unicode hex="0CE6"/>
  <outline>
    <contour>
      <point x="371" y="558" type="line"/>
      <point x="371" y="796" type="line" smooth="yes"/>
      <point x="371" y="907"/>
      <point x="406" y="960"/>
      <point x="483" y="960" type="curve" smooth="yes"/>
      <point x="560" y="960"/>
      <point x="595" y="907"/>
      <point x="595" y="796" type="curve" smooth="yes"/>
      <point x="595" y="558" type="line"/>
      <point x="903" y="558" type="line"/>
      <point x="903" y="803" type="line" smooth="yes"/>
      <point x="903" y="1098"/>
      <point x="766" y="1241"/>
      <point x="483" y="1241" type="curve" smooth="yes"/>
      <point x="201" y="1241"/>
      <point x="63" y="1098"/>
      <point x="63" y="803" type="curve" smooth="yes"/>
      <point x="63" y="558" type="line"/>
    </contour>
    <contour>
      <point x="371" y="639" type="line"/>
      <point x="63" y="639" type="line"/>
      <point x="63" y="406" type="line" smooth="yes"/>
      <point x="63" y="111"/>
      <point x="201" y="-32"/>
      <point x="483" y="-32" type="curve" smooth="yes"/>
      <point x="766" y="-32"/>
      <point x="903" y="111"/>
      <point x="903" y="406" type="curve" smooth="yes"/>
      <point x="903" y="639" type="line"/>
      <point x="595" y="639" type="line"/>
      <point x="595" y="413" type="line" smooth="yes"/>
      <point x="595" y="302"/>
      <point x="560" y="249"/>
      <point x="483" y="249" type="curve" smooth="yes"/>
      <point x="406" y="249"/>
      <point x="371" y="302"/>
      <point x="371" y="413" type="curve" smooth="yes"/>
    </contour>
  </outline>
</glyph>
<glyph name="Aaru.kn" format="2">
  <advance width="887"/>
  <unicode hex="0CEC"/>
  <outline>
    <contour>
      <point x="350" y="373" type="curve" smooth="yes"/>
      <point x="350" y="380" type="line" smooth="yes"/>
      <point x="350" y="466"/>
      <point x="387" y="501"/>
      <point x="484" y="502" type="curve" smooth="yes"/>
      <point x="620" y="504" type="line"/>
      <point x="620" y="748" type="line"/>
      <point x="464" y="750" type="line" smooth="yes"/>
      <point x="386" y="751"/>
      <point x="354" y="786"/>
      <point x="354" y="863" type="curve" smooth="yes"/>
      <point x="354" y="867" type="line" smooth="yes"/>
      <point x="354" y="943"/>
      <point x="389" y="979"/>
      <point x="471" y="979" type="curve" smooth="yes"/>
      <point x="507" y="979"/>
      <point x="554" y="974"/>
      <point x="589" y="964" type="curve"/>
      <point x="565" y="1224" type="line"/>
      <point x="492" y="1242"/>
      <point x="446" y="1244"/>
      <point x="411" y="1244" type="curve" smooth="yes"/>
      <point x="169" y="1244"/>
      <point x="54" y="1136"/>
      <point x="54" y="913" type="curve" smooth="yes"/>
      <point x="54" y="900" type="line" smooth="yes"/>
      <point x="54" y="729"/>
      <point x="125" y="640"/>
      <point x="268" y="629" type="curve"/>
      <point x="268" y="621" type="line"/>
      <point x="120" y="609"/>
      <point x="50" y="519"/>
      <point x="50" y="349" type="curve" smooth="yes"/>
      <point x="50" y="336" type="line" smooth="yes"/>
      <point x="50" y="110"/>
      <point x="168" y="0"/>
      <point x="431" y="0" type="curve" smooth="yes"/>
      <point x="827" y="0" type="line"/>
      <point x="867" y="254" type="line"/>
      <point x="505" y="254" type="line" smooth="yes"/>
      <point x="392" y="254"/>
      <point x="350" y="287"/>
    </contour>
  </outline>
</glyph>
<glyph name="endash" format="2">
  <advance width="709"/>
  <unicode hex="2013"/>
  <outline>
    <contour>
      <point x="646" y="368" type="line"/>
      <point x="646" y="626" type="line"/>
      <point x="63" y="626" type="line"/>
      <point x="63" y="368" type="line"/>
    </contour>
  </outline>
</glyph>
<glyph name="sevensuperior" format="2">
  <advance width="402"/>
  <unicode hex="2077"/>
  <outline>
    <contour>
      <point x="241" y="700" type="line"/>
      <point x="382" y="1208" type="line"/>
      <point x="382" y="1384" type="line"/>
      <point x="15" y="1384" type="line"/>
      <point x="15" y="1209" type="line"/>
      <point x="191" y="1209" type="line"/>
      <point x="43" y="700" type="line"/>
    </contour>
  </outline>
</glyph>
<glyph name="BamatraAa.kn" format="2">
  <advance width="2031"/>
  <outline>
    <component base="matraAa.kn" xOffset="874"/>
    <contour>
      <point x="381" y="1244" type="curve" smooth="yes"/>
      <point x="165" y="1244"/>
      <point x="54" y="1133"/>
      <point x="54" y="927" type="curve" smooth="yes"/>
      <point x="54" y="889" type="line" smooth="yes"/>
      <point x="54" y="823"/>
      <point x="68" y="749"/>
      <point x="89" y="708" type="curve"/>
      <point x="352" y="708" type="line"/>
      <point x="330" y="752"/>
      <point x="319" y="806"/>
      <point x="319" y="878" type="curve" smooth="yes"/>
      <point x="319" y="904" type="line" smooth="yes"/>
      <point x="319" y="961"/>
      <point x="339" y="984"/>
      <point x="376" y="984" type="curve" smooth="yes"/>
      <point x="413" y="984"/>
      <point x="432" y="960"/>
      <point x="432" y="904" type="curve" smooth="yes"/>
      <point x="432" y="886" type="line" smooth="yes"/>
      <point x="432" y="814"/>
      <point x="408" y="772"/>
      <point x="324" y="715" type="curve" smooth="yes"/>
      <point x="250" y="665" type="line" smooth="yes"/>
      <point x="109" y="570"/>
      <point x="40" y="465"/>
      <point x="40" y="321" type="curve" smooth="yes"/>
      <point x="40" y="307" type="line" smooth="yes"/>
      <point x="40" y="85"/>
      <point x="147" y="-27"/>
      <point x="348" y="-27" type="curve" smooth="yes"/>
      <point x="509" y="-27"/>
      <point x="598" y="47"/>
      <point x="614" y="192" type="curve"/>
      <point x="623" y="192" type="line"/>
      <point x="639" y="47"/>
      <point x="728" y="-27"/>
      <point x="890" y="-27" type="curve" smooth="yes"/>
      <point x="1087" y="-27"/>
      <point x="1194" y="98"/>
      <point x="1194" y="343" type="curve" smooth="yes"/>
      <point x="1194" y="634" type="line" smooth="yes"/>
      <point x="1194" y="831"/>
      <point x="1135" y="926"/>
      <point x="1008" y="948" type="curve"/>
      <point x="1008" y="970" type="line"/>
      <point x="773" y="970" type="line"/>
      <point x="773" y="955" type="line"/>
      <point x="849" y="955"/>
      <point x="884" y="903"/>
      <point x="884" y="790" type="curve" smooth="yes"/>
      <point x="884" y="347" type="line" smooth="yes"/>
      <point x="884" y="291"/>
      <point x="864" y="264"/>
      <point x="824" y="264" type="curve" smooth="yes"/>
      <point x="786" y="264"/>
      <point x="765" y="290"/>
      <point x="762" y="345" type="curve" smooth="yes"/>
      <point x="756" y="464" type="line"/>
      <point x="481" y="464" type="line"/>
      <point x="475" y="346" type="line" smooth="yes"/>
      <point x="472" y="290"/>
      <point x="449" y="264"/>
      <point x="407" y="264" type="curve" smooth="yes"/>
      <point x="362" y="264"/>
      <point x="340" y="287"/>
      <point x="340" y="335" type="curve" smooth="yes"/>
      <point x="340" y="340" type="line" smooth="yes"/>
      <point x="340" y="403"/>
      <point x="373" y="434"/>
      <point x="455" y="496" type="curve" smooth="yes"/>
      <point x="539" y="560" type="line" smooth="yes"/>
      <point x="653" y="647"/>
      <point x="709" y="755"/>
      <point x="709" y="884" type="curve" smooth="yes"/>
      <point x="709" y="914" type="line" smooth="yes"/>
      <point x="709" y="1131"/>
      <point x="597" y="1244"/>
    </contour>
    <contour>
      <point x="772" y="955" type="line"/>
      <point x="976" y="955" type="line"/>
      <point x="976" y="1207" type="line"/>
      <point x="772" y="1207" type="line"/>
    </contour>
  </outline>
  <guideline angle="90" x="1207" y="0"/>
  <guideline angle="90" x="619" y="0"/>
  <guideline angle="90" x="1286" y="0"/>
</glyph>
<glyph name="BamatraI.kn" format="2">
  <advance width="1307"/>
  <outline>
    <contour>
      <point x="381" y="1244" type="curve" smooth="yes"/>
      <point x="165" y="1244"/>
      <point x="54" y="1133"/>
      <point x="54" y="927" type="curve" smooth="yes"/>
      <point x="54" y="889" type="line" smooth="yes"/>
      <point x="54" y="823"/>
      <point x="68" y="749"/>
      <point x="89" y="708" type="curve"/>
      <point x="352" y="708" type="line"/>
      <point x="330" y="752"/>
      <point x="319" y="806"/>
      <point x="319" y="878" type="curve" smooth="yes"/>
      <point x="319" y="904" type="line" smooth="yes"/>
      <point x="319" y="961"/>
      <point x="339" y="984"/>
      <point x="376" y="984" type="curve" smooth="yes"/>
      <point x="413" y="984"/>
      <point x="432" y="960"/>
      <point x="432" y="904" type="curve" smooth="yes"/>
      <point x="432" y="886" type="line" smooth="yes"/>
      <point x="432" y="814"/>
      <point x="408" y="772"/>
      <point x="324" y="715" type="curve" smooth="yes"/>
      <point x="250" y="665" type="line" smooth="yes"/>
      <point x="109" y="570"/>
      <point x="40" y="465"/>
      <point x="40" y="321" type="curve" smooth="yes"/>
      <point x="40" y="307" type="line" smooth="yes"/>
      <point x="40" y="85"/>
      <point x="150.474" y="-27"/>
      <point x="358" y="-27" type="curve" smooth="yes"/>
      <point x="525.053" y="-27"/>
      <point x="617.398" y="47"/>
      <point x="634" y="192" type="curve"/>
      <point x="653" y="192" type="line"/>
      <point x="643" y="464" type="line"/>
      <point x="501" y="464" type="line"/>
      <point x="495" y="346" type="line" smooth="yes"/>
      <point x="492.151" y="289.967"/>
      <point x="465.177" y="264"/>
      <point x="417" y="264" type="curve" smooth="yes"/>
      <point x="365.284" y="264"/>
      <point x="340" y="287"/>
      <point x="340" y="335" type="curve" smooth="yes"/>
      <point x="340" y="340" type="line" smooth="yes"/>
      <point x="340" y="403"/>
      <point x="373" y="434"/>
      <point x="455" y="496" type="curve" smooth="yes"/>
      <point x="539" y="560" type="line" smooth="yes"/>
      <point x="653" y="647"/>
      <point x="709" y="755"/>
      <point x="709" y="884" type="curve" smooth="yes"/>
      <point x="709" y="914" type="line" smooth="yes"/>
      <point x="709" y="1131"/>
      <point x="597" y="1244"/>
    </contour>
    <contour>
      <point x="1234" y="348" type="curve" smooth="yes"/>
      <point x="1234" y="730" type="line" smooth="yes"/>
      <point x="1234" y="860"/>
      <point x="1234" y="988"/>
      <point x="1234" y="1155" type="curve" smooth="yes"/>
      <point x="1234" y="1385"/>
      <point x="1125" y="1496"/>
      <point x="915" y="1496" type="curve" smooth="yes"/>
      <point x="707" y="1496"/>
      <point x="605" y="1392"/>
      <point x="605" y="1182" type="curve" smooth="yes"/>
      <point x="605" y="1147" type="line" smooth="yes"/>
      <point x="605" y="978"/>
      <point x="666" y="894"/>
      <point x="790" y="894" type="curve" smooth="yes"/>
      <point x="866" y="894"/>
      <point x="917" y="933"/>
      <point x="935" y="998" type="curve"/>
      <point x="970" y="998" type="line"/>
      <point x="981" y="1182" type="line"/>
      <point x="973" y="1124"/>
      <point x="950" y="1095"/>
      <point x="912" y="1095" type="curve" smooth="yes"/>
      <point x="881" y="1095"/>
      <point x="867" y="1113"/>
      <point x="867" y="1151" type="curve" smooth="yes"/>
      <point x="867" y="1191" type="line" smooth="yes"/>
      <point x="867" y="1245"/>
      <point x="881" y="1266"/>
      <point x="913" y="1266" type="curve" smooth="yes"/>
      <point x="946" y="1266"/>
      <point x="960" y="1245"/>
      <point x="960" y="1191" type="curve" smooth="yes"/>
      <point x="960" y="1145"/>
      <point x="960" y="1120"/>
      <point x="960" y="1074" type="curve" smooth="yes"/>
      <point x="960" y="1064"/>
      <point x="963" y="1061"/>
      <point x="963" y="1050" type="curve"/>
      <point x="963" y="1048.15"/>
      <point x="963" y="1009.85"/>
      <point x="963" y="1008" type="curve"/>
      <point x="943" y="998" type="line"/>
      <point x="928" y="890"/>
      <point x="924" y="828"/>
      <point x="924" y="720" type="curve" smooth="yes"/>
      <point x="924" y="352" type="line" smooth="yes"/>
      <point x="924" y="292.627"/>
      <point x="900.667" y="264"/>
      <point x="854" y="264" type="curve" smooth="yes"/>
      <point x="809.871" y="264"/>
      <point x="785.076" y="291.561"/>
      <point x="782" y="350" type="curve" smooth="yes"/>
      <point x="776" y="464" type="line"/>
      <point x="634" y="464" type="line"/>
      <point x="643" y="192" type="line"/>
      <point x="660.164" y="47"/>
      <point x="758.855" y="-27"/>
      <point x="938" y="-27" type="curve" smooth="yes"/>
      <point x="1130" y="-27"/>
      <point x="1234" y="99.6892"/>
    </contour>
  </outline>
  <guideline angle="90" x="618" y="0"/>
  <guideline angle="90" x="187" y="0"/>
  <guideline angle="0" x="0" y="1403"/>
  <guideline angle="90" x="136" y="0"/>
  <guideline angle="0" x="0" y="1281"/>
</glyph>
<glyph name="BhamatraE.kn" format="2">
  <advance width="1261"/>
  <outline>
    <component base="BamatraE.kn"/>
    <contour>
      <point x="617" y="-432" type="curve" smooth="yes"/>
      <point x="717" y="-432"/>
      <point x="767" y="-377"/>
      <point x="767" y="-269" type="curve" smooth="yes"/>
      <point x="767" y="-256" type="line" smooth="yes"/>
      <point x="767" y="-144"/>
      <point x="702" y="-44"/>
      <point x="617" y="38" type="curve"/>
      <point x="532" y="-44"/>
      <point x="467" y="-144"/>
      <point x="467" y="-256" type="curve" smooth="yes"/>
      <point x="467" y="-269" type="line" smooth="yes"/>
      <point x="467" y="-377"/>
      <point x="517" y="-432"/>
    </contour>
  </outline>
  <guideline angle="90" x="37" y="0"/>
</glyph>
<glyph name="BhamatraI.kn.1" format="2">
  <advance width="1308"/>
  <outline>
    <component base="BamatraI.kn.1"/>
    <contour>
      <point x="638" y="-432" type="curve" smooth="yes"/>
      <point x="738" y="-432"/>
      <point x="788" y="-377"/>
      <point x="788" y="-269" type="curve" smooth="yes"/>
      <point x="788" y="-256" type="line" smooth="yes"/>
      <point x="788" y="-144"/>
      <point x="723" y="-44"/>
      <point x="638" y="38" type="curve"/>
      <point x="553" y="-44"/>
      <point x="488" y="-144"/>
      <point x="488" y="-256" type="curve" smooth="yes"/>
      <point x="488" y="-269" type="line" smooth="yes"/>
      <point x="488" y="-377"/>
      <point x="538" y="-432"/>
    </contour>
  </outline>
  <guideline angle="90" x="40" y="0"/>
</glyph>
<glyph name="CaHalant.kn" format="2">
  <advance width="1893"/>
  <outline>
    <component base="Halant.kn" xOffset="1260"/>
    <contour>
      <point x="998" y="507" type="line"/>
      <point x="1059" y="495" type="line"/>
      <point x="1059" y="512" type="line"/>
      <point x="1231" y="508" type="line"/>
      <point x="1231" y="758" type="line"/>
      <point x="1085" y="754" type="line"/>
      <point x="945" y="759" type="line"/>
      <point x="727" y="759" type="line"/>
      <point x="727" y="507" type="line"/>
    </contour>
    <contour>
      <point x="1051" y="955" type="line"/>
      <point x="1051" y="1207" type="line"/>
      <point x="748" y="1207" type="line"/>
      <point x="748" y="955" type="line"/>
    </contour>
    <contour>
      <point x="1192" y="306" type="line" smooth="yes"/>
      <point x="1192" y="386"/>
      <point x="1162" y="486"/>
      <point x="1059" y="505" type="curve" smooth="yes"/>
      <point x="817" y="552" type="line"/>
      <point x="817" y="507" type="line"/>
      <point x="864" y="507"/>
      <point x="884" y="477"/>
      <point x="884" y="414" type="curve" smooth="yes"/>
      <point x="884" y="347" type="line" smooth="yes"/>
      <point x="884" y="291"/>
      <point x="864" y="264"/>
      <point x="824" y="264" type="curve" smooth="yes"/>
      <point x="785" y="264"/>
      <point x="765" y="290"/>
      <point x="762" y="345" type="curve" smooth="yes"/>
      <point x="756" y="464" type="line"/>
      <point x="614" y="464" type="line"/>
      <point x="623" y="192" type="line"/>
      <point x="640" y="47"/>
      <point x="736" y="-27"/>
      <point x="908" y="-27" type="curve" smooth="yes"/>
      <point x="1093" y="-27"/>
      <point x="1192" y="74"/>
      <point x="1192" y="273" type="curve" smooth="yes"/>
    </contour>
    <contour>
      <point x="1156" y="856" type="line"/>
      <point x="1156" y="908"/>
      <point x="1131" y="940"/>
      <point x="1076" y="950" type="curve"/>
      <point x="1076" y="998" type="line"/>
      <point x="796" y="999" type="line"/>
      <point x="807" y="955" type="line"/>
      <point x="861" y="955"/>
      <point x="881" y="924"/>
      <point x="881" y="863" type="curve" smooth="yes"/>
      <point x="881" y="851" type="line" smooth="yes"/>
      <point x="881" y="790"/>
      <point x="861" y="759"/>
      <point x="807" y="759" type="curve"/>
      <point x="792" y="682" type="line"/>
      <point x="1085" y="682" type="line"/>
      <point x="1085" y="761" type="line"/>
      <point x="1134" y="771"/>
      <point x="1156" y="803"/>
      <point x="1156" y="856" type="curve"/>
    </contour>
    <contour>
      <point x="381" y="1244" type="curve" smooth="yes"/>
      <point x="165" y="1244"/>
      <point x="54" y="1133"/>
      <point x="54" y="927" type="curve" smooth="yes"/>
      <point x="54" y="889" type="line" smooth="yes"/>
      <point x="54" y="823"/>
      <point x="68" y="749"/>
      <point x="89" y="708" type="curve"/>
      <point x="352" y="708" type="line"/>
      <point x="330" y="752"/>
      <point x="319" y="806"/>
      <point x="319" y="878" type="curve" smooth="yes"/>
      <point x="319" y="904" type="line" smooth="yes"/>
      <point x="319" y="961"/>
      <point x="339" y="984"/>
      <point x="376" y="984" type="curve" smooth="yes"/>
      <point x="413" y="984"/>
      <point x="432" y="960"/>
      <point x="432" y="904" type="curve" smooth="yes"/>
      <point x="432" y="886" type="line" smooth="yes"/>
      <point x="432" y="814"/>
      <point x="408" y="772"/>
      <point x="324" y="715" type="curve" smooth="yes"/>
      <point x="250" y="665" type="line" smooth="yes"/>
      <point x="109" y="570"/>
      <point x="40" y="465"/>
      <point x="40" y="321" type="curve" smooth="yes"/>
      <point x="40" y="307" type="line" smooth="yes"/>
      <point x="40" y="85"/>
      <point x="147" y="-27"/>
      <point x="348" y="-27" type="curve" smooth="yes"/>
      <point x="509" y="-27"/>
      <point x="598" y="47"/>
      <point x="614" y="192" type="curve"/>
      <point x="633" y="192" type="line"/>
      <point x="623" y="464" type="line"/>
      <point x="481" y="464" type="line"/>
      <point x="475" y="346" type="line" smooth="yes"/>
      <point x="472" y="290"/>
      <point x="449" y="264"/>
      <point x="407" y="264" type="curve" smooth="yes"/>
      <point x="362" y="264"/>
      <point x="340" y="287"/>
      <point x="340" y="335" type="curve" smooth="yes"/>
      <point x="340" y="340" type="line" smooth="yes"/>
      <point x="340" y="403"/>
      <point x="373" y="434"/>
      <point x="455" y="496" type="curve" smooth="yes"/>
      <point x="539" y="560" type="line" smooth="yes"/>
      <point x="653" y="647"/>
      <point x="709" y="755"/>
      <point x="709" y="884" type="curve" smooth="yes"/>
      <point x="709" y="914" type="line" smooth="yes"/>
      <point x="709" y="1131"/>
      <point x="597" y="1244"/>
    </contour>
  </outline>
  <guideline angle="90" x="1928" y="0"/>
  <guideline angle="90" x="2490" y="0"/>
  <guideline angle="90" x="2350" y="0"/>
  <guideline angle="90" x="1196" y="0"/>
  <guideline angle="0" x="0" y="998"/>
  <guideline angle="90" x="1196" y="0"/>
</glyph>
<glyph name="Casmall1.kn" format="2">
  <advance width="159"/>
  <outline>
    <contour>
      <point x="127" y="-294" type="line"/>
      <point x="-37" y="-294" type="line"/>
      <point x="-37" y="-347" type="line"/>
      <point x="8" y="-347"/>
      <point x="25" y="-371"/>
      <point x="25" y="-439" type="curve" smooth="yes"/>
      <point x="25" y="-561" type="line" smooth="yes"/>
      <point x="25" y="-592"/>
      <point x="13" y="-606"/>
      <point x="-8" y="-606" type="curve" smooth="yes"/>
      <point x="-30" y="-606"/>
      <point x="-42" y="-594"/>
      <point x="-44" y="-564" type="curve" smooth="yes"/>
      <point x="-49" y="-501" type="line"/>
      <point x="-132" y="-501" type="line"/>
      <point x="-133" y="-641" type="line"/>
      <point x="-128" y="-726"/>
      <point x="-72" y="-770"/>
      <point x="35" y="-770" type="curve" smooth="yes"/>
      <point x="149" y="-770"/>
      <point x="209" y="-704"/>
      <point x="209" y="-571" type="curve" smooth="yes"/>
      <point x="209" y="-475" type="line" smooth="yes"/>
      <point x="209" y="-401"/>
      <point x="183" y="-361"/>
      <point x="127" y="-349" type="curve"/>
    </contour>
    <contour>
      <point x="254" y="-350" type="line"/>
      <point x="254" y="-190" type="line"/>
      <point x="127" y="-196" type="line"/>
      <point x="-14" y="-233" type="line"/>
      <point x="-14" y="-190" type="line"/>
      <point x="-62" y="-190" type="line"/>
      <point x="-62" y="-347" type="line"/>
      <point x="-14" y="-347" type="line"/>
      <point x="-14" y="-307" type="line"/>
      <point x="127" y="-344" type="line"/>
    </contour>
    <contour>
      <point x="127" y="-246" type="line"/>
      <point x="127" y="-191" type="line"/>
      <point x="176" y="-179"/>
      <point x="199" y="-139"/>
      <point x="199" y="-65" type="curve" smooth="yes"/>
      <point x="199" y="-9" type="line" smooth="yes"/>
      <point x="199" y="68"/>
      <point x="181" y="147"/>
      <point x="151" y="197" type="curve"/>
      <point x="-26" y="197" type="line"/>
      <point x="-1" y="146"/>
      <point x="13" y="64"/>
      <point x="13" y="-21" type="curve" smooth="yes"/>
      <point x="13" y="-98" type="line" smooth="yes"/>
      <point x="13" y="-166"/>
      <point x="0" y="-190"/>
      <point x="-37" y="-190" type="curve"/>
      <point x="-37" y="-246" type="line"/>
    </contour>
    <contour>
      <point x="-277" y="-97" type="curve" smooth="yes"/>
      <point x="-404" y="-97"/>
      <point x="-471" y="-156"/>
      <point x="-471" y="-270" type="curve"/>
      <point x="-471" y="-270"/>
      <point x="-471" y="-273"/>
      <point x="-471" y="-273" type="curve"/>
      <point x="-471" y="-309"/>
      <point x="-463" y="-348"/>
      <point x="-450" y="-371" type="curve"/>
      <point x="-291" y="-371" type="line"/>
      <point x="-302" y="-349"/>
      <point x="-309" y="-323"/>
      <point x="-309" y="-285" type="curve"/>
      <point x="-309" y="-285"/>
      <point x="-309" y="-279"/>
      <point x="-309" y="-279" type="curve"/>
      <point x="-309" y="-254"/>
      <point x="-299" y="-243"/>
      <point x="-280" y="-243" type="curve" smooth="yes"/>
      <point x="-261" y="-243"/>
      <point x="-252" y="-254"/>
      <point x="-252" y="-279" type="curve"/>
      <point x="-252" y="-281" type="line"/>
      <point x="-252" y="-316"/>
      <point x="-264" y="-337"/>
      <point x="-308" y="-364" type="curve" smooth="yes"/>
      <point x="-352" y="-391" type="line" smooth="yes"/>
      <point x="-436.929" y="-443.116"/>
      <point x="-480" y="-499"/>
      <point x="-480" y="-586" type="curve" smooth="yes"/>
      <point x="-480" y="-591" type="line" smooth="yes"/>
      <point x="-480" y="-708"/>
      <point x="-415" y="-770"/>
      <point x="-297" y="-770" type="curve" smooth="yes"/>
      <point x="-200" y="-770"/>
      <point x="-147" y="-729"/>
      <point x="-136" y="-653" type="curve"/>
      <point x="-120" y="-653" type="line"/>
      <point x="-125" y="-501" type="line"/>
      <point x="-218" y="-501" type="line"/>
      <point x="-223" y="-565" type="line" smooth="yes"/>
      <point x="-225.264" y="-593.981"/>
      <point x="-236" y="-607"/>
      <point x="-261" y="-607" type="curve" smooth="yes"/>
      <point x="-285" y="-607"/>
      <point x="-298" y="-595"/>
      <point x="-298" y="-572" type="curve"/>
      <point x="-298" y="-571" type="line"/>
      <point x="-298" y="-544"/>
      <point x="-283.154" y="-523.77"/>
      <point x="-237" y="-493" type="curve" smooth="yes"/>
      <point x="-183" y="-457" type="line" smooth="yes"/>
      <point x="-115.846" y="-412.231"/>
      <point x="-84" y="-353"/>
      <point x="-84" y="-283" type="curve" smooth="yes"/>
      <point x="-84" y="-277" type="line" smooth="yes"/>
      <point x="-84" y="-159"/>
      <point x="-150" y="-97"/>
    </contour>
  </outline>
  <guideline angle="0" x="0" y="-180"/>
  <guideline angle="90" x="-474" y="0"/>
</glyph>
<glyph name="ChamatraE.kn" format="2">
  <advance width="1287"/>
  <outline>
    <component base="matraE.kn" xOffset="580"/>
    <contour>
      <point x="1220" y="343" type="curve" smooth="yes"/>
      <point x="1220" y="634" type="line" smooth="yes"/>
      <point x="1220" y="831.381"/>
      <point x="1160.79" y="925.631"/>
      <point x="1034" y="947.565" type="curve"/>
      <point x="1034" y="950.183"/>
      <point x="1034" y="967.805"/>
      <point x="1034" y="970" type="curve"/>
      <point x="799" y="970" type="line"/>
      <point x="799" y="955" type="line"/>
      <point x="875" y="955"/>
      <point x="910" y="903"/>
      <point x="910" y="790" type="curve" smooth="yes"/>
      <point x="910" y="350" type="line" smooth="yes"/>
      <point x="910" y="290"/>
      <point x="890" y="264"/>
      <point x="849" y="264" type="curve" smooth="yes"/>
      <point x="810" y="264"/>
      <point x="790" y="289"/>
      <point x="787" y="347" type="curve" smooth="yes"/>
      <point x="781" y="464" type="line"/>
      <point x="504" y="464" type="line"/>
      <point x="498" y="348" type="line" smooth="yes"/>
      <point x="495" y="289"/>
      <point x="475" y="264"/>
      <point x="434" y="264" type="curve" smooth="yes"/>
      <point x="392" y="264"/>
      <point x="370" y="290"/>
      <point x="370" y="351" type="curve" smooth="yes"/>
      <point x="370" y="712.4" type="line"/>
      <point x="65" y="695.05" type="line"/>
      <point x="65" y="343" type="line" smooth="yes"/>
      <point x="65" y="91"/>
      <point x="164" y="-27"/>
      <point x="369" y="-27" type="curve" smooth="yes"/>
      <point x="530.731" y="-27"/>
      <point x="621.779" y="45.4708"/>
      <point x="637.944" y="187" type="curve"/>
      <point x="647.056" y="187" type="line"/>
      <point x="663.227" y="45.4708"/>
      <point x="754.378" y="-27"/>
      <point x="918" y="-27" type="curve" smooth="yes"/>
      <point x="1122" y="-27"/>
      <point x="1220" y="91"/>
    </contour>
    <contour>
      <point x="1014" y="955" type="line"/>
      <point x="1014" y="1207" type="line"/>
      <point x="787" y="1207" type="line"/>
      <point x="787" y="955" type="line"/>
    </contour>
    <contour>
      <point x="410" y="1244" type="curve" smooth="yes"/>
      <point x="183" y="1244"/>
      <point x="65" y="1119"/>
      <point x="65" y="860" type="curve" smooth="yes"/>
      <point x="65" y="678.61" type="line"/>
      <point x="360" y="703" type="line"/>
      <point x="360" y="900" type="line" smooth="yes"/>
      <point x="360" y="960"/>
      <point x="373" y="984"/>
      <point x="408" y="984" type="curve" smooth="yes"/>
      <point x="443" y="984"/>
      <point x="456" y="960"/>
      <point x="456" y="900" type="curve" smooth="yes"/>
      <point x="456" y="791" type="line" smooth="yes"/>
      <point x="456" y="748"/>
      <point x="442" y="728"/>
      <point x="410" y="728" type="curve" smooth="yes"/>
      <point x="368" y="728"/>
      <point x="343" y="760"/>
      <point x="335" y="825" type="curve"/>
      <point x="334" y="634" type="line"/>
      <point x="380" y="634" type="line"/>
      <point x="399" y="551"/>
      <point x="454" y="508"/>
      <point x="542" y="508" type="curve" smooth="yes"/>
      <point x="674" y="508"/>
      <point x="740" y="601"/>
      <point x="740" y="786" type="curve" smooth="yes"/>
      <point x="740" y="893" type="line" smooth="yes"/>
      <point x="740" y="1126"/>
      <point x="630" y="1244"/>
    </contour>
    <contour>
      <point x="641" y="-432" type="curve" smooth="yes"/>
      <point x="741" y="-432"/>
      <point x="791" y="-377"/>
      <point x="791" y="-269" type="curve" smooth="yes"/>
      <point x="791" y="-256" type="line" smooth="yes"/>
      <point x="791" y="-144"/>
      <point x="726" y="-44"/>
      <point x="641" y="38" type="curve"/>
      <point x="556" y="-44"/>
      <point x="491" y="-144"/>
      <point x="491" y="-256" type="curve" smooth="yes"/>
      <point x="491" y="-269" type="line" smooth="yes"/>
      <point x="491" y="-377"/>
      <point x="541" y="-432"/>
    </contour>
  </outline>
  <guideline angle="90" x="1267" y="0"/>
  <guideline angle="0" x="0" y="-3"/>
  <guideline angle="90" x="635" y="0"/>
  <guideline angle="90" x="-133" y="0"/>
</glyph>
<glyph name="DaHalant.kn" format="2">
  <advance width="1841"/>
  <outline>
    <component base="Halant.kn" xOffset="1208"/>
    <contour>
      <point x="375" y="599" type="line" smooth="yes"/>
      <point x="375" y="854"/>
      <point x="443" y="955"/>
      <point x="610" y="955" type="curve"/>
      <point x="610" y="987" type="line"/>
      <point x="283" y="987" type="line"/>
      <point x="283" y="948" type="line"/>
      <point x="132" y="921"/>
      <point x="65" y="813"/>
      <point x="65" y="573" type="curve" smooth="yes"/>
      <point x="65" y="333" type="line" smooth="yes"/>
      <point x="65" y="91"/>
      <point x="159" y="-27"/>
      <point x="351" y="-27" type="curve" smooth="yes"/>
      <point x="504" y="-27"/>
      <point x="589" y="42"/>
      <point x="606" y="177" type="curve"/>
      <point x="614" y="177" type="line"/>
      <point x="631" y="42"/>
      <point x="716" y="-27"/>
      <point x="869" y="-27" type="curve" smooth="yes"/>
      <point x="1061" y="-27"/>
      <point x="1155" y="91"/>
      <point x="1155" y="333" type="curve" smooth="yes"/>
      <point x="1155" y="573" type="line" smooth="yes"/>
      <point x="1155" y="813"/>
      <point x="1088" y="921"/>
      <point x="937" y="948" type="curve"/>
      <point x="937" y="987" type="line"/>
      <point x="610" y="987" type="line"/>
      <point x="610" y="955" type="line"/>
      <point x="777" y="955"/>
      <point x="845" y="854"/>
      <point x="845" y="599" type="curve" smooth="yes"/>
      <point x="845" y="333" type="line" smooth="yes"/>
      <point x="845" y="286"/>
      <point x="831" y="264"/>
      <point x="801" y="264" type="curve" smooth="yes"/>
      <point x="772" y="264"/>
      <point x="756" y="285"/>
      <point x="754" y="331" type="curve" smooth="yes"/>
      <point x="746" y="491" type="line"/>
      <point x="474" y="491" type="line"/>
      <point x="466" y="331" type="line" smooth="yes"/>
      <point x="464" y="285"/>
      <point x="448" y="264"/>
      <point x="419" y="264" type="curve" smooth="yes"/>
      <point x="389" y="264"/>
      <point x="375" y="286"/>
      <point x="375" y="333" type="curve" smooth="yes"/>
    </contour>
    <contour>
      <point x="886" y="955" type="line"/>
      <point x="886" y="1207" type="line"/>
      <point x="68" y="1207" type="line"/>
      <point x="68" y="955" type="line"/>
    </contour>
  </outline>
  <guideline angle="90" x="2759" y="0"/>
  <guideline angle="90" x="2110" y="0"/>
  <guideline angle="90" x="3380" y="0"/>
</glyph>
<glyph name="DdamatraI.kn" format="2">
  <advance width="1219"/>
  <outline>
    <contour>
      <point x="354" y="-27" type="curve" smooth="yes"/>
      <point x="509" y="-27"/>
      <point x="595" y="42"/>
      <point x="612" y="177" type="curve"/>
      <point x="620" y="177" type="line"/>
      <point x="636" y="42"/>
      <point x="723" y="-27"/>
      <point x="877" y="-27" type="curve" smooth="yes"/>
      <point x="1074" y="-27"/>
      <point x="1168" y="87"/>
      <point x="1168" y="330" type="curve" smooth="yes"/>
      <point x="1168" y="375" type="line" smooth="yes"/>
      <point x="1168" y="548"/>
      <point x="1099" y="635"/>
      <point x="962" y="644" type="curve"/>
      <point x="962" y="650" type="line"/>
      <point x="1075" y="657"/>
      <point x="1141" y="740"/>
      <point x="1141" y="887" type="curve" smooth="yes"/>
      <point x="1141" y="892" type="line"/>
      <point x="941" y="1087" type="line"/>
      <point x="899" y="1083" type="line"/>
      <point x="849.197" y="1162.84"/>
      <point x="756.53" y="1200"/>
      <point x="600" y="1200" type="curve" smooth="yes"/>
      <point x="495.885" y="1200"/>
      <point x="413.634" y="1179"/>
      <point x="347" y="1138" type="curve"/>
      <point x="342.972" y="1134.31"/>
      <point x="255.704" y="1054.31"/>
      <point x="251" y="1050" type="curve"/>
      <point x="102" y="977"/>
      <point x="65" y="816"/>
      <point x="65" y="603" type="curve" smooth="yes"/>
      <point x="65" y="333" type="line" smooth="yes"/>
      <point x="65" y="88"/>
      <point x="156" y="-27"/>
    </contour>
    <contour>
      <point x="527" y="1595" type="curve" smooth="yes"/>
      <point x="220" y="1595"/>
      <point x="70" y="1479"/>
      <point x="70" y="1258" type="curve" smooth="yes"/>
      <point x="70" y="1093"/>
      <point x="156" y="1009"/>
      <point x="339" y="973" type="curve"/>
      <point x="437" y="1170" type="line"/>
      <point x="397" y="1177"/>
      <point x="379" y="1202"/>
      <point x="379" y="1238" type="curve" smooth="yes"/>
      <point x="379" y="1299"/>
      <point x="433" y="1327"/>
      <point x="544" y="1327" type="curve" smooth="yes"/>
      <point x="770.852" y="1327"/>
      <point x="913" y="1241.1"/>
      <point x="913" y="990" type="curve" smooth="yes"/>
      <point x="913" y="933" type="line"/>
      <point x="1141" y="890" type="line"/>
      <point x="1141" y="966" type="line" smooth="yes"/>
      <point x="1141" y="1389"/>
      <point x="942" y="1595"/>
    </contour>
    <contour>
      <point x="868" y="341" type="line" smooth="yes"/>
      <point x="868" y="288"/>
      <point x="850" y="264"/>
      <point x="815" y="264" type="curve" smooth="yes"/>
      <point x="781" y="264"/>
      <point x="763" y="286"/>
      <point x="760" y="336" type="curve" smooth="yes"/>
      <point x="753" y="460" type="line"/>
      <point x="479" y="460" type="line"/>
      <point x="472" y="333" type="line" smooth="yes"/>
      <point x="469" y="286"/>
      <point x="454" y="264"/>
      <point x="423" y="264" type="curve" smooth="yes"/>
      <point x="389" y="264"/>
      <point x="375" y="287"/>
      <point x="375" y="335" type="curve" smooth="yes"/>
      <point x="375" y="619" type="line" smooth="yes"/>
      <point x="375" y="853"/>
      <point x="449" y="945"/>
      <point x="645" y="945" type="curve" smooth="yes"/>
      <point x="781" y="945"/>
      <point x="841" y="911"/>
      <point x="841" y="849" type="curve" smooth="yes"/>
      <point x="841" y="845" type="line" smooth="yes"/>
      <point x="841" y="795"/>
      <point x="817" y="767"/>
      <point x="750" y="764" type="curve" smooth="yes"/>
      <point x="703" y="762" type="line"/>
      <point x="703" y="520" type="line"/>
      <point x="774" y="517" type="line" smooth="yes"/>
      <point x="844" y="514"/>
      <point x="868" y="481"/>
      <point x="868" y="384" type="curve" smooth="yes"/>
    </contour>
  </outline>
</glyph>
<glyph name="DdamatraO.kn" format="2">
  <advance width="2439"/>
  <outline>
    <component base="DdamatraE.kn"/>
    <contour>
      <point x="1241" y="254" type="curve" smooth="yes"/>
      <point x="1190" y="254"/>
      <point x="1168" y="286"/>
      <point x="1168" y="360" type="curve"/>
      <point x="1168" y="360"/>
      <point x="1168" y="366"/>
      <point x="1168" y="366" type="curve"/>
      <point x="1097" y="366" type="line"/>
      <point x="1097" y="322" type="line" smooth="yes"/>
      <point x="1097" y="91"/>
      <point x="1186" y="-27"/>
      <point x="1357" y="-27" type="curve" smooth="yes"/>
      <point x="1530" y="-27"/>
      <point x="1613" y="95"/>
      <point x="1613" y="337" type="curve" smooth="yes"/>
      <point x="1613" y="606" type="line"/>
      <point x="1312" y="611" type="line"/>
      <point x="1312" y="361" type="line" smooth="yes"/>
      <point x="1312" y="287"/>
      <point x="1293" y="254"/>
    </contour>
    <contour>
      <point x="1846" y="1244" type="curve" smooth="yes"/>
      <point x="1493" y="1244"/>
      <point x="1312" y="1059"/>
      <point x="1312" y="701" type="curve" smooth="yes"/>
      <point x="1312" y="579" type="line"/>
      <point x="1613" y="579" type="line"/>
      <point x="1613" y="696" type="line" smooth="yes"/>
      <point x="1613" y="883"/>
      <point x="1676" y="979"/>
      <point x="1845" y="979" type="curve" smooth="yes"/>
      <point x="2014" y="979"/>
      <point x="2077" y="880"/>
      <point x="2077" y="696" type="curve" smooth="yes"/>
      <point x="2077" y="529.304" type="line"/>
      <point x="2377" y="523.605" type="line"/>
      <point x="2377" y="701" type="line" smooth="yes"/>
      <point x="2377" y="1059"/>
      <point x="2195" y="1244"/>
    </contour>
    <contour>
      <point x="2377" y="533.605" type="line"/>
      <point x="2081.77" y="540.895" type="line"/>
      <point x="2082" y="313" type="line" smooth="yes"/>
      <point x="2082.06" y="253"/>
      <point x="2068" y="228"/>
      <point x="2033" y="228" type="curve" smooth="yes"/>
      <point x="1998" y="228"/>
      <point x="1984" y="253"/>
      <point x="1984" y="313" type="curve" smooth="yes"/>
      <point x="1984" y="443" type="line" smooth="yes"/>
      <point x="1984" y="486"/>
      <point x="1999" y="507"/>
      <point x="2031" y="507" type="curve" smooth="yes"/>
      <point x="2073" y="507"/>
      <point x="2099" y="474"/>
      <point x="2107" y="408" type="curve"/>
      <point x="2115" y="602" type="line"/>
      <point x="2069" y="602" type="line"/>
      <point x="2049" y="703"/>
      <point x="1994" y="753"/>
      <point x="1898" y="753" type="curve" smooth="yes"/>
      <point x="1761" y="753"/>
      <point x="1695" y="656"/>
      <point x="1695" y="461" type="curve" smooth="yes"/>
      <point x="1695" y="323" type="line" smooth="yes"/>
      <point x="1695" y="91"/>
      <point x="1807" y="-27"/>
      <point x="2031" y="-27" type="curve" smooth="yes"/>
      <point x="2258" y="-27"/>
      <point x="2377" y="98"/>
      <point x="2377" y="356" type="curve" smooth="yes"/>
    </contour>
  </outline>
</glyph>
<glyph name="DdhamatraUu.kn" format="2">
  <advance width="2439"/>
  <outline>
    <component base="DdamatraUu.kn"/>
    <contour>
      <point x="616" y="-432" type="curve" smooth="yes"/>
      <point x="716" y="-432"/>
      <point x="766" y="-377"/>
      <point x="766" y="-269" type="curve" smooth="yes"/>
      <point x="766" y="-256" type="line" smooth="yes"/>
      <point x="766" y="-144"/>
      <point x="701" y="-44"/>
      <point x="616" y="38" type="curve"/>
      <point x="531" y="-44"/>
      <point x="466" y="-144"/>
      <point x="466" y="-256" type="curve" smooth="yes"/>
      <point x="466" y="-269" type="line" smooth="yes"/>
      <point x="466" y="-377"/>
      <point x="516" y="-432"/>
    </contour>
  </outline>
  <guideline angle="0" x="0" y="-432"/>
  <guideline angle="90" x="466" y="0"/>
  <guideline angle="90" x="65" y="0"/>
</glyph>
<glyph name="DhamatraE.kn" format="2">
  <advance width="1220"/>
  <outline>
    <component base="DamatraE.kn"/>
    <contour>
      <point x="610" y="-432" type="curve" smooth="yes"/>
      <point x="710" y="-432"/>
      <point x="760" y="-377"/>
      <point x="760" y="-269" type="curve" smooth="yes"/>
      <point x="760" y="-256" type="line" smooth="yes"/>
      <point x="760" y="-144"/>
      <point x="695" y="-44"/>
      <point x="610" y="38" type="curve"/>
      <point x="525" y="-44"/>
      <point x="460" y="-144"/>
      <point x="460" y="-256" type="curve" smooth="yes"/>
      <point x="460" y="-269" type="line" smooth="yes"/>
      <point x="460" y="-377"/>
      <point x="510" y="-432"/>
    </contour>
  </outline>
  <guideline angle="90" x="65" y="0"/>
</glyph>
<glyph name="Dhasmall1.kn" format="2">
  <outline>
    <component base="Dasmall1.kn"/>
    <contour>
      <point x="-111" y="-731" type="curve"/>
      <point x="-163" y="-774"/>
      <point x="-202" y="-828"/>
      <point x="-202" y="-891" type="curve" smooth="yes"/>
      <point x="-202" y="-898" type="line" smooth="yes"/>
      <point x="-202" y="-962"/>
      <point x="-172" y="-992"/>
      <point x="-111" y="-992" type="curve" smooth="yes"/>
      <point x="-50" y="-992"/>
      <point x="-20" y="-962"/>
      <point x="-20" y="-898" type="curve" smooth="yes"/>
      <point x="-20" y="-891" type="line" smooth="yes"/>
      <point x="-20" y="-828"/>
      <point x="-59" y="-774"/>
    </contour>
  </outline>
  <guideline angle="90" x="630" y="0"/>
</glyph>
<glyph name="HamatraI.kn" format="2">
  <advance width="1310"/>
  <outline>
    <contour>
      <point x="962" y="866" type="curve" smooth="yes"/>
      <point x="817" y="866"/>
      <point x="739" y="784"/>
      <point x="726" y="639" type="curve"/>
      <point x="750" y="649" type="line"/>
      <point x="721" y="829" type="line"/>
      <point x="471" y="763" type="line"/>
      <point x="514" y="382" type="line"/>
      <point x="510" y="287"/>
      <point x="491" y="254"/>
      <point x="438" y="254" type="curve" smooth="yes"/>
      <point x="384" y="254"/>
      <point x="359" y="290"/>
      <point x="359" y="370" type="curve" smooth="yes"/>
      <point x="359" y="468" type="line" smooth="yes"/>
      <point x="359" y="558"/>
      <point x="386" y="594"/>
      <point x="450" y="594" type="curve" smooth="yes"/>
      <point x="460.959" y="594"/>
      <point x="504.041" y="594"/>
      <point x="515" y="594" type="curve"/>
      <point x="481" y="849" type="line"/>
      <point x="470.763" y="849"/>
      <point x="386.238" y="849"/>
      <point x="376" y="849" type="curve" smooth="yes"/>
      <point x="160" y="849"/>
      <point x="60" y="728"/>
      <point x="60" y="469" type="curve" smooth="yes"/>
      <point x="60" y="364" type="line" smooth="yes"/>
      <point x="60" y="98"/>
      <point x="168" y="-27"/>
      <point x="383" y="-27" type="curve" smooth="yes"/>
      <point x="535" y="-27"/>
      <point x="625" y="41"/>
      <point x="646" y="172" type="curve"/>
      <point x="654" y="172" type="line"/>
      <point x="687" y="39"/>
      <point x="784" y="-28"/>
      <point x="940" y="-28" type="curve" smooth="yes"/>
      <point x="1148" y="-28"/>
      <point x="1250" y="96"/>
      <point x="1250" y="359" type="curve" smooth="yes"/>
      <point x="1250" y="487" type="line" smooth="yes"/>
      <point x="1250" y="743"/>
      <point x="1157" y="866"/>
    </contour>
    <contour>
      <point x="882" y="254" type="curve" smooth="yes"/>
      <point x="841" y="254"/>
      <point x="817" y="275"/>
      <point x="808" y="340" type="curve" smooth="yes"/>
      <point x="782" y="519" type="line"/>
      <point x="791" y="566"/>
      <point x="827" y="592"/>
      <point x="873" y="592" type="curve" smooth="yes"/>
      <point x="925" y="592"/>
      <point x="951" y="559"/>
      <point x="951" y="481" type="curve" smooth="yes"/>
      <point x="951" y="365" type="line" smooth="yes"/>
      <point x="951" y="285"/>
      <point x="931" y="254"/>
    </contour>
    <contour>
      <point x="384" y="849" type="curve"/>
      <point x="453" y="714" type="line"/>
      <point x="683" y="714"/>
      <point x="792" y="830"/>
      <point x="792" y="1050" type="curve" smooth="yes"/>
      <point x="792" y="1142" type="line" smooth="yes"/>
      <point x="792" y="1372"/>
      <point x="685" y="1483"/>
      <point x="478" y="1483" type="curve" smooth="yes"/>
      <point x="277" y="1483"/>
      <point x="178" y="1380"/>
      <point x="178" y="1174" type="curve" smooth="yes"/>
      <point x="178" y="1144" type="line" smooth="yes"/>
      <point x="178" y="987"/>
      <point x="239" y="908"/>
      <point x="363" y="908" type="curve" smooth="yes"/>
      <point x="444" y="908"/>
      <point x="499" y="947"/>
      <point x="518" y="1015" type="curve"/>
      <point x="553" y="1015" type="line"/>
      <point x="547" y="1179" type="line"/>
      <point x="539" y="1121"/>
      <point x="516" y="1092"/>
      <point x="478" y="1092" type="curve" smooth="yes"/>
      <point x="447" y="1092"/>
      <point x="433" y="1110"/>
      <point x="433" y="1148" type="curve" smooth="yes"/>
      <point x="433" y="1181" type="line" smooth="yes"/>
      <point x="433" y="1235"/>
      <point x="447" y="1256"/>
      <point x="479" y="1256" type="curve" smooth="yes"/>
      <point x="512" y="1256"/>
      <point x="526" y="1235"/>
      <point x="526" y="1181" type="curve" smooth="yes"/>
      <point x="526" y="1011" type="line" smooth="yes"/>
      <point x="526" y="901"/>
      <point x="479" y="849"/>
    </contour>
  </outline>
  <guideline angle="0" x="0" y="594"/>
</glyph>
<glyph name="JamatraAu.kn" format="2">
  <advance width="1943"/>
  <anchor x="618" y="0" name="nukta"/>
  <outline>
    <contour>
      <point x="884" y="356" type="curve" smooth="yes"/>
      <point x="884" y="347" type="line" smooth="yes"/>
      <point x="884" y="291"/>
      <point x="864" y="264"/>
      <point x="824" y="264" type="curve" smooth="yes"/>
      <point x="785" y="264"/>
      <point x="765" y="290"/>
      <point x="762" y="345" type="curve" smooth="yes"/>
      <point x="756" y="464" type="line"/>
      <point x="614" y="464" type="line"/>
      <point x="620" y="217" type="line"/>
      <point x="628" y="55"/>
      <point x="722" y="-27"/>
      <point x="898" y="-27" type="curve" smooth="yes"/>
      <point x="1089" y="-27"/>
      <point x="1192" y="88"/>
      <point x="1192" y="313" type="curve" smooth="yes"/>
      <point x="1192" y="322" type="line" smooth="yes"/>
      <point x="1192" y="384"/>
      <point x="1182" y="441"/>
      <point x="1162" y="491" type="curve"/>
      <point x="871" y="491" type="line"/>
      <point x="880" y="450"/>
      <point x="884" y="394"/>
    </contour>
    <contour>
      <point x="381" y="1244" type="curve" smooth="yes"/>
      <point x="165" y="1244"/>
      <point x="54" y="1133"/>
      <point x="54" y="927" type="curve" smooth="yes"/>
      <point x="54" y="889" type="line" smooth="yes"/>
      <point x="54" y="823"/>
      <point x="68" y="749"/>
      <point x="89" y="708" type="curve"/>
      <point x="352" y="708" type="line"/>
      <point x="330" y="752"/>
      <point x="319" y="806"/>
      <point x="319" y="878" type="curve" smooth="yes"/>
      <point x="319" y="904" type="line" smooth="yes"/>
      <point x="319" y="961"/>
      <point x="339" y="984"/>
      <point x="376" y="984" type="curve" smooth="yes"/>
      <point x="413" y="984"/>
      <point x="432" y="960"/>
      <point x="432" y="904" type="curve" smooth="yes"/>
      <point x="432" y="886" type="line" smooth="yes"/>
      <point x="432" y="814"/>
      <point x="408" y="772"/>
      <point x="324" y="715" type="curve" smooth="yes"/>
      <point x="250" y="665" type="line" smooth="yes"/>
      <point x="109" y="570"/>
      <point x="40" y="465"/>
      <point x="40" y="321" type="curve" smooth="yes"/>
      <point x="40" y="307" type="line" smooth="yes"/>
      <point x="40" y="85"/>
      <point x="147" y="-27"/>
      <point x="348" y="-27" type="curve" smooth="yes"/>
      <point x="509" y="-27"/>
      <point x="598" y="47"/>
      <point x="614" y="192" type="curve"/>
      <point x="633" y="192" type="line"/>
      <point x="623" y="464" type="line"/>
      <point x="481" y="464" type="line"/>
      <point x="475" y="346" type="line" smooth="yes"/>
      <point x="472" y="290"/>
      <point x="449" y="264"/>
      <point x="407" y="264" type="curve" smooth="yes"/>
      <point x="362" y="264"/>
      <point x="340" y="287"/>
      <point x="340" y="335" type="curve" smooth="yes"/>
      <point x="340" y="340" type="line" smooth="yes"/>
      <point x="340" y="403"/>
      <point x="373" y="434"/>
      <point x="455" y="496" type="curve" smooth="yes"/>
      <point x="539" y="560" type="line" smooth="yes"/>
      <point x="653" y="647"/>
      <point x="709" y="755"/>
      <point x="709" y="884" type="curve" smooth="yes"/>
      <point x="709" y="914" type="line" smooth="yes"/>
      <point x="709" y="1131"/>
      <point x="597" y="1244"/>
    </contour>
    <contour>
      <point x="991" y="955" type="line" smooth="yes"/>
      <point x="1153" y="955"/>
      <point x="1228" y="1028"/>
      <point x="1228" y="1183" type="curve" smooth="yes"/>
      <point x="1228" y="1189" type="line" smooth="yes"/>
      <point x="1228" y="1303"/>
      <point x="1180" y="1367"/>
      <point x="1084" y="1378" type="curve"/>
      <point x="1084" y="1420" type="line"/>
      <point x="865" y="1420" type="line"/>
      <point x="864.788" y="1418.19"/>
      <point x="861.191" y="1387.62"/>
      <point x="861" y="1386" type="curve"/>
      <point x="915" y="1386"/>
      <point x="941" y="1357"/>
      <point x="941" y="1299" type="curve" smooth="yes"/>
      <point x="941" y="1294" type="line" smooth="yes"/>
      <point x="941" y="1236"/>
      <point x="915" y="1207"/>
      <point x="861" y="1207" type="curve" smooth="yes"/>
      <point x="843" y="1207" type="line"/>
      <point x="843" y="955" type="line"/>
    </contour>
    <contour>
      <point x="1633" y="1003.47" type="line"/>
      <point x="1633" y="765" type="line" smooth="yes"/>
      <point x="1633" y="708"/>
      <point x="1619" y="685"/>
      <point x="1586" y="685" type="curve" smooth="yes"/>
      <point x="1552" y="685"/>
      <point x="1539" y="708"/>
      <point x="1539" y="765" type="curve" smooth="yes"/>
      <point x="1539" y="897" type="line" smooth="yes"/>
      <point x="1539" y="938"/>
      <point x="1553" y="959"/>
      <point x="1585" y="959" type="curve" smooth="yes"/>
      <point x="1622" y="959"/>
      <point x="1645" y="930"/>
      <point x="1652" y="872" type="curve"/>
      <point x="1660" y="1054" type="line"/>
      <point x="1616" y="1054" type="line"/>
      <point x="1599" y="1154"/>
      <point x="1546" y="1201"/>
      <point x="1454" y="1201" type="curve" smooth="yes"/>
      <point x="1325" y="1201"/>
      <point x="1262" y="1108"/>
      <point x="1262" y="919" type="curve" smooth="yes"/>
      <point x="1262" y="785" type="line" smooth="yes"/>
      <point x="1262" y="551"/>
      <point x="1372" y="440"/>
      <point x="1584" y="440" type="curve" smooth="yes"/>
      <point x="1804" y="440"/>
      <point x="1913" y="553"/>
      <point x="1913" y="776" type="curve" smooth="yes"/>
      <point x="1913" y="1003.47" type="line"/>
    </contour>
    <contour>
      <point x="787" y="1628" type="line"/>
      <point x="787" y="1386" type="line"/>
      <point x="1308" y="1386" type="line" smooth="yes"/>
      <point x="1529" y="1386"/>
      <point x="1624" y="1299"/>
      <point x="1624" y="1095" type="curve" smooth="yes"/>
      <point x="1624" y="993.521" type="line"/>
      <point x="1913" y="993.521" type="line"/>
      <point x="1913" y="1100" type="line" smooth="yes"/>
      <point x="1913" y="1459"/>
      <point x="1727" y="1628"/>
      <point x="1312" y="1628" type="curve" smooth="yes"/>
    </contour>
    <contour>
      <point x="766" y="1207" type="line"/>
      <point x="766" y="955" type="line"/>
      <point x="784" y="955" type="line" smooth="yes"/>
      <point x="841" y="955"/>
      <point x="869" y="930"/>
      <point x="869" y="869" type="curve" smooth="yes"/>
      <point x="869" y="860" type="line" smooth="yes"/>
      <point x="869" y="804"/>
      <point x="841" y="777"/>
      <point x="795" y="777" type="curve" smooth="yes"/>
      <point x="738" y="777"/>
      <point x="706" y="815"/>
      <point x="706" y="905" type="curve"/>
      <point x="706" y="906" type="line"/>
      <point x="620" y="848" type="line"/>
      <point x="620" y="840" type="line" smooth="yes"/>
      <point x="620" y="630"/>
      <point x="709" y="520"/>
      <point x="894" y="520" type="curve" smooth="yes"/>
      <point x="1063" y="520"/>
      <point x="1152" y="602"/>
      <point x="1152" y="761" type="curve" smooth="yes"/>
      <point x="1152" y="773" type="line" smooth="yes"/>
      <point x="1152" y="878"/>
      <point x="1104" y="938"/>
      <point x="1022" y="948" type="curve"/>
      <point x="1022" y="1007" type="line"/>
      <point x="1022" y="1207" type="line"/>
    </contour>
  </outline>
  <guideline angle="90" x="207" y="0"/>
  <guideline angle="0" x="0" y="1403"/>
  <guideline angle="90" x="156" y="0"/>
  <guideline angle="0" x="0" y="1281"/>
</glyph>
<glyph name="JhamatraE.kn" format="2">
  <advance width="1968"/>
  <outline>
    <component base="matraU.kn" xOffset="1484"/>
    <component base="matraU.kn" xOffset="1002"/>
    <component base="RamatraE.kn"/>
    <contour>
      <point x="1383" y="-432" type="curve" smooth="yes"/>
      <point x="1483" y="-432"/>
      <point x="1533" y="-377"/>
      <point x="1533" y="-269" type="curve" smooth="yes"/>
      <point x="1533" y="-256" type="line" smooth="yes"/>
      <point x="1533" y="-144"/>
      <point x="1468" y="-44"/>
      <point x="1383" y="38" type="curve"/>
      <point x="1298" y="-44"/>
      <point x="1233" y="-144"/>
      <point x="1233" y="-256" type="curve" smooth="yes"/>
      <point x="1233" y="-269" type="line" smooth="yes"/>
      <point x="1233" y="-377"/>
      <point x="1283" y="-432"/>
    </contour>
    <contour>
      <point x="866" y="366" type="line"/>
      <point x="937" y="366" type="line"/>
      <point x="937" y="483" type="line"/>
      <point x="866" y="483" type="line"/>
    </contour>
  </outline>
  <guideline angle="90" x="927" y="0"/>
  <guideline angle="90" x="1409" y="0"/>
  <guideline angle="90" x="1233" y="0"/>
</glyph>
<glyph name="JhamatraUu.kn" format="2">
  <advance width="2678"/>
  <outline>
    <component base="Ra.kn"/>
    <component base="matraUu.kn" xOffset="1482"/>
    <component base="matraU.kn" xOffset="998"/>
    <contour>
      <point x="1376" y="-432" type="curve" smooth="yes"/>
      <point x="1476" y="-432"/>
      <point x="1526" y="-377"/>
      <point x="1526" y="-269" type="curve" smooth="yes"/>
      <point x="1526" y="-256" type="line" smooth="yes"/>
      <point x="1526" y="-144"/>
      <point x="1461" y="-44"/>
      <point x="1376" y="38" type="curve"/>
      <point x="1291" y="-44"/>
      <point x="1226" y="-144"/>
      <point x="1226" y="-256" type="curve" smooth="yes"/>
      <point x="1226" y="-269" type="line" smooth="yes"/>
      <point x="1226" y="-377"/>
      <point x="1276" y="-432"/>
    </contour>
    <contour>
      <point x="862" y="366" type="line"/>
      <point x="933" y="366" type="line"/>
      <point x="933" y="483" type="line"/>
      <point x="862" y="483" type="line"/>
    </contour>
  </outline>
  <guideline angle="90" x="1226" y="0"/>
  <guideline angle="0" x="0" y="-432"/>
</glyph>
<glyph name="KaSsamatraO.kn" format="2">
  <advance width="2139"/>
  <outline>
    <component base="KamatraO.kn"/>
    <contour>
      <point x="1013" y="-657" type="line"/>
      <point x="976" y="-419"/>
      <point x="949" y="-263"/>
      <point x="912" y="-58" type="curve"/>
      <point x="695" y="-58" type="line"/>
      <point x="705" y="-134"/>
      <point x="712" y="-201"/>
      <point x="712" y="-249" type="curve" smooth="yes"/>
      <point x="712" y="-303"/>
      <point x="693" y="-326"/>
      <point x="656" y="-326" type="curve" smooth="yes"/>
      <point x="620" y="-326"/>
      <point x="601" y="-303"/>
      <point x="598" y="-251" type="curve" smooth="yes"/>
      <point x="592" y="-151" type="line"/>
      <point x="453" y="-151" type="line"/>
      <point x="463" y="-203"/>
      <point x="488" y="-325"/>
      <point x="496" y="-364" type="curve"/>
      <point x="506" y="-469"/>
      <point x="560" y="-526"/>
      <point x="659" y="-526" type="curve" smooth="yes"/>
      <point x="729" y="-526"/>
      <point x="779" y="-493"/>
      <point x="796" y="-413" type="curve"/>
      <point x="802" y="-413" type="line"/>
      <point x="800" y="-454"/>
      <point x="791" y="-609"/>
      <point x="788" y="-657" type="curve"/>
    </contour>
    <contour>
      <point x="303" y="-79" type="curve"/>
      <point x="95" y="-79" type="line"/>
      <point x="69" y="-129"/>
      <point x="55" y="-189"/>
      <point x="55" y="-256" type="curve" smooth="yes"/>
      <point x="55" y="-272" type="line" smooth="yes"/>
      <point x="55" y="-438"/>
      <point x="135" y="-526"/>
      <point x="293" y="-526" type="curve" smooth="yes"/>
      <point x="413" y="-526"/>
      <point x="476" y="-469"/>
      <point x="491" y="-364" type="curve"/>
      <point x="546" y="-364" type="line"/>
      <point x="496" y="-151" type="line"/>
      <point x="394" y="-151" type="line"/>
      <point x="388" y="-251" type="line" smooth="yes"/>
      <point x="385" y="-303"/>
      <point x="369" y="-326"/>
      <point x="329" y="-326" type="curve" smooth="yes"/>
      <point x="294" y="-326"/>
      <point x="272" y="-303"/>
      <point x="272" y="-251" type="curve" smooth="yes"/>
      <point x="272" y="-234" type="line" smooth="yes"/>
      <point x="272" y="-177"/>
      <point x="285" y="-119"/>
    </contour>
  </outline>
</glyph>
<glyph name="Kasmall1.kn" format="2">
  <advance width="150"/>
  <outline>
    <contour>
      <point x="64" y="-327" type="curve" smooth="yes"/>
      <point x="111" y="-327"/>
      <point x="133" y="-356"/>
      <point x="133" y="-423" type="curve" smooth="yes"/>
      <point x="133" y="-511" type="line" smooth="yes"/>
      <point x="133" y="-578"/>
      <point x="111" y="-606"/>
      <point x="64" y="-606" type="curve" smooth="yes"/>
      <point x="17" y="-606"/>
      <point x="-5" y="-578"/>
      <point x="-5" y="-511" type="curve" smooth="yes"/>
      <point x="-5" y="-423" type="line" smooth="yes"/>
      <point x="-5" y="-356"/>
      <point x="17" y="-327"/>
    </contour>
    <contour>
      <point x="-93" y="-296" type="line"/>
      <point x="-93" y="-326" type="line"/>
      <point x="-150" y="-338"/>
      <point x="-191" y="-390"/>
      <point x="-191" y="-478" type="curve" smooth="yes"/>
      <point x="-191" y="-527" type="line" smooth="yes"/>
      <point x="-191" y="-685"/>
      <point x="-101" y="-770"/>
      <point x="64" y="-770" type="curve" smooth="yes"/>
      <point x="229" y="-770"/>
      <point x="319" y="-685"/>
      <point x="319" y="-527" type="curve" smooth="yes"/>
      <point x="319" y="-478" type="line" smooth="yes"/>
      <point x="319" y="-390"/>
      <point x="278" y="-338"/>
      <point x="221" y="-326" type="curve"/>
      <point x="221" y="-296" type="line"/>
    </contour>
    <contour>
      <point x="-27" y="197" type="line"/>
      <point x="-8" y="144"/>
      <point x="3" y="72"/>
      <point x="3" y="-7" type="curve" smooth="yes"/>
      <point x="3" y="-24" type="line" smooth="yes"/>
      <point x="3" y="-86"/>
      <point x="-4" y="-138"/>
      <point x="-17" y="-170" type="curve"/>
      <point x="-215" y="-170" type="line"/>
      <point x="-215" y="-322" type="line"/>
      <point x="-57" y="-322" type="line"/>
      <point x="-57" y="-303" type="line"/>
      <point x="185" y="-303" type="line"/>
      <point x="185" y="-322" type="line"/>
      <point x="343" y="-322" type="line"/>
      <point x="343" y="-170" type="line"/>
      <point x="164" y="-170" type="line"/>
      <point x="178" y="-134"/>
      <point x="189" y="-77"/>
      <point x="189" y="-22" type="curve" smooth="yes"/>
      <point x="189" y="-5" type="line" smooth="yes"/>
      <point x="189" y="70"/>
      <point x="174" y="143"/>
      <point x="150" y="197" type="curve"/>
    </contour>
  </outline>
  <guideline angle="0" x="0" y="-351"/>
</glyph>
<glyph name="KhamatraI.kn" format="2">
  <advance width="1378"/>
  <outline>
    <contour>
      <point x="986" y="1496" type="curve" smooth="yes"/>
      <point x="778" y="1496"/>
      <point x="676" y="1392"/>
      <point x="676" y="1182" type="curve" smooth="yes"/>
      <point x="676" y="1147" type="line" smooth="yes"/>
      <point x="676" y="978"/>
      <point x="737" y="894"/>
      <point x="861" y="894" type="curve" smooth="yes"/>
      <point x="937" y="894"/>
      <point x="988" y="933"/>
      <point x="1006" y="998" type="curve"/>
      <point x="1041" y="998" type="line"/>
      <point x="1052" y="1182" type="line"/>
      <point x="1044" y="1124"/>
      <point x="1021" y="1095"/>
      <point x="983" y="1095" type="curve" smooth="yes"/>
      <point x="952" y="1095"/>
      <point x="938" y="1113"/>
      <point x="938" y="1151" type="curve" smooth="yes"/>
      <point x="938" y="1191" type="line" smooth="yes"/>
      <point x="938" y="1245"/>
      <point x="952" y="1266"/>
      <point x="984" y="1266" type="curve" smooth="yes"/>
      <point x="1017" y="1266"/>
      <point x="1031" y="1245"/>
      <point x="1031" y="1191" type="curve" smooth="yes"/>
      <point x="1031" y="1145"/>
      <point x="1031" y="1120"/>
      <point x="1031" y="1074" type="curve" smooth="yes"/>
      <point x="1031" y="1064"/>
      <point x="1034" y="1061"/>
      <point x="1034" y="1050" type="curve"/>
      <point x="1034" y="1048.15"/>
      <point x="1034" y="1009.85"/>
      <point x="1034" y="1008" type="curve"/>
      <point x="1014" y="998" type="line"/>
      <point x="999" y="890"/>
      <point x="995" y="828"/>
      <point x="995" y="720" type="curve" smooth="yes"/>
      <point x="995" y="399" type="line" smooth="yes"/>
      <point x="995" y="298"/>
      <point x="968" y="254"/>
      <point x="890" y="254" type="curve" smooth="yes"/>
      <point x="819" y="254"/>
      <point x="786" y="297"/>
      <point x="786" y="398" type="curve" smooth="yes"/>
      <point x="786" y="472" type="line"/>
      <point x="680" y="472" type="line"/>
      <point x="680" y="360" type="line" smooth="yes"/>
      <point x="680" y="103"/>
      <point x="787" y="-27"/>
      <point x="991" y="-27" type="curve" smooth="yes"/>
      <point x="1205" y="-27"/>
      <point x="1305" y="107"/>
      <point x="1305" y="375" type="curve" smooth="yes"/>
      <point x="1305" y="730" type="line" smooth="yes"/>
      <point x="1305" y="891.092"/>
      <point x="1305" y="993.908"/>
      <point x="1305" y="1155" type="curve" smooth="yes"/>
      <point x="1305" y="1385"/>
      <point x="1196" y="1496"/>
    </contour>
    <contour>
      <point x="395" y="-27" type="curve" smooth="yes"/>
      <point x="612" y="-27"/>
      <point x="731" y="82"/>
      <point x="731" y="313" type="curve"/>
      <point x="642" y="295" type="line"/>
      <point x="786" y="295" type="line"/>
      <point x="786" y="315"/>
      <point x="786" y="400"/>
      <point x="786" y="422" type="curve" smooth="yes"/>
      <point x="786" y="867" type="line" smooth="yes"/>
      <point x="786" y="1116"/>
      <point x="659" y="1244"/>
      <point x="422" y="1244" type="curve" smooth="yes"/>
      <point x="191" y="1244"/>
      <point x="67" y="1126"/>
      <point x="67" y="907" type="curve" smooth="yes"/>
      <point x="67" y="870" type="line" smooth="yes"/>
      <point x="67" y="809"/>
      <point x="78" y="747"/>
      <point x="99" y="708" type="curve"/>
      <point x="375" y="708" type="line"/>
      <point x="366" y="739"/>
      <point x="357" y="788"/>
      <point x="357" y="847" type="curve" smooth="yes"/>
      <point x="357" y="883" type="line" smooth="yes"/>
      <point x="357" y="946"/>
      <point x="377" y="976"/>
      <point x="422" y="976" type="curve" smooth="yes"/>
      <point x="467" y="976"/>
      <point x="486" y="946"/>
      <point x="486" y="883" type="curve" smooth="yes"/>
      <point x="486" y="464" type="line"/>
      <point x="489" y="424"/>
      <point x="489" y="449"/>
      <point x="492" y="409" type="curve"/>
      <point x="492" y="403.261"/>
      <point x="492" y="337.058"/>
      <point x="492" y="333" type="curve" smooth="yes"/>
      <point x="492" y="257.496"/>
      <point x="467" y="225"/>
      <point x="413" y="225" type="curve" smooth="yes"/>
      <point x="357" y="225"/>
      <point x="331" y="257.128"/>
      <point x="331" y="328" type="curve" smooth="yes"/>
      <point x="331" y="344" type="line" smooth="yes"/>
      <point x="331" y="405.361"/>
      <point x="359" y="437"/>
      <point x="410" y="437" type="curve" smooth="yes"/>
      <point x="455" y="437"/>
      <point x="482" y="413.408"/>
      <point x="501" y="370" type="curve"/>
      <point x="513" y="520" type="line"/>
      <point x="492" y="613"/>
      <point x="427" y="668"/>
      <point x="304" y="668" type="curve" smooth="yes"/>
      <point x="134" y="668"/>
      <point x="45" y="561"/>
      <point x="45" y="356" type="curve" smooth="yes"/>
      <point x="45" y="321" type="line" smooth="yes"/>
      <point x="45" y="92"/>
      <point x="163" y="-27"/>
    </contour>
  </outline>
  <guideline angle="0" x="0" y="668"/>
</glyph>
<glyph name="LamatraI.kn" format="2">
  <advance width="1229"/>
  <outline>
    <contour>
      <point x="1169" y="544" type="curve" smooth="yes"/>
      <point x="1169" y="716" type="line" smooth="yes"/>
      <point x="1169" y="911"/>
      <point x="1169" y="960"/>
      <point x="1169" y="1155" type="curve" smooth="yes"/>
      <point x="1169" y="1385"/>
      <point x="1060" y="1496"/>
      <point x="850" y="1496" type="curve" smooth="yes"/>
      <point x="642" y="1496"/>
      <point x="540" y="1392"/>
      <point x="540" y="1182" type="curve" smooth="yes"/>
      <point x="540" y="1147" type="line" smooth="yes"/>
      <point x="540" y="978"/>
      <point x="601" y="894"/>
      <point x="725" y="894" type="curve" smooth="yes"/>
      <point x="801" y="894"/>
      <point x="852" y="933"/>
      <point x="870" y="998" type="curve"/>
      <point x="905" y="998" type="line"/>
      <point x="916" y="1182" type="line"/>
      <point x="908" y="1124"/>
      <point x="885" y="1095"/>
      <point x="847" y="1095" type="curve" smooth="yes"/>
      <point x="816" y="1095"/>
      <point x="802" y="1113"/>
      <point x="802" y="1151" type="curve" smooth="yes"/>
      <point x="802" y="1191" type="line" smooth="yes"/>
      <point x="802" y="1245"/>
      <point x="816" y="1266"/>
      <point x="848" y="1266" type="curve" smooth="yes"/>
      <point x="881" y="1266"/>
      <point x="895" y="1245"/>
      <point x="895" y="1191" type="curve" smooth="yes"/>
      <point x="895" y="1145"/>
      <point x="895" y="1120"/>
      <point x="895" y="1074" type="curve" smooth="yes"/>
      <point x="895" y="1064"/>
      <point x="898" y="1061"/>
      <point x="898" y="1050" type="curve"/>
      <point x="898" y="1048.15"/>
      <point x="898" y="1009.85"/>
      <point x="898" y="1008" type="curve"/>
      <point x="878" y="998" type="line"/>
      <point x="863" y="890"/>
      <point x="859" y="828"/>
      <point x="859" y="720" type="curve" smooth="yes"/>
      <point x="859" y="556" type="line" smooth="yes"/>
      <point x="859" y="351"/>
      <point x="778" y="253"/>
      <point x="609" y="253" type="curve" smooth="yes"/>
      <point x="437.265" y="253"/>
      <point x="354" y="349.252"/>
      <point x="354" y="549" type="curve" smooth="yes"/>
      <point x="354" y="677.459" type="line"/>
      <point x="53" y="689.49" type="line"/>
      <point x="53" y="544" type="line" smooth="yes"/>
      <point x="53" y="160.316"/>
      <point x="238.321" y="-30"/>
      <point x="611" y="-30" type="curve" smooth="yes"/>
      <point x="984" y="-30"/>
      <point x="1169" y="160"/>
    </contour>
    <contour>
      <point x="348" y="664" type="line"/>
      <point x="348" y="899" type="line" smooth="yes"/>
      <point x="348" y="959"/>
      <point x="362" y="984"/>
      <point x="397" y="984" type="curve" smooth="yes"/>
      <point x="432" y="984"/>
      <point x="446" y="959"/>
      <point x="446" y="899" type="curve" smooth="yes"/>
      <point x="446" y="763" type="line" smooth="yes"/>
      <point x="446" y="720"/>
      <point x="431" y="699"/>
      <point x="399" y="699" type="curve" smooth="yes"/>
      <point x="357" y="699"/>
      <point x="331" y="732"/>
      <point x="323" y="797" type="curve"/>
      <point x="315" y="605" type="line"/>
      <point x="362" y="605" type="line"/>
      <point x="382" y="522"/>
      <point x="440" y="479"/>
      <point x="528" y="479" type="curve" smooth="yes"/>
      <point x="662" y="479"/>
      <point x="730" y="572"/>
      <point x="730" y="756" type="curve" smooth="yes"/>
      <point x="730" y="894" type="line" smooth="yes"/>
      <point x="730" y="1126"/>
      <point x="619" y="1244"/>
      <point x="399" y="1244" type="curve" smooth="yes"/>
      <point x="172" y="1244"/>
      <point x="53" y="1119"/>
      <point x="53" y="861" type="curve" smooth="yes"/>
      <point x="53" y="679.49" type="line"/>
    </contour>
  </outline>
  <guideline angle="0" x="0" y="1326"/>
</glyph>
<glyph name="Lasmall1.kn" format="2">
  <outline>
    <contour>
      <point x="15" y="-538" type="line"/>
      <point x="20" y="-337" type="line" smooth="yes"/>
      <point x="20.995" y="-297"/>
      <point x="33" y="-278"/>
      <point x="59" y="-278" type="curve" smooth="yes"/>
      <point x="85" y="-278"/>
      <point x="97" y="-296"/>
      <point x="97" y="-338" type="curve" smooth="yes"/>
      <point x="97" y="-412" type="line" smooth="yes"/>
      <point x="97" y="-476"/>
      <point x="86" y="-569"/>
      <point x="60" y="-625" type="curve"/>
      <point x="244" y="-625" type="line"/>
      <point x="267" y="-566"/>
      <point x="283" y="-487"/>
      <point x="283" y="-406" type="curve" smooth="yes"/>
      <point x="283" y="-332" type="line" smooth="yes"/>
      <point x="283" y="-186"/>
      <point x="218" y="-110"/>
      <point x="93" y="-110" type="curve" smooth="yes"/>
      <point x="-3" y="-110"/>
      <point x="-56" y="-150"/>
      <point x="-68" y="-225" type="curve"/>
      <point x="-72" y="-225" type="line"/>
      <point x="-83" y="-150"/>
      <point x="-142" y="-110"/>
      <point x="-232" y="-110" type="curve" smooth="yes"/>
      <point x="-357" y="-110"/>
      <point x="-422" y="-186"/>
      <point x="-422" y="-332" type="curve" smooth="yes"/>
      <point x="-422" y="-406" type="line" smooth="yes"/>
      <point x="-422" y="-487"/>
      <point x="-406" y="-566"/>
      <point x="-383" y="-625" type="curve"/>
      <point x="-199" y="-625" type="line"/>
      <point x="-225" y="-569"/>
      <point x="-236" y="-476"/>
      <point x="-236" y="-412" type="curve" smooth="yes"/>
      <point x="-236" y="-338" type="line" smooth="yes"/>
      <point x="-236" y="-296"/>
      <point x="-224" y="-278"/>
      <point x="-198" y="-278" type="curve" smooth="yes"/>
      <point x="-172" y="-278"/>
      <point x="-159.995" y="-297"/>
      <point x="-159" y="-337" type="curve" smooth="yes"/>
      <point x="-154" y="-538" type="line"/>
    </contour>
  </outline>
</glyph>
<glyph name="LllaObsoletesmall1.kn" format="2">
  <outline>
    <contour>
      <point x="-432" y="-393.057" type="line"/>
      <point x="-258" y="-380" type="line"/>
      <point x="-258" y="-286" type="line" smooth="yes"/>
      <point x="-258" y="-256"/>
      <point x="-252" y="-244"/>
      <point x="-235" y="-244" type="curve" smooth="yes"/>
      <point x="-217" y="-244"/>
      <point x="-212" y="-256"/>
      <point x="-212" y="-286" type="curve" smooth="yes"/>
      <point x="-212" y="-324" type="line" smooth="yes"/>
      <point x="-212" y="-343"/>
      <point x="-217" y="-353"/>
      <point x="-233" y="-353" type="curve" smooth="yes"/>
      <point x="-247" y="-353"/>
      <point x="-256" y="-345"/>
      <point x="-262" y="-332" type="curve"/>
      <point x="-263" y="-408" type="line"/>
      <point x="-246" y="-408" type="line"/>
      <point x="-236" y="-451"/>
      <point x="-203" y="-476"/>
      <point x="-152" y="-476" type="curve" smooth="yes"/>
      <point x="-81" y="-476"/>
      <point x="-43" y="-428"/>
      <point x="-43" y="-328" type="curve" smooth="yes"/>
      <point x="-43" y="-280" type="line" smooth="yes"/>
      <point x="-43" y="-158"/>
      <point x="-108" y="-97"/>
      <point x="-231" y="-97" type="curve" smooth="yes"/>
      <point x="-362" y="-97"/>
      <point x="-432" y="-164"/>
      <point x="-432" y="-309" type="curve" smooth="yes"/>
    </contour>
    <contour>
      <point x="-432" y="-537" type="line" smooth="yes"/>
      <point x="-432" y="-690"/>
      <point x="-360" y="-770"/>
      <point x="-215" y="-770" type="curve" smooth="yes"/>
      <point x="-102" y="-770"/>
      <point x="-42" y="-724"/>
      <point x="-29" y="-637" type="curve"/>
      <point x="-25" y="-637" type="line"/>
      <point x="-12" y="-724"/>
      <point x="48" y="-770"/>
      <point x="161" y="-770" type="curve" smooth="yes"/>
      <point x="306" y="-770"/>
      <point x="378" y="-690"/>
      <point x="378" y="-537" type="curve" smooth="yes"/>
      <point x="378" y="-384.045" type="line"/>
      <point x="196" y="-370.646" type="line"/>
      <point x="196" y="-530" type="line" smooth="yes"/>
      <point x="196" y="-584"/>
      <point x="172" y="-609"/>
      <point x="132" y="-609" type="curve" smooth="yes"/>
      <point x="88" y="-609"/>
      <point x="68.3483" y="-583.96"/>
      <point x="62" y="-530" type="curve" smooth="yes"/>
      <point x="58" y="-496" type="line"/>
      <point x="-113" y="-496" type="line"/>
      <point x="-116" y="-530" type="line" smooth="yes"/>
      <point x="-120.767" y="-584.021"/>
      <point x="-142" y="-609"/>
      <point x="-186" y="-609" type="curve" smooth="yes"/>
      <point x="-226" y="-609"/>
      <point x="-250" y="-584"/>
      <point x="-250" y="-530" type="curve" smooth="yes"/>
      <point x="-250" y="-369.658" type="line"/>
      <point x="-432" y="-383.057" type="line"/>
    </contour>
    <contour>
      <point x="378" y="-394.045" type="line"/>
      <point x="378" y="-309" type="line" smooth="yes"/>
      <point x="378" y="-164"/>
      <point x="308" y="-97"/>
      <point x="177" y="-97" type="curve" smooth="yes"/>
      <point x="54" y="-97"/>
      <point x="-11" y="-158"/>
      <point x="-11" y="-280" type="curve" smooth="yes"/>
      <point x="-11" y="-328" type="line" smooth="yes"/>
      <point x="-11" y="-428"/>
      <point x="27" y="-476"/>
      <point x="98" y="-476" type="curve" smooth="yes"/>
      <point x="149" y="-476"/>
      <point x="182" y="-451"/>
      <point x="192" y="-408" type="curve"/>
      <point x="209" y="-408" type="line"/>
      <point x="208" y="-332" type="line"/>
      <point x="202" y="-345"/>
      <point x="193" y="-353"/>
      <point x="179" y="-353" type="curve" smooth="yes"/>
      <point x="163" y="-353"/>
      <point x="158" y="-343"/>
      <point x="158" y="-324" type="curve" smooth="yes"/>
      <point x="158" y="-286" type="line" smooth="yes"/>
      <point x="158" y="-256"/>
      <point x="163" y="-244"/>
      <point x="181" y="-244" type="curve" smooth="yes"/>
      <point x="198" y="-244"/>
      <point x="204" y="-256"/>
      <point x="204" y="-286" type="curve" smooth="yes"/>
      <point x="204" y="-380" type="line"/>
    </contour>
  </outline>
</glyph>
<glyph name="NgamatraAu.kn" format="2">
  <advance width="2423"/>
  <outline>
    <contour>
      <point x="1203" y="889" type="line" smooth="yes"/>
      <point x="1203" y="1119"/>
      <point x="1103" y="1244"/>
      <point x="909" y="1244" type="curve" smooth="yes"/>
      <point x="724" y="1244"/>
      <point x="629" y="1138"/>
      <point x="629" y="902" type="curve"/>
      <point x="706" y="852" type="line"/>
      <point x="709" y="945"/>
      <point x="749" y="984"/>
      <point x="824" y="984" type="curve" smooth="yes"/>
      <point x="897" y="984"/>
      <point x="935" y="944"/>
      <point x="935" y="845" type="curve" smooth="yes"/>
      <point x="935" y="704" type="line"/>
      <point x="994" y="579"/>
      <point x="1123" y="508"/>
      <point x="1300" y="508" type="curve" smooth="yes"/>
      <point x="1518" y="508"/>
      <point x="1632" y="600"/>
      <point x="1632" y="774" type="curve" smooth="yes"/>
      <point x="1632" y="779" type="line" smooth="yes"/>
      <point x="1632" y="880"/>
      <point x="1587" y="938"/>
      <point x="1509" y="948" type="curve"/>
      <point x="1509" y="993" type="line"/>
      <point x="1264" y="993" type="line"/>
      <point x="1264" y="955" type="line"/>
      <point x="1321" y="955"/>
      <point x="1349" y="929"/>
      <point x="1349" y="865" type="curve" smooth="yes"/>
      <point x="1349" y="857" type="line" smooth="yes"/>
      <point x="1349" y="801"/>
      <point x="1325" y="772"/>
      <point x="1279" y="772" type="curve" smooth="yes"/>
      <point x="1243" y="772"/>
      <point x="1215" y="787"/>
      <point x="1203" y="809" type="curve"/>
    </contour>
    <contour>
      <point x="1475" y="955" type="line"/>
      <point x="1475" y="1207" type="line"/>
      <point x="1246" y="1207" type="line"/>
      <point x="1246" y="955" type="line"/>
    </contour>
    <contour>
      <point x="884" y="347" type="line" smooth="yes"/>
      <point x="884" y="291"/>
      <point x="864" y="264"/>
      <point x="824" y="264" type="curve" smooth="yes"/>
      <point x="785" y="264"/>
      <point x="765" y="290"/>
      <point x="762" y="345" type="curve" smooth="yes"/>
      <point x="756" y="464" type="line"/>
      <point x="614" y="464" type="line"/>
      <point x="622" y="192" type="line"/>
      <point x="638" y="47"/>
      <point x="731" y="-27"/>
      <point x="898" y="-27" type="curve" smooth="yes"/>
      <point x="1089" y="-27"/>
      <point x="1192" y="88"/>
      <point x="1192" y="313" type="curve" smooth="yes"/>
      <point x="1192" y="322" type="line" smooth="yes"/>
      <point x="1192" y="384"/>
      <point x="1182" y="441"/>
      <point x="1162" y="491" type="curve"/>
      <point x="871" y="491" type="line"/>
      <point x="880" y="450"/>
      <point x="884" y="394"/>
      <point x="884" y="356" type="curve" smooth="yes"/>
    </contour>
    <contour>
      <point x="381" y="1244" type="curve" smooth="yes"/>
      <point x="165" y="1244"/>
      <point x="54" y="1133"/>
      <point x="54" y="927" type="curve" smooth="yes"/>
      <point x="54" y="889" type="line" smooth="yes"/>
      <point x="54" y="823"/>
      <point x="68" y="749"/>
      <point x="89" y="708" type="curve"/>
      <point x="352" y="708" type="line"/>
      <point x="330" y="752"/>
      <point x="319" y="806"/>
      <point x="319" y="878" type="curve" smooth="yes"/>
      <point x="319" y="904" type="line" smooth="yes"/>
      <point x="319" y="961"/>
      <point x="339" y="984"/>
      <point x="376" y="984" type="curve" smooth="yes"/>
      <point x="413" y="984"/>
      <point x="432" y="960"/>
      <point x="432" y="904" type="curve" smooth="yes"/>
      <point x="432" y="886" type="line" smooth="yes"/>
      <point x="432" y="814"/>
      <point x="408" y="772"/>
      <point x="324" y="715" type="curve" smooth="yes"/>
      <point x="250" y="665" type="line" smooth="yes"/>
      <point x="109" y="570"/>
      <point x="40" y="465"/>
      <point x="40" y="321" type="curve" smooth="yes"/>
      <point x="40" y="307" type="line" smooth="yes"/>
      <point x="40" y="85"/>
      <point x="147" y="-27"/>
      <point x="348" y="-27" type="curve" smooth="yes"/>
      <point x="509" y="-27"/>
      <point x="598" y="47"/>
      <point x="614" y="192" type="curve"/>
      <point x="633" y="192" type="line"/>
      <point x="623" y="464" type="line"/>
      <point x="481" y="464" type="line"/>
      <point x="475" y="346" type="line" smooth="yes"/>
      <point x="472" y="290"/>
      <point x="449" y="264"/>
      <point x="407" y="264" type="curve" smooth="yes"/>
      <point x="362" y="264"/>
      <point x="340" y="287"/>
      <point x="340" y="335" type="curve" smooth="yes"/>
      <point x="340" y="340" type="line" smooth="yes"/>
      <point x="340" y="403"/>
      <point x="373" y="434"/>
      <point x="455" y="496" type="curve" smooth="yes"/>
      <point x="539" y="560" type="line" smooth="yes"/>
      <point x="653" y="647"/>
      <point x="709" y="755"/>
      <point x="709" y="884" type="curve" smooth="yes"/>
      <point x="709" y="914" type="line" smooth="yes"/>
      <point x="709" y="1131"/>
      <point x="597" y="1244"/>
    </contour>
    <contour>
      <point x="806" y="487" type="curve" smooth="yes"/>
      <point x="883" y="487"/>
      <point x="925" y="537"/>
      <point x="925" y="634" type="curve" smooth="yes"/>
      <point x="925" y="655" type="line" smooth="yes"/>
      <point x="925" y="752"/>
      <point x="883" y="804"/>
      <point x="806" y="804" type="curve" smooth="yes"/>
      <point x="728" y="804"/>
      <point x="686" y="752"/>
      <point x="686" y="655" type="curve" smooth="yes"/>
      <point x="686" y="636" type="line" smooth="yes"/>
      <point x="686" y="539"/>
      <point x="728" y="487"/>
    </contour>
    <contour>
      <point x="1471" y="955" type="line" smooth="yes"/>
      <point x="1633" y="955"/>
      <point x="1708" y="1028"/>
      <point x="1708" y="1183" type="curve" smooth="yes"/>
      <point x="1708" y="1189" type="line" smooth="yes"/>
      <point x="1708" y="1303"/>
      <point x="1660" y="1367"/>
      <point x="1564" y="1378" type="curve"/>
      <point x="1564" y="1420" type="line"/>
      <point x="1345" y="1420" type="line"/>
      <point x="1344.79" y="1418.19"/>
      <point x="1341.19" y="1387.62"/>
      <point x="1341" y="1386" type="curve"/>
      <point x="1395" y="1386"/>
      <point x="1421" y="1357"/>
      <point x="1421" y="1299" type="curve" smooth="yes"/>
      <point x="1421" y="1294" type="line" smooth="yes"/>
      <point x="1421" y="1236"/>
      <point x="1395" y="1207"/>
      <point x="1341" y="1207" type="curve" smooth="yes"/>
      <point x="1323" y="1207" type="line"/>
      <point x="1323" y="955" type="line"/>
    </contour>
    <contour>
      <point x="2113" y="1003.47" type="line"/>
      <point x="2113" y="765" type="line" smooth="yes"/>
      <point x="2113" y="708"/>
      <point x="2099" y="685"/>
      <point x="2066" y="685" type="curve" smooth="yes"/>
      <point x="2032" y="685"/>
      <point x="2019" y="708"/>
      <point x="2019" y="765" type="curve" smooth="yes"/>
      <point x="2019" y="897" type="line" smooth="yes"/>
      <point x="2019" y="938"/>
      <point x="2033" y="959"/>
      <point x="2065" y="959" type="curve" smooth="yes"/>
      <point x="2102" y="959"/>
      <point x="2125" y="930"/>
      <point x="2132" y="872" type="curve"/>
      <point x="2140" y="1054" type="line"/>
      <point x="2096" y="1054" type="line"/>
      <point x="2079" y="1154"/>
      <point x="2026" y="1201"/>
      <point x="1934" y="1201" type="curve" smooth="yes"/>
      <point x="1805" y="1201"/>
      <point x="1742" y="1108"/>
      <point x="1742" y="919" type="curve" smooth="yes"/>
      <point x="1742" y="785" type="line" smooth="yes"/>
      <point x="1742" y="551"/>
      <point x="1852" y="440"/>
      <point x="2064" y="440" type="curve" smooth="yes"/>
      <point x="2284" y="440"/>
      <point x="2393" y="553"/>
      <point x="2393" y="776" type="curve" smooth="yes"/>
      <point x="2393" y="1003.47" type="line"/>
    </contour>
    <contour>
      <point x="1267" y="1628" type="line"/>
      <point x="1267" y="1386" type="line"/>
      <point x="1788" y="1386" type="line" smooth="yes"/>
      <point x="2009" y="1386"/>
      <point x="2104" y="1299"/>
      <point x="2104" y="1095" type="curve" smooth="yes"/>
      <point x="2104" y="993.521" type="line"/>
      <point x="2393" y="993.521" type="line"/>
      <point x="2393" y="1100" type="line" smooth="yes"/>
      <point x="2393" y="1459"/>
      <point x="2207" y="1628"/>
      <point x="1792" y="1628" type="curve" smooth="yes"/>
    </contour>
  </outline>
  <guideline angle="90" x="207" y="0"/>
  <guideline angle="0" x="0" y="1403"/>
  <guideline angle="90" x="156" y="0"/>
  <guideline angle="0" x="0" y="1281"/>
</glyph>
<glyph name="NgamatraO.kn" format="2">
  <advance width="2820"/>
  <outline>
    <component base="NgamatraE.kn"/>
    <contour>
      <point x="1693" y="700" type="curve" smooth="yes"/>
      <point x="1693" y="561" type="line" smooth="yes"/>
      <point x="1693" y="360"/>
      <point x="1614" y="265"/>
      <point x="1442" y="265" type="curve" smooth="yes"/>
      <point x="1280" y="265"/>
      <point x="1201" y="343"/>
      <point x="1174" y="455" type="curve"/>
      <point x="1091" y="428" type="line"/>
      <point x="1095" y="110"/>
      <point x="1267" y="-27"/>
      <point x="1538" y="-27" type="curve" smooth="yes"/>
      <point x="1855" y="-27"/>
      <point x="1994" y="169"/>
      <point x="1994" y="522" type="curve" smooth="yes"/>
      <point x="1994" y="695" type="line" smooth="yes"/>
      <point x="1994" y="882"/>
      <point x="2057" y="978"/>
      <point x="2226" y="978" type="curve" smooth="yes"/>
      <point x="2395" y="978"/>
      <point x="2458" y="879"/>
      <point x="2458" y="695" type="curve" smooth="yes"/>
      <point x="2458" y="528.304" type="line"/>
      <point x="2758" y="522.605" type="line"/>
      <point x="2758" y="700" type="line" smooth="yes"/>
      <point x="2758" y="1058"/>
      <point x="2576" y="1243"/>
      <point x="2227" y="1243" type="curve" smooth="yes"/>
      <point x="1874" y="1243"/>
      <point x="1693" y="1058"/>
    </contour>
    <contour>
      <point x="2758" y="532.605" type="line"/>
      <point x="2462.77" y="539.895" type="line"/>
      <point x="2463" y="312" type="line" smooth="yes"/>
      <point x="2463.06" y="252"/>
      <point x="2449" y="227"/>
      <point x="2414" y="227" type="curve" smooth="yes"/>
      <point x="2379" y="227"/>
      <point x="2365" y="252"/>
      <point x="2365" y="312" type="curve" smooth="yes"/>
      <point x="2365" y="442" type="line" smooth="yes"/>
      <point x="2365" y="485"/>
      <point x="2380" y="506"/>
      <point x="2412" y="506" type="curve" smooth="yes"/>
      <point x="2454" y="506"/>
      <point x="2480" y="473"/>
      <point x="2488" y="407" type="curve"/>
      <point x="2496" y="601" type="line"/>
      <point x="2450" y="601" type="line"/>
      <point x="2430" y="702"/>
      <point x="2375" y="752"/>
      <point x="2279" y="752" type="curve" smooth="yes"/>
      <point x="2142" y="752"/>
      <point x="2076" y="655"/>
      <point x="2076" y="460" type="curve" smooth="yes"/>
      <point x="2076" y="322" type="line" smooth="yes"/>
      <point x="2076" y="90"/>
      <point x="2188" y="-28"/>
      <point x="2412" y="-28" type="curve" smooth="yes"/>
      <point x="2639" y="-28"/>
      <point x="2758" y="97"/>
      <point x="2758" y="355" type="curve" smooth="yes"/>
    </contour>
  </outline>
</glyph>
<glyph name="NnaHalant.kn" format="2">
  <advance width="1895"/>
  <outline>
    <contour>
      <point x="975" y="955" type="line"/>
      <point x="975" y="1207" type="line"/>
      <point x="54" y="1207" type="line"/>
      <point x="54" y="955" type="line"/>
    </contour>
    <contour>
      <point x="1216" y="386.402" type="line"/>
      <point x="1216" y="617" type="line" smooth="yes"/>
      <point x="1216" y="849"/>
      <point x="1114" y="967"/>
      <point x="896" y="967" type="curve" smooth="yes"/>
      <point x="734" y="967"/>
      <point x="658" y="904"/>
      <point x="639" y="811" type="curve"/>
      <point x="630" y="811" type="line"/>
      <point x="611" y="904"/>
      <point x="536" y="967"/>
      <point x="376" y="967" type="curve" smooth="yes"/>
      <point x="156" y="967"/>
      <point x="50" y="871"/>
      <point x="50" y="688" type="curve" smooth="yes"/>
      <point x="50" y="683" type="line" smooth="yes"/>
      <point x="50" y="545"/>
      <point x="121" y="472"/>
      <point x="260" y="463" type="curve"/>
      <point x="260" y="456" type="line"/>
      <point x="121" y="448"/>
      <point x="50" y="374"/>
      <point x="50" y="241" type="curve" smooth="yes"/>
      <point x="50" y="231" type="line" smooth="yes"/>
      <point x="50" y="64"/>
      <point x="164" y="-27"/>
      <point x="397" y="-27" type="curve" smooth="yes"/>
      <point x="420" y="-27"/>
      <point x="452" y="-26"/>
      <point x="502" y="-17" type="curve"/>
      <point x="521" y="216" type="line"/>
      <point x="503" y="212"/>
      <point x="474" y="211"/>
      <point x="454" y="211" type="curve" smooth="yes"/>
      <point x="381" y="211"/>
      <point x="344" y="230"/>
      <point x="344" y="279" type="curve"/>
      <point x="344" y="281" type="line"/>
      <point x="344" y="331"/>
      <point x="378" y="348"/>
      <point x="452" y="349" type="curve" smooth="yes"/>
      <point x="502" y="350" type="line"/>
      <point x="502" y="565" type="line"/>
      <point x="446" y="567" type="line" smooth="yes"/>
      <point x="373" y="570"/>
      <point x="344" y="590"/>
      <point x="344" y="649" type="curve" smooth="yes"/>
      <point x="344" y="652" type="line" smooth="yes"/>
      <point x="344" y="705"/>
      <point x="369" y="729"/>
      <point x="421" y="729" type="curve" smooth="yes"/>
      <point x="468" y="729"/>
      <point x="494" y="704"/>
      <point x="497" y="649" type="curve" smooth="yes"/>
      <point x="500" y="601" type="line"/>
      <point x="770" y="601" type="line"/>
      <point x="773" y="648" type="line" smooth="yes"/>
      <point x="777" y="704"/>
      <point x="803" y="729"/>
      <point x="846" y="729" type="curve" smooth="yes"/>
      <point x="901" y="729"/>
      <point x="923" y="698"/>
      <point x="923" y="630" type="curve" smooth="yes"/>
      <point x="923" y="393.965" type="line"/>
    </contour>
    <contour>
      <point x="930" y="399.396" type="line"/>
      <point x="930" y="272" type="line" smooth="yes"/>
      <point x="930" y="226"/>
      <point x="916" y="205"/>
      <point x="882" y="205" type="curve" smooth="yes"/>
      <point x="849" y="205"/>
      <point x="834" y="226"/>
      <point x="834" y="272" type="curve" smooth="yes"/>
      <point x="834" y="306" type="line" smooth="yes"/>
      <point x="834" y="341"/>
      <point x="847" y="359"/>
      <point x="881" y="359" type="curve" smooth="yes"/>
      <point x="917" y="359"/>
      <point x="937" y="339"/>
      <point x="944" y="304" type="curve"/>
      <point x="960" y="460" type="line"/>
      <point x="915" y="460" type="line"/>
      <point x="895" y="528"/>
      <point x="838" y="569"/>
      <point x="753" y="569" type="curve" smooth="yes"/>
      <point x="627" y="569"/>
      <point x="564" y="482"/>
      <point x="564" y="331" type="curve" smooth="yes"/>
      <point x="564" y="277" type="line" smooth="yes"/>
      <point x="564" y="81"/>
      <point x="670" y="-27"/>
      <point x="880" y="-27" type="curve" smooth="yes"/>
      <point x="1101" y="-27"/>
      <point x="1216" y="90"/>
      <point x="1216" y="315" type="curve" smooth="yes"/>
      <point x="1216" y="395" type="line"/>
    </contour>
    <contour>
      <point x="1539" y="1065" type="line"/>
      <point x="1539" y="1140" type="line" smooth="yes"/>
      <point x="1539" y="1258"/>
      <point x="1594" y="1314"/>
      <point x="1708" y="1314" type="curve" smooth="yes"/>
      <point x="1763" y="1314"/>
      <point x="1816" y="1305"/>
      <point x="1869" y="1285" type="curve"/>
      <point x="1841" y="1511" type="line"/>
      <point x="1792" y="1533"/>
      <point x="1730" y="1547"/>
      <point x="1655" y="1547" type="curve" smooth="yes"/>
      <point x="1402" y="1547"/>
      <point x="1277" y="1411"/>
      <point x="1277" y="1128" type="curve" smooth="yes"/>
      <point x="1277" y="1066" type="line"/>
    </contour>
    <contour>
      <point x="1580" y="516" type="curve" smooth="yes"/>
      <point x="1787" y="516"/>
      <point x="1891" y="623"/>
      <point x="1891" y="834" type="curve" smooth="yes"/>
      <point x="1891" y="916" type="line" smooth="yes"/>
      <point x="1891" y="1115"/>
      <point x="1801" y="1207"/>
      <point x="1607" y="1207" type="curve" smooth="yes"/>
      <point x="840" y="1207" type="line"/>
      <point x="840" y="955" type="line"/>
      <point x="1437" y="955" type="line"/>
      <point x="1437" y="980" type="line"/>
      <point x="1565" y="980" type="line" smooth="yes"/>
      <point x="1612" y="980"/>
      <point x="1627" y="961"/>
      <point x="1627" y="904" type="curve" smooth="yes"/>
      <point x="1627" y="826" type="line" smooth="yes"/>
      <point x="1627" y="771"/>
      <point x="1614" y="750"/>
      <point x="1583" y="750" type="curve" smooth="yes"/>
      <point x="1551" y="750"/>
      <point x="1539" y="771"/>
      <point x="1539" y="826" type="curve" smooth="yes"/>
      <point x="1539" y="1073" type="line"/>
      <point x="1277" y="1073" type="line"/>
      <point x="1277" y="844" type="line" smooth="yes"/>
      <point x="1277" y="622"/>
      <point x="1382" y="516"/>
    </contour>
  </outline>
  <guideline angle="90" x="1698" y="0"/>
  <guideline angle="0" x="0" y="1808"/>
</glyph>
<glyph name="Nnasmall1.kn" format="2">
  <outline>
    <contour>
      <point x="270" y="-496.685" type="line"/>
      <point x="270" y="-297" type="line" smooth="yes"/>
      <point x="270" y="-164"/>
      <point x="208" y="-97"/>
      <point x="86" y="-97" type="curve" smooth="yes"/>
      <point x="-11" y="-97"/>
      <point x="-67" y="-139"/>
      <point x="-75" y="-217" type="curve"/>
      <point x="-79" y="-217" type="line"/>
      <point x="-87" y="-139"/>
      <point x="-142" y="-97"/>
      <point x="-239" y="-97" type="curve" smooth="yes"/>
      <point x="-361" y="-97"/>
      <point x="-425" y="-162"/>
      <point x="-425" y="-291" type="curve" smooth="yes"/>
      <point x="-425" y="-299" type="line" smooth="yes"/>
      <point x="-425" y="-389"/>
      <point x="-385" y="-435"/>
      <point x="-304" y="-443" type="curve"/>
      <point x="-304" y="-443"/>
      <point x="-304" y="-447"/>
      <point x="-304" y="-447" type="curve"/>
      <point x="-387" y="-454"/>
      <point x="-425" y="-500"/>
      <point x="-425" y="-590" type="curve" smooth="yes"/>
      <point x="-425" y="-597" type="line" smooth="yes"/>
      <point x="-425" y="-713"/>
      <point x="-362" y="-769"/>
      <point x="-223" y="-769" type="curve" smooth="yes"/>
      <point x="-209" y="-769"/>
      <point x="-187" y="-769"/>
      <point x="-158" y="-763" type="curve"/>
      <point x="-143" y="-608" type="line"/>
      <point x="-154" y="-610"/>
      <point x="-172" y="-612"/>
      <point x="-188" y="-612" type="curve" smooth="yes"/>
      <point x="-225" y="-612"/>
      <point x="-241" y="-602"/>
      <point x="-241" y="-570" type="curve" smooth="yes"/>
      <point x="-241" y="-567" type="line" smooth="yes"/>
      <point x="-241" y="-536"/>
      <point x="-226.021" y="-524.716"/>
      <point x="-188" y="-522" type="curve" smooth="yes"/>
      <point x="-160" y="-520" type="line"/>
      <point x="-160" y="-375" type="line"/>
      <point x="-192" y="-373" type="line" smooth="yes"/>
      <point x="-225.992" y="-370.875"/>
      <point x="-239" y="-360"/>
      <point x="-239" y="-319" type="curve" smooth="yes"/>
      <point x="-239" y="-310" type="line" smooth="yes"/>
      <point x="-239" y="-276"/>
      <point x="-227" y="-260"/>
      <point x="-202" y="-260" type="curve" smooth="yes"/>
      <point x="-178" y="-260"/>
      <point x="-168" y="-276"/>
      <point x="-165" y="-309" type="curve" smooth="yes"/>
      <point x="-162" y="-342" type="line"/>
      <point x="7" y="-342" type="line"/>
      <point x="11" y="-311" type="line" smooth="yes"/>
      <point x="15.381" y="-277.047"/>
      <point x="25" y="-260"/>
      <point x="50" y="-260" type="curve" smooth="yes"/>
      <point x="77" y="-260"/>
      <point x="88" y="-278"/>
      <point x="88" y="-316" type="curve" smooth="yes"/>
      <point x="88" y="-496.783" type="line"/>
    </contour>
    <contour>
      <point x="96" y="-490.395" type="line"/>
      <point x="96" y="-577" type="line" smooth="yes"/>
      <point x="96" y="-609"/>
      <point x="89" y="-622"/>
      <point x="70" y="-622" type="curve" smooth="yes"/>
      <point x="50" y="-622"/>
      <point x="44" y="-609"/>
      <point x="44" y="-577" type="curve" smooth="yes"/>
      <point x="44" y="-548" type="line" smooth="yes"/>
      <point x="44" y="-527"/>
      <point x="50" y="-517"/>
      <point x="68" y="-517" type="curve" smooth="yes"/>
      <point x="83" y="-517"/>
      <point x="93" y="-526"/>
      <point x="100" y="-541" type="curve"/>
      <point x="102" y="-462" type="line"/>
      <point x="84" y="-462" type="line"/>
      <point x="74" y="-419"/>
      <point x="40" y="-394"/>
      <point x="-13" y="-394" type="curve" smooth="yes"/>
      <point x="-86" y="-394"/>
      <point x="-125" y="-443"/>
      <point x="-125" y="-546" type="curve" smooth="yes"/>
      <point x="-125" y="-586" type="line" smooth="yes"/>
      <point x="-125" y="-708"/>
      <point x="-59" y="-769"/>
      <point x="66" y="-769" type="curve" smooth="yes"/>
      <point x="199" y="-769"/>
      <point x="270" y="-702"/>
      <point x="270" y="-557" type="curve" smooth="yes"/>
      <point x="270" y="-487" type="line"/>
    </contour>
  </outline>
</glyph>
<glyph name="Nukta2.kn" format="2">
  <anchor x="0" y="0" name="_nukta"/>
  <outline>
    <contour>
      <point x="-332" y="-95" type="curve" smooth="yes"/>
      <point x="-407" y="-95"/>
      <point x="-454" y="-142"/>
      <point x="-454" y="-236" type="curve" smooth="yes"/>
      <point x="-454" y="-330"/>
      <point x="-407" y="-377"/>
      <point x="-332" y="-377" type="curve" smooth="yes"/>
      <point x="-257" y="-377"/>
      <point x="-210" y="-330"/>
      <point x="-210" y="-236" type="curve" smooth="yes"/>
      <point x="-210" y="-142"/>
      <point x="-257" y="-95"/>
    </contour>
    <contour>
      <point x="332" y="-95" type="curve" smooth="yes"/>
      <point x="257" y="-95"/>
      <point x="210" y="-142"/>
      <point x="210" y="-236" type="curve" smooth="yes"/>
      <point x="210" y="-330"/>
      <point x="257" y="-377"/>
      <point x="332" y="-377" type="curve" smooth="yes"/>
      <point x="407" y="-377"/>
      <point x="454" y="-330"/>
      <point x="454" y="-236" type="curve" smooth="yes"/>
      <point x="454" y="-142"/>
      <point x="407" y="-95"/>
    </contour>
  </outline>
  <guideline angle="90" x="-6" y="0"/>
</glyph>
<glyph name="PaUpadhmaniya.kn" format="2">
  <advance width="1238"/>
  <outline>
    <contour>
      <point x="322" y="763" type="curve" smooth="yes"/>
      <point x="139" y="763"/>
      <point x="49" y="645"/>
      <point x="49" y="410" type="curve" smooth="yes"/>
      <point x="49" y="328" type="line" smooth="yes"/>
      <point x="49" y="94"/>
      <point x="153" y="-27"/>
      <point x="346" y="-27" type="curve" smooth="yes"/>
      <point x="509" y="-27"/>
      <point x="597" y="47"/>
      <point x="613" y="192" type="curve"/>
      <point x="622" y="192" type="line"/>
      <point x="638" y="47"/>
      <point x="729" y="-27"/>
      <point x="892" y="-27" type="curve" smooth="yes"/>
      <point x="1080" y="-27"/>
      <point x="1183" y="97"/>
      <point x="1183" y="340" type="curve" smooth="yes"/>
      <point x="1183" y="458" type="line" smooth="yes"/>
      <point x="1183" y="625"/>
      <point x="1157" y="728"/>
      <point x="1111" y="826" type="curve"/>
      <point x="815" y="826" type="line"/>
      <point x="853" y="735"/>
      <point x="875" y="620"/>
      <point x="875" y="463" type="curve" smooth="yes"/>
      <point x="875" y="344" type="line" smooth="yes"/>
      <point x="875" y="290"/>
      <point x="855" y="264"/>
      <point x="819" y="264" type="curve" smooth="yes"/>
      <point x="784" y="264"/>
      <point x="764" y="289"/>
      <point x="761" y="343" type="curve" smooth="yes"/>
      <point x="754" y="491" type="line"/>
      <point x="482" y="491" type="line"/>
      <point x="475" y="345" type="line" smooth="yes"/>
      <point x="472" y="288"/>
      <point x="451" y="260"/>
      <point x="411" y="260" type="curve" smooth="yes"/>
      <point x="369" y="260"/>
      <point x="349" y="289"/>
      <point x="349" y="346" type="curve" smooth="yes"/>
      <point x="349" y="387" type="line" smooth="yes"/>
      <point x="349" y="446"/>
      <point x="365" y="473"/>
      <point x="411" y="473" type="curve" smooth="yes"/>
      <point x="420" y="473"/>
      <point x="430" y="472"/>
      <point x="443" y="470" type="curve"/>
      <point x="428" y="746" type="line"/>
      <point x="399" y="756"/>
      <point x="368" y="763"/>
    </contour>
    <contour>
      <point x="368" y="1415" type="curve" smooth="yes"/>
      <point x="210" y="1415"/>
      <point x="134" y="1337"/>
      <point x="134" y="1168" type="curve" smooth="yes"/>
      <point x="134" y="1113" type="line" smooth="yes"/>
      <point x="134" y="943"/>
      <point x="210" y="866"/>
      <point x="368" y="866" type="curve" smooth="yes"/>
      <point x="525" y="866"/>
      <point x="602" y="943"/>
      <point x="602" y="1113" type="curve" smooth="yes"/>
      <point x="602" y="1168" type="line" smooth="yes"/>
      <point x="602" y="1337"/>
      <point x="525" y="1415"/>
    </contour>
    <contour>
      <point x="368" y="1232" type="curve" smooth="yes"/>
      <point x="395" y="1232"/>
      <point x="403" y="1211"/>
      <point x="403" y="1159" type="curve" smooth="yes"/>
      <point x="403" y="1119" type="line" smooth="yes"/>
      <point x="403" y="1067"/>
      <point x="395" y="1046"/>
      <point x="368" y="1046" type="curve" smooth="yes"/>
      <point x="340" y="1046"/>
      <point x="333" y="1067"/>
      <point x="333" y="1119" type="curve" smooth="yes"/>
      <point x="333" y="1159" type="line" smooth="yes"/>
      <point x="333" y="1211"/>
      <point x="340" y="1232"/>
    </contour>
    <contour>
      <point x="865" y="1415" type="curve" smooth="yes"/>
      <point x="707" y="1415"/>
      <point x="631" y="1337"/>
      <point x="631" y="1168" type="curve" smooth="yes"/>
      <point x="631" y="1113" type="line" smooth="yes"/>
      <point x="631" y="943"/>
      <point x="707" y="866"/>
      <point x="865" y="866" type="curve" smooth="yes"/>
      <point x="1022" y="866"/>
      <point x="1099" y="943"/>
      <point x="1099" y="1113" type="curve" smooth="yes"/>
      <point x="1099" y="1168" type="line" smooth="yes"/>
      <point x="1099" y="1337"/>
      <point x="1022" y="1415"/>
    </contour>
    <contour>
      <point x="865" y="1232" type="curve" smooth="yes"/>
      <point x="892" y="1232"/>
      <point x="900" y="1211"/>
      <point x="900" y="1159" type="curve" smooth="yes"/>
      <point x="900" y="1119" type="line" smooth="yes"/>
      <point x="900" y="1067"/>
      <point x="892" y="1046"/>
      <point x="865" y="1046" type="curve" smooth="yes"/>
      <point x="837" y="1046"/>
      <point x="830" y="1067"/>
      <point x="830" y="1119" type="curve" smooth="yes"/>
      <point x="830" y="1159" type="line" smooth="yes"/>
      <point x="830" y="1211"/>
      <point x="837" y="1232"/>
    </contour>
  </outline>
  <guideline angle="90" x="615" y="0"/>
  <guideline angle="90" x="615" y="0"/>
  <guideline angle="90" x="194.4" y="0"/>
</glyph>
<glyph name="PamatraO.kn" format="2">
  <advance width="2424"/>
  <outline>
    <component base="PamatraE.kn"/>
    <contour>
      <point x="1831" y="1244" type="curve" smooth="yes"/>
      <point x="1478" y="1244"/>
      <point x="1297" y="1059"/>
      <point x="1297" y="701" type="curve" smooth="yes"/>
      <point x="1297" y="579" type="line"/>
      <point x="1598" y="579" type="line"/>
      <point x="1598" y="696" type="line" smooth="yes"/>
      <point x="1598" y="883"/>
      <point x="1661" y="979"/>
      <point x="1830" y="979" type="curve" smooth="yes"/>
      <point x="1999" y="979"/>
      <point x="2062" y="880"/>
      <point x="2062" y="696" type="curve" smooth="yes"/>
      <point x="2062" y="529.304" type="line"/>
      <point x="2362" y="523.605" type="line"/>
      <point x="2362" y="701" type="line" smooth="yes"/>
      <point x="2362" y="1059"/>
      <point x="2180" y="1244"/>
    </contour>
    <contour>
      <point x="2362" y="533.605" type="line"/>
      <point x="2066.77" y="540.895" type="line"/>
      <point x="2067" y="313" type="line" smooth="yes"/>
      <point x="2067.06" y="253"/>
      <point x="2053" y="228"/>
      <point x="2018" y="228" type="curve" smooth="yes"/>
      <point x="1983" y="228"/>
      <point x="1969" y="253"/>
      <point x="1969" y="313" type="curve" smooth="yes"/>
      <point x="1969" y="443" type="line" smooth="yes"/>
      <point x="1969" y="486"/>
      <point x="1984" y="507"/>
      <point x="2016" y="507" type="curve" smooth="yes"/>
      <point x="2058" y="507"/>
      <point x="2084" y="474"/>
      <point x="2092" y="408" type="curve"/>
      <point x="2100" y="602" type="line"/>
      <point x="2054" y="602" type="line"/>
      <point x="2034" y="703"/>
      <point x="1979" y="753"/>
      <point x="1883" y="753" type="curve" smooth="yes"/>
      <point x="1746" y="753"/>
      <point x="1680" y="656"/>
      <point x="1680" y="461" type="curve" smooth="yes"/>
      <point x="1680" y="323" type="line" smooth="yes"/>
      <point x="1680" y="91"/>
      <point x="1792" y="-27"/>
      <point x="2016" y="-27" type="curve" smooth="yes"/>
      <point x="2243" y="-27"/>
      <point x="2362" y="98"/>
      <point x="2362" y="356" type="curve" smooth="yes"/>
    </contour>
    <contour>
      <point x="1297" y="601" type="line"/>
      <point x="1297" y="273" type="line" smooth="yes"/>
      <point x="1297" y="30"/>
      <point x="1196" y="-89"/>
      <point x="986" y="-89" type="curve" smooth="yes"/>
      <point x="806" y="-89"/>
      <point x="688" y="-26"/>
      <point x="620" y="43" type="curve"/>
      <point x="608" y="39" type="line"/>
      <point x="678" y="-261" type="line"/>
      <point x="754" y="-318"/>
      <point x="865" y="-362"/>
      <point x="1038" y="-362" type="curve" smooth="yes"/>
      <point x="1410" y="-362"/>
      <point x="1598" y="-155"/>
      <point x="1598" y="255" type="curve" smooth="yes"/>
      <point x="1598" y="596" type="line"/>
    </contour>
  </outline>
</glyph>
<glyph name="PamatraU.kn" format="2">
  <advance width="1704"/>
  <outline>
    <component base="Pa.kn"/>
    <contour>
      <point x="1340" y="1133" type="curve" smooth="yes"/>
      <point x="1306" y="1133"/>
      <point x="1276" y="1131"/>
      <point x="1252" y="1128" type="curve"/>
      <point x="1252" y="840" type="line"/>
      <point x="1258" y="841"/>
      <point x="1266" y="842"/>
      <point x="1274" y="842" type="curve" smooth="yes"/>
      <point x="1308" y="842"/>
      <point x="1327" y="821"/>
      <point x="1327" y="749" type="curve" smooth="yes"/>
      <point x="1327" y="263" type="line" smooth="yes"/>
      <point x="1327" y="6"/>
      <point x="1220" y="-119"/>
      <point x="995" y="-119" type="curve" smooth="yes"/>
      <point x="810" y="-119"/>
      <point x="689" y="-46"/>
      <point x="619" y="33" type="curve"/>
      <point x="607" y="29" type="line"/>
      <point x="677" y="-271" type="line"/>
      <point x="755" y="-340"/>
      <point x="869" y="-392"/>
      <point x="1047" y="-392" type="curve" smooth="yes"/>
      <point x="1439" y="-392"/>
      <point x="1637" y="-179"/>
      <point x="1637" y="245" type="curve" smooth="yes"/>
      <point x="1637" y="751" type="line" smooth="yes"/>
      <point x="1637" y="1013"/>
      <point x="1544" y="1133"/>
    </contour>
  </outline>
  <guideline angle="90" x="1035" y="0"/>
</glyph>
<glyph name="PhamatraU.kn" format="2">
  <advance width="1706"/>
  <outline>
    <component base="Pha.kn"/>
    <contour>
      <point x="1342" y="1133" type="curve" smooth="yes"/>
      <point x="1308" y="1133"/>
      <point x="1278" y="1131"/>
      <point x="1254" y="1128" type="curve"/>
      <point x="1254" y="840" type="line"/>
      <point x="1260" y="841"/>
      <point x="1268" y="842"/>
      <point x="1276" y="842" type="curve" smooth="yes"/>
      <point x="1310" y="842"/>
      <point x="1329" y="821"/>
      <point x="1329" y="749" type="curve" smooth="yes"/>
      <point x="1329" y="273" type="line" smooth="yes"/>
      <point x="1329" y="16"/>
      <point x="1222" y="-109"/>
      <point x="996" y="-109" type="curve" smooth="yes"/>
      <point x="812" y="-109"/>
      <point x="690" y="-38"/>
      <point x="620" y="38" type="curve"/>
      <point x="744" y="-161" type="line"/>
      <point x="760" y="-156" type="line"/>
      <point x="864" y="-337" type="line"/>
      <point x="929" y="-366"/>
      <point x="1006" y="-382"/>
      <point x="1099" y="-382" type="curve" smooth="yes"/>
      <point x="1458" y="-382"/>
      <point x="1639" y="-169"/>
      <point x="1639" y="255" type="curve" smooth="yes"/>
      <point x="1639" y="751" type="line" smooth="yes"/>
      <point x="1639" y="1013"/>
      <point x="1546" y="1133"/>
    </contour>
  </outline>
  <guideline angle="0" x="0" y="-435"/>
  <guideline angle="90" x="470" y="0"/>
</glyph>
<glyph name="RamatraI.kn" format="2">
  <advance width="1004"/>
  <outline>
    <contour>
      <point x="502" y="251" type="curve" smooth="yes"/>
      <point x="413.608" y="251"/>
      <point x="375" y="311.319"/>
      <point x="375" y="440" type="curve" smooth="yes"/>
      <point x="375" y="756" type="line" smooth="yes"/>
      <point x="375" y="884.681"/>
      <point x="413.608" y="945"/>
      <point x="502" y="945" type="curve" smooth="yes"/>
      <point x="591.408" y="945"/>
      <point x="629" y="884.681"/>
      <point x="629" y="756" type="curve" smooth="yes"/>
      <point x="629" y="440" type="line" smooth="yes"/>
      <point x="629" y="311.319"/>
      <point x="591.408" y="251"/>
    </contour>
    <contour>
      <point x="479" y="1595" type="curve" smooth="yes"/>
      <point x="201.654" y="1595"/>
      <point x="67" y="1478"/>
      <point x="67" y="1266" type="curve" smooth="yes"/>
      <point x="67" y="1101"/>
      <point x="148" y="1019"/>
      <point x="319" y="983" type="curve"/>
      <point x="417" y="1180" type="line"/>
      <point x="389" y="1187"/>
      <point x="376" y="1210"/>
      <point x="376" y="1244" type="curve" smooth="yes"/>
      <point x="376" y="1301"/>
      <point x="414.644" y="1327"/>
      <point x="496" y="1327" type="curve" smooth="yes"/>
      <point x="631.109" y="1327"/>
      <point x="717" y="1253.15"/>
      <point x="717" y="1040" type="curve" smooth="yes"/>
      <point x="717" y="549" type="line"/>
      <point x="939" y="525" type="line"/>
      <point x="939" y="1051" type="line" smooth="yes"/>
      <point x="939" y="1417"/>
      <point x="788.345" y="1595"/>
    </contour>
    <contour>
      <point x="708" y="1090" type="curve"/>
      <point x="673.286" y="1167.85"/>
      <point x="604.821" y="1200"/>
      <point x="492" y="1200" type="curve" smooth="yes"/>
      <point x="436.231" y="1200"/>
      <point x="388.573" y="1190"/>
      <point x="347" y="1168" type="curve"/>
      <point x="334.227" y="1160.69"/>
      <point x="228.772" y="1100.31"/>
      <point x="216" y="1093" type="curve"/>
      <point x="114" y="1017.79"/>
      <point x="65" y="912.496"/>
      <point x="65" y="735" type="curve" smooth="yes"/>
      <point x="65" y="433" type="line" smooth="yes"/>
      <point x="65" y="119.325"/>
      <point x="206.648" y="-32"/>
      <point x="502" y="-32" type="curve" smooth="yes"/>
      <point x="797.352" y="-32"/>
      <point x="939" y="119.325"/>
      <point x="939" y="433" type="curve" smooth="yes"/>
      <point x="939" y="619" type="line"/>
      <point x="750" y="1094" type="line"/>
      <point x="740.308" y="1093.08"/>
      <point x="716.179" y="1090.78"/>
    </contour>
  </outline>
</glyph>
<glyph name="RamatraU.kn" format="2">
  <advance width="1482"/>
  <outline>
    <component base="Ra.kn"/>
    <component base="matraU.kn" xOffset="998"/>
    <contour>
      <point x="862" y="369" type="line"/>
      <point x="933" y="370" type="line"/>
      <point x="933" y="457" type="line"/>
      <point x="862" y="457" type="line"/>
    </contour>
  </outline>
</glyph>
<glyph name="Rasmall2.kn.alt1" format="2">
  <outline>
    <contour>
      <point x="302" y="-507" type="line"/>
      <point x="310.815" y="-556.023"/>
      <point x="319" y="-625.926"/>
      <point x="319" y="-704" type="curve" smooth="yes"/>
      <point x="319" y="-935.987"/>
      <point x="206.48" y="-1030"/>
      <point x="-40" y="-1030" type="curve" smooth="yes"/>
      <point x="-136.702" y="-1030"/>
      <point x="-236.193" y="-1017.9"/>
      <point x="-305" y="-999" type="curve"/>
      <point x="-280" y="-1152" type="line"/>
      <point x="-218.783" y="-1167.32"/>
      <point x="-122.319" y="-1179"/>
      <point x="-24" y="-1179" type="curve" smooth="yes"/>
      <point x="327.518" y="-1179"/>
      <point x="494" y="-1035.56"/>
      <point x="494" y="-721" type="curve" smooth="yes"/>
      <point x="494" y="-637.778"/>
      <point x="482.324" y="-558.214"/>
      <point x="467" y="-507" type="curve"/>
    </contour>
  </outline>
</glyph>
<glyph name="RraObsoleteHalant.kn" format="2">
  <advance width="2573"/>
  <outline>
    <component base="RraObsolete.kn"/>
    <component base="Halant.kn" xOffset="1940"/>
    <contour>
      <point x="1884" y="759" type="line" smooth="yes"/>
      <point x="1884" y="872"/>
      <point x="1839" y="937"/>
      <point x="1761" y="948" type="curve"/>
      <point x="1761" y="993" type="line"/>
      <point x="1516" y="993" type="line"/>
      <point x="1516" y="955" type="line"/>
      <point x="1573" y="955"/>
      <point x="1601" y="929"/>
      <point x="1601" y="865" type="curve" smooth="yes"/>
      <point x="1601" y="857" type="line" smooth="yes"/>
      <point x="1601" y="801"/>
      <point x="1575" y="772"/>
      <point x="1526" y="772" type="curve" smooth="yes"/>
      <point x="1491" y="772"/>
      <point x="1465" y="787"/>
      <point x="1453" y="809" type="curve"/>
      <point x="1391" y="737" type="line"/>
      <point x="1408" y="592"/>
      <point x="1488" y="508"/>
      <point x="1647" y="508" type="curve" smooth="yes"/>
      <point x="1802" y="508"/>
      <point x="1884" y="593"/>
      <point x="1884" y="754" type="curve" smooth="yes"/>
    </contour>
    <contour>
      <point x="1727" y="955" type="line"/>
      <point x="1727" y="1207" type="line"/>
      <point x="1501" y="1207" type="line"/>
      <point x="1501" y="955" type="line"/>
    </contour>
  </outline>
  <guideline angle="90" x="2584" y="0"/>
</glyph>
<glyph name="Sasmall1.kn" format="2">
  <outline>
    <contour>
      <point x="-281" y="-309" type="curve" smooth="yes"/>
      <point x="-416" y="-309"/>
      <point x="-484" y="-379"/>
      <point x="-484" y="-527" type="curve" smooth="yes"/>
      <point x="-484" y="-566" type="line" smooth="yes"/>
      <point x="-484" y="-636"/>
      <point x="-468" y="-694"/>
      <point x="-455" y="-723" type="curve"/>
      <point x="-275" y="-723" type="line"/>
      <point x="-291" y="-682"/>
      <point x="-304" y="-617"/>
      <point x="-304" y="-563" type="curve" smooth="yes"/>
      <point x="-304" y="-517" type="line" smooth="yes"/>
      <point x="-304" y="-480"/>
      <point x="-295" y="-466"/>
      <point x="-276" y="-466" type="curve" smooth="yes"/>
      <point x="-256" y="-466"/>
      <point x="-247.807" y="-479.978"/>
      <point x="-244" y="-515" type="curve" smooth="yes"/>
      <point x="-239" y="-561" type="line" smooth="yes"/>
      <point x="-226.828" y="-672.981"/>
      <point x="-159" y="-730"/>
      <point x="-30" y="-730" type="curve" smooth="yes"/>
      <point x="115" y="-730"/>
      <point x="189" y="-653"/>
      <point x="189" y="-501" type="curve" smooth="yes"/>
      <point x="189" y="-273" type="line" smooth="yes"/>
      <point x="189" y="-133"/>
      <point x="135" y="-67"/>
      <point x="12" y="-67" type="curve" smooth="yes"/>
      <point x="-10" y="-67"/>
      <point x="-28" y="-69"/>
      <point x="-45" y="-72" type="curve"/>
      <point x="-45" y="-230" type="line"/>
      <point x="-43.3594" y="-230"/>
      <point x="-37.4987" y="-230"/>
      <point x="-36" y="-230" type="curve"/>
      <point x="-10" y="-230"/>
      <point x="3" y="-242"/>
      <point x="3" y="-283" type="curve" smooth="yes"/>
      <point x="3" y="-512" type="line" smooth="yes"/>
      <point x="3" y="-548"/>
      <point x="-8" y="-566"/>
      <point x="-32" y="-566" type="curve" smooth="yes"/>
      <point x="-56" y="-566"/>
      <point x="-67.3006" y="-551.034"/>
      <point x="-71" y="-517" type="curve" smooth="yes"/>
      <point x="-76" y="-471" type="line" smooth="yes"/>
      <point x="-87.7422" y="-362.972"/>
      <point x="-160" y="-309"/>
    </contour>
  </outline>
</glyph>
<glyph name="SsamatraE.kn.1" format="2">
  <advance width="1256"/>
  <outline>
    <component base="matraE.kn" xOffset="529"/>
    <contour>
      <point x="926" y="955" type="line"/>
      <point x="926" y="1207" type="line"/>
      <point x="88" y="1207" type="line"/>
      <point x="88" y="955" type="line"/>
    </contour>
    <contour>
      <point x="620" y="991" type="curve" smooth="yes"/>
      <point x="524" y="991"/>
      <point x="472" y="932"/>
      <point x="472" y="822" type="curve" smooth="yes"/>
      <point x="472" y="800" type="line" smooth="yes"/>
      <point x="472" y="690"/>
      <point x="524" y="631"/>
      <point x="620" y="631" type="curve" smooth="yes"/>
      <point x="716" y="631"/>
      <point x="767" y="688"/>
      <point x="767" y="798" type="curve" smooth="yes"/>
      <point x="767" y="822" type="line" smooth="yes"/>
      <point x="767" y="932"/>
      <point x="716" y="991"/>
    </contour>
    <contour>
      <point x="324" y="763" type="curve" smooth="yes"/>
      <point x="141" y="763"/>
      <point x="51" y="645"/>
      <point x="51" y="410" type="curve" smooth="yes"/>
      <point x="51" y="328" type="line" smooth="yes"/>
      <point x="51" y="94"/>
      <point x="155" y="-27"/>
      <point x="348" y="-27" type="curve" smooth="yes"/>
      <point x="511" y="-27"/>
      <point x="599" y="47"/>
      <point x="615" y="192" type="curve"/>
      <point x="625" y="192" type="line"/>
      <point x="638" y="46"/>
      <point x="706" y="-27"/>
      <point x="831" y="-27" type="curve" smooth="yes"/>
      <point x="948" y="-27"/>
      <point x="1012" y="52"/>
      <point x="1043" y="226" type="curve"/>
      <point x="1054" y="223" type="line"/>
      <point x="1016" y="-73" type="line"/>
      <point x="1292" y="-73" type="line"/>
      <point x="1217" y="253"/>
      <point x="1154" y="648"/>
      <point x="1122" y="826" type="curve"/>
      <point x="835" y="826" type="line"/>
      <point x="855" y="640"/>
      <point x="883" y="419"/>
      <point x="883" y="350" type="curve" smooth="yes"/>
      <point x="883" y="292"/>
      <point x="864" y="264"/>
      <point x="826" y="264" type="curve" smooth="yes"/>
      <point x="784" y="264"/>
      <point x="765" y="291"/>
      <point x="763" y="349" type="curve" smooth="yes"/>
      <point x="757" y="491" type="line"/>
      <point x="484" y="491" type="line"/>
      <point x="477" y="345" type="line" smooth="yes"/>
      <point x="474" y="288"/>
      <point x="453" y="260"/>
      <point x="413" y="260" type="curve" smooth="yes"/>
      <point x="371" y="260"/>
      <point x="351" y="289"/>
      <point x="351" y="346" type="curve" smooth="yes"/>
      <point x="351" y="387" type="line" smooth="yes"/>
      <point x="351" y="446"/>
      <point x="367" y="473"/>
      <point x="413" y="473" type="curve" smooth="yes"/>
      <point x="422" y="473"/>
      <point x="432" y="472"/>
      <point x="445" y="470" type="curve"/>
      <point x="430" y="746" type="line"/>
      <point x="401" y="756"/>
      <point x="370" y="763"/>
    </contour>
  </outline>
  <guideline angle="0" x="0" y="-631"/>
  <guideline angle="0" x="0" y="1340"/>
</glyph>
<glyph name="SsamatraE.kn" format="2">
  <advance width="1256"/>
  <outline>
    <component base="matraE.kn" xOffset="527"/>
    <contour>
      <point x="324" y="763" type="curve" smooth="yes"/>
      <point x="141" y="763"/>
      <point x="51" y="645"/>
      <point x="51" y="410" type="curve" smooth="yes"/>
      <point x="51" y="328" type="line" smooth="yes"/>
      <point x="51" y="94"/>
      <point x="155" y="-27"/>
      <point x="348" y="-27" type="curve" smooth="yes"/>
      <point x="511" y="-27"/>
      <point x="599" y="47"/>
      <point x="615" y="192" type="curve"/>
      <point x="625" y="192" type="line"/>
      <point x="638" y="46"/>
      <point x="706" y="-27"/>
      <point x="831" y="-27" type="curve" smooth="yes"/>
      <point x="926" y="-27"/>
      <point x="978" y="26"/>
      <point x="1010" y="137" type="curve"/>
      <point x="1018" y="135" type="line"/>
      <point x="974" y="-156" type="line"/>
      <point x="1271" y="-156" type="line"/>
      <point x="1223" y="183"/>
      <point x="1155" y="632"/>
      <point x="1124" y="826" type="curve"/>
      <point x="835" y="826" type="line"/>
      <point x="855" y="640"/>
      <point x="883" y="419"/>
      <point x="883" y="350" type="curve" smooth="yes"/>
      <point x="883" y="292"/>
      <point x="864" y="264"/>
      <point x="826" y="264" type="curve" smooth="yes"/>
      <point x="784" y="264"/>
      <point x="765" y="291"/>
      <point x="763" y="349" type="curve" smooth="yes"/>
      <point x="757" y="491" type="line"/>
      <point x="484" y="491" type="line"/>
      <point x="477" y="345" type="line" smooth="yes"/>
      <point x="474" y="288"/>
      <point x="453" y="260"/>
      <point x="413" y="260" type="curve" smooth="yes"/>
      <point x="371" y="260"/>
      <point x="351" y="289"/>
      <point x="351" y="346" type="curve" smooth="yes"/>
      <point x="351" y="387" type="line" smooth="yes"/>
      <point x="351" y="446"/>
      <point x="367" y="473"/>
      <point x="413" y="473" type="curve" smooth="yes"/>
      <point x="422" y="473"/>
      <point x="432" y="472"/>
      <point x="445" y="470" type="curve"/>
      <point x="430" y="746" type="line"/>
      <point x="401" y="756"/>
      <point x="370" y="763"/>
    </contour>
    <contour>
      <point x="926" y="955" type="line"/>
      <point x="926" y="1207" type="line"/>
      <point x="88" y="1207" type="line"/>
      <point x="88" y="955" type="line"/>
    </contour>
    <contour>
      <point x="620" y="991" type="curve" smooth="yes"/>
      <point x="524" y="991"/>
      <point x="472" y="932"/>
      <point x="472" y="822" type="curve" smooth="yes"/>
      <point x="472" y="800" type="line" smooth="yes"/>
      <point x="472" y="690"/>
      <point x="524" y="631"/>
      <point x="620" y="631" type="curve" smooth="yes"/>
      <point x="716" y="631"/>
      <point x="767" y="688"/>
      <point x="767" y="798" type="curve" smooth="yes"/>
      <point x="767" y="822" type="line" smooth="yes"/>
      <point x="767" y="932"/>
      <point x="716" y="991"/>
    </contour>
  </outline>
  <guideline angle="0" x="0" y="-631"/>
  <guideline angle="0" x="0" y="1340"/>
</glyph>
<glyph name="SsamatraU.kn" format="2">
  <advance width="1762"/>
  <outline>
    <component base="Ssa.kn"/>
    <contour>
      <point x="1296" y="254" type="curve" smooth="yes"/>
      <point x="1230" y="254"/>
      <point x="1205" y="294"/>
      <point x="1191" y="388" type="curve"/>
      <point x="1162" y="391" type="line"/>
      <point x="1162" y="350" type="line"/>
      <point x="1182" y="99"/>
      <point x="1254" y="-27"/>
      <point x="1430" y="-27" type="curve" smooth="yes"/>
      <point x="1609" y="-27"/>
      <point x="1695" y="100"/>
      <point x="1695" y="355" type="curve" smooth="yes"/>
      <point x="1695" y="840" type="line" smooth="yes"/>
      <point x="1695" y="1102"/>
      <point x="1602" y="1222"/>
      <point x="1398" y="1222" type="curve" smooth="yes"/>
      <point x="1364" y="1222"/>
      <point x="1334" y="1220"/>
      <point x="1310" y="1217" type="curve"/>
      <point x="1310" y="929" type="line"/>
      <point x="1316" y="930"/>
      <point x="1324" y="931"/>
      <point x="1332" y="931" type="curve" smooth="yes"/>
      <point x="1366" y="931"/>
      <point x="1385" y="910"/>
      <point x="1385" y="838" type="curve" smooth="yes"/>
      <point x="1385" y="389" type="line" smooth="yes"/>
      <point x="1385" y="295"/>
      <point x="1362" y="254"/>
    </contour>
  </outline>
  <guideline angle="90" x="1123" y="0"/>
</glyph>
<glyph name="SsamatraUu.kn" format="2">
  <advance width="2470"/>
  <outline>
    <component base="Ssa.kn"/>
    <contour>
      <point x="1276" y="254" type="curve" smooth="yes"/>
      <point x="1223.28" y="254"/>
      <point x="1203.62" y="286.524"/>
      <point x="1192" y="363" type="curve"/>
      <point x="1163" y="366" type="line"/>
      <point x="1163" y="325" type="line"/>
      <point x="1181.26" y="90.9727"/>
      <point x="1248.54" y="-27"/>
      <point x="1410" y="-27" type="curve" smooth="yes"/>
      <point x="1568.24" y="-27"/>
      <point x="1644" y="92"/>
      <point x="1644" y="330" type="curve" smooth="yes"/>
      <point x="1644" y="604" type="line"/>
      <point x="1343" y="604" type="line"/>
      <point x="1343" y="364" type="line" smooth="yes"/>
      <point x="1343" y="287.44"/>
      <point x="1326.47" y="254"/>
    </contour>
    <contour>
      <point x="1877" y="1244" type="curve" smooth="yes"/>
      <point x="1524" y="1244"/>
      <point x="1343" y="1059"/>
      <point x="1343" y="701" type="curve" smooth="yes"/>
      <point x="1343" y="579" type="line"/>
      <point x="1644" y="579" type="line"/>
      <point x="1644" y="696" type="line" smooth="yes"/>
      <point x="1644" y="883"/>
      <point x="1707" y="979"/>
      <point x="1876" y="979" type="curve" smooth="yes"/>
      <point x="2045" y="979"/>
      <point x="2108" y="880"/>
      <point x="2108" y="696" type="curve" smooth="yes"/>
      <point x="2108" y="529.304" type="line"/>
      <point x="2408" y="523.605" type="line"/>
      <point x="2408" y="701" type="line" smooth="yes"/>
      <point x="2408" y="1059"/>
      <point x="2226" y="1244"/>
    </contour>
    <contour>
      <point x="2408" y="533.605" type="line"/>
      <point x="2112.77" y="540.895" type="line"/>
      <point x="2113" y="313" type="line" smooth="yes"/>
      <point x="2113.06" y="253"/>
      <point x="2099" y="228"/>
      <point x="2064" y="228" type="curve" smooth="yes"/>
      <point x="2029" y="228"/>
      <point x="2015" y="253"/>
      <point x="2015" y="313" type="curve" smooth="yes"/>
      <point x="2015" y="443" type="line" smooth="yes"/>
      <point x="2015" y="486"/>
      <point x="2030" y="507"/>
      <point x="2062" y="507" type="curve" smooth="yes"/>
      <point x="2104" y="507"/>
      <point x="2130" y="474"/>
      <point x="2138" y="408" type="curve"/>
      <point x="2146" y="602" type="line"/>
      <point x="2100" y="602" type="line"/>
      <point x="2080" y="703"/>
      <point x="2025" y="753"/>
      <point x="1929" y="753" type="curve" smooth="yes"/>
      <point x="1792" y="753"/>
      <point x="1726" y="656"/>
      <point x="1726" y="461" type="curve" smooth="yes"/>
      <point x="1726" y="323" type="line" smooth="yes"/>
      <point x="1726" y="91"/>
      <point x="1838" y="-27"/>
      <point x="2062" y="-27" type="curve" smooth="yes"/>
      <point x="2289" y="-27"/>
      <point x="2408" y="98"/>
      <point x="2408" y="356" type="curve" smooth="yes"/>
    </contour>
  </outline>
  <guideline angle="90" x="1227" y="0"/>
</glyph>
<glyph name="TaYasmall.kn" format="2">
  <advance width="373"/>
  <outline>
    <contour>
      <point x="-75" y="-573" type="line"/>
      <point x="-168" y="-613"/>
      <point x="-210" y="-651"/>
      <point x="-210" y="-720" type="curve" smooth="yes"/>
      <point x="-210" y="-834"/>
      <point x="-104" y="-900"/>
      <point x="72" y="-900" type="curve" smooth="yes"/>
      <point x="294" y="-900"/>
      <point x="407" y="-797"/>
      <point x="407" y="-596" type="curve" smooth="yes"/>
      <point x="407" y="-589" type="line" smooth="yes"/>
      <point x="407" y="-376"/>
      <point x="292" y="-217"/>
      <point x="292" y="-48" type="curve" smooth="yes"/>
      <point x="292" y="-37" type="line" smooth="yes"/>
      <point x="292" y="13"/>
      <point x="313" y="39"/>
      <point x="354" y="39" type="curve" smooth="yes"/>
      <point x="368" y="39"/>
      <point x="383" y="37"/>
      <point x="393" y="34" type="curve"/>
      <point x="363" y="195" type="line"/>
      <point x="342" y="201"/>
      <point x="319" y="204"/>
      <point x="295" y="204" type="curve" smooth="yes"/>
      <point x="170" y="204"/>
      <point x="107" y="126"/>
      <point x="107" y="-20" type="curve" smooth="yes"/>
      <point x="107" y="-30" type="line" smooth="yes"/>
      <point x="107" y="-211"/>
      <point x="222" y="-390"/>
      <point x="222" y="-569" type="curve" smooth="yes"/>
      <point x="222" y="-576" type="line" smooth="yes"/>
      <point x="222" y="-684"/>
      <point x="175" y="-735"/>
      <point x="78" y="-735" type="curve" smooth="yes"/>
      <point x="26" y="-735"/>
      <point x="-24" y="-721"/>
      <point x="-24" y="-684" type="curve" smooth="yes"/>
      <point x="-24" y="-652"/>
      <point x="-5" y="-638"/>
      <point x="31" y="-599" type="curve"/>
    </contour>
    <contour>
      <point x="-173" y="-668" type="line" smooth="yes"/>
      <point x="7" y="-668"/>
      <point x="92" y="-584.654"/>
      <point x="92" y="-413" type="curve" smooth="yes"/>
      <point x="92" y="-344" type="line" smooth="yes"/>
      <point x="92" y="-183.328"/>
      <point x="7.0238" y="-102"/>
      <point x="-157" y="-102" type="curve" smooth="yes"/>
      <point x="-318.02" y="-102"/>
      <point x="-401" y="-181.316"/>
      <point x="-401" y="-334" type="curve" smooth="yes"/>
      <point x="-401" y="-346" type="line" smooth="yes"/>
      <point x="-401" y="-425.826"/>
      <point x="-370" y="-473.13"/>
      <point x="-302" y="-482" type="curve"/>
      <point x="-302" y="-487" type="line"/>
      <point x="-737" y="-487" type="line"/>
      <point x="-718" y="-668" type="line"/>
    </contour>
    <contour>
      <point x="-155" y="-279" type="curve" smooth="yes"/>
      <point x="-122.188" y="-279"/>
      <point x="-110" y="-300.421"/>
      <point x="-110" y="-353" type="curve" smooth="yes"/>
      <point x="-110" y="-408" type="line" smooth="yes"/>
      <point x="-110" y="-461.571"/>
      <point x="-123" y="-483"/>
      <point x="-158" y="-483" type="curve" smooth="yes"/>
      <point x="-187.75" y="-483"/>
      <point x="-200" y="-461.571"/>
      <point x="-200" y="-408" type="curve" smooth="yes"/>
      <point x="-200" y="-353" type="line" smooth="yes"/>
      <point x="-200" y="-300.421"/>
      <point x="-186.875" y="-279"/>
    </contour>
  </outline>
</glyph>
<glyph name="Tasmall2.kn" format="2">
  <advance width="565"/>
  <outline>
    <contour>
      <point x="751" y="-707" type="line" smooth="yes"/>
      <point x="908.265" y="-707"/>
      <point x="981" y="-634.323"/>
      <point x="981" y="-482" type="curve" smooth="yes"/>
      <point x="981" y="-414" type="line" smooth="yes"/>
      <point x="981" y="-271.668"/>
      <point x="906.676" y="-201"/>
      <point x="761" y="-201" type="curve" smooth="yes"/>
      <point x="618.321" y="-201"/>
      <point x="545" y="-269.663"/>
      <point x="545" y="-405" type="curve" smooth="yes"/>
      <point x="545" y="-422" type="line" smooth="yes"/>
      <point x="545" y="-492"/>
      <point x="572" y="-536"/>
      <point x="632" y="-543" type="curve"/>
      <point x="632" y="-547" type="line"/>
      <point x="288" y="-547" type="line"/>
      <point x="305" y="-707" type="line"/>
    </contour>
    <contour>
      <point x="763" y="-357" type="curve" smooth="yes"/>
      <point x="791.571" y="-357"/>
      <point x="803" y="-375.716"/>
      <point x="803" y="-423" type="curve" smooth="yes"/>
      <point x="803" y="-477" type="line" smooth="yes"/>
      <point x="803" y="-525.279"/>
      <point x="791.571" y="-544"/>
      <point x="763" y="-544" type="curve" smooth="yes"/>
      <point x="734.395" y="-544"/>
      <point x="722" y="-525.279"/>
      <point x="722" y="-477" type="curve" smooth="yes"/>
      <point x="722" y="-423" type="line" smooth="yes"/>
      <point x="722" y="-375.716"/>
      <point x="734.395" y="-357"/>
    </contour>
  </outline>
</glyph>
<glyph name="TtamatraE.kn" format="2">
  <advance width="1251"/>
  <outline>
    <component base="matraE.kn" xOffset="552"/>
    <contour>
      <point x="964" y="955" type="line"/>
      <point x="964" y="1207" type="line"/>
      <point x="716" y="1207" type="line"/>
      <point x="716" y="955" type="line"/>
    </contour>
    <contour>
      <point x="527" y="459" type="line"/>
      <point x="630" y="187" type="line"/>
      <point x="648" y="47"/>
      <point x="737" y="-27"/>
      <point x="890" y="-27" type="curve" smooth="yes"/>
      <point x="1104" y="-27"/>
      <point x="1201" y="90"/>
      <point x="1201" y="339" type="curve" smooth="yes"/>
      <point x="1201" y="376" type="line" smooth="yes"/>
      <point x="1201" y="547"/>
      <point x="1132" y="634"/>
      <point x="993" y="645" type="curve"/>
      <point x="993" y="652" type="line"/>
      <point x="1120" y="659"/>
      <point x="1181" y="711"/>
      <point x="1181" y="811" type="curve" smooth="yes"/>
      <point x="1181" y="816" type="line" smooth="yes"/>
      <point x="1181" y="900"/>
      <point x="1136" y="947"/>
      <point x="1058" y="956" type="curve"/>
      <point x="1058" y="992" type="line"/>
      <point x="823" y="992" type="line"/>
      <point x="823" y="955" type="line"/>
      <point x="874" y="955"/>
      <point x="899" y="931"/>
      <point x="899" y="873" type="curve" smooth="yes"/>
      <point x="899" y="865" type="line" smooth="yes"/>
      <point x="899" y="799"/>
      <point x="871" y="776"/>
      <point x="801" y="774" type="curve" smooth="yes"/>
      <point x="731" y="772" type="line"/>
      <point x="731" y="528" type="line"/>
      <point x="807" y="526" type="line" smooth="yes"/>
      <point x="877" y="524"/>
      <point x="901" y="490"/>
      <point x="901" y="391" type="curve" smooth="yes"/>
      <point x="901" y="354" type="line" smooth="yes"/>
      <point x="901" y="293"/>
      <point x="884" y="264"/>
      <point x="836" y="264" type="curve" smooth="yes"/>
      <point x="795" y="264"/>
      <point x="773" y="292"/>
      <point x="770" y="353" type="curve" smooth="yes"/>
      <point x="764" y="460" type="line"/>
    </contour>
    <contour>
      <point x="399" y="1243" type="curve" smooth="yes"/>
      <point x="164" y="1243"/>
      <point x="52" y="1139"/>
      <point x="52" y="924" type="curve" smooth="yes"/>
      <point x="52" y="911" type="line" smooth="yes"/>
      <point x="52" y="747"/>
      <point x="120" y="663"/>
      <point x="258" y="652" type="curve"/>
      <point x="258" y="644" type="line"/>
      <point x="119" y="633"/>
      <point x="50" y="546"/>
      <point x="50" y="375" type="curve" smooth="yes"/>
      <point x="50" y="338" type="line" smooth="yes"/>
      <point x="50" y="89"/>
      <point x="147" y="-28"/>
      <point x="361" y="-28" type="curve" smooth="yes"/>
      <point x="514" y="-28"/>
      <point x="603" y="46"/>
      <point x="621" y="186" type="curve"/>
      <point x="719" y="186" type="line"/>
      <point x="653" y="459" type="line"/>
      <point x="487" y="459" type="line"/>
      <point x="481" y="352" type="line" smooth="yes"/>
      <point x="478" y="291"/>
      <point x="456" y="263"/>
      <point x="415" y="263" type="curve" smooth="yes"/>
      <point x="367" y="263"/>
      <point x="350" y="292"/>
      <point x="350" y="353" type="curve" smooth="yes"/>
      <point x="350" y="390" type="line" smooth="yes"/>
      <point x="350" y="489"/>
      <point x="374" y="523"/>
      <point x="444" y="525" type="curve" smooth="yes"/>
      <point x="520" y="527" type="line"/>
      <point x="520" y="771" type="line"/>
      <point x="450" y="773" type="line" smooth="yes"/>
      <point x="380" y="775"/>
      <point x="352" y="801"/>
      <point x="352" y="874" type="curve" smooth="yes"/>
      <point x="352" y="878" type="line" smooth="yes"/>
      <point x="352" y="949"/>
      <point x="385" y="978"/>
      <point x="459" y="978" type="curve" smooth="yes"/>
      <point x="487" y="978"/>
      <point x="522" y="975"/>
      <point x="549" y="969" type="curve"/>
      <point x="525" y="1229" type="line"/>
      <point x="465" y="1242"/>
      <point x="427" y="1243"/>
    </contour>
  </outline>
</glyph>
<glyph name="Tthasmall1.kn" format="2">
  <outline>
    <contour>
      <point x="-166" y="-93" type="curve" smooth="yes"/>
      <point x="-342" y="-93"/>
      <point x="-433" y="-188"/>
      <point x="-433" y="-381" type="curve" smooth="yes"/>
      <point x="-433" y="-482" type="line" smooth="yes"/>
      <point x="-433" y="-674"/>
      <point x="-342" y="-770"/>
      <point x="-166" y="-770" type="curve" smooth="yes"/>
      <point x="11" y="-770"/>
      <point x="101" y="-674"/>
      <point x="101" y="-482" type="curve" smooth="yes"/>
      <point x="101" y="-381" type="line" smooth="yes"/>
      <point x="101" y="-188"/>
      <point x="11" y="-93"/>
    </contour>
    <contour>
      <point x="-166" y="-261" type="curve" smooth="yes"/>
      <point x="-98" y="-261"/>
      <point x="-69" y="-298"/>
      <point x="-69" y="-386" type="curve" smooth="yes"/>
      <point x="-69" y="-477" type="line" smooth="yes"/>
      <point x="-69" y="-565"/>
      <point x="-98" y="-602"/>
      <point x="-166" y="-602" type="curve" smooth="yes"/>
      <point x="-234" y="-602"/>
      <point x="-263" y="-565"/>
      <point x="-263" y="-477" type="curve" smooth="yes"/>
      <point x="-263" y="-386" type="line" smooth="yes"/>
      <point x="-263" y="-298"/>
      <point x="-234" y="-261"/>
    </contour>
    <contour>
      <point x="-166" y="-332" type="curve" smooth="yes"/>
      <point x="-215" y="-332"/>
      <point x="-234" y="-361"/>
      <point x="-234" y="-424" type="curve" smooth="yes"/>
      <point x="-234" y="-438" type="line" smooth="yes"/>
      <point x="-234" y="-501"/>
      <point x="-215" y="-530"/>
      <point x="-166" y="-530" type="curve" smooth="yes"/>
      <point x="-117" y="-530"/>
      <point x="-98" y="-501"/>
      <point x="-98" y="-438" type="curve" smooth="yes"/>
      <point x="-98" y="-424" type="line" smooth="yes"/>
      <point x="-98" y="-361"/>
      <point x="-117" y="-332"/>
    </contour>
  </outline>
</glyph>
